<?xml version="1.0" encoding="UTF-8" standalone="no"?>
<svg
   xmlns:dc="http://purl.org/dc/elements/1.1/"
   xmlns:cc="http://creativecommons.org/ns#"
   xmlns:rdf="http://www.w3.org/1999/02/22-rdf-syntax-ns#"
   xmlns:svg="http://www.w3.org/2000/svg"
   xmlns="http://www.w3.org/2000/svg"
   xmlns:sodipodi="http://sodipodi.sourceforge.net/DTD/sodipodi-0.dtd"
   xmlns:inkscape="http://www.inkscape.org/namespaces/inkscape"
   width="4.41611in"
   height="4.39528in"
   viewBox="0 0 424 422"
   version="1.1"
   id="svg1164"
   sodipodi:docname="acacia22-01.svg"
   inkscape:version="0.92.4 (5da689c313, 2019-01-14)">
  <metadata
     id="metadata1170">
    <rdf:RDF>
      <cc:Work
         rdf:about="">
        <dc:format>image/svg+xml</dc:format>
        <dc:type
           rdf:resource="http://purl.org/dc/dcmitype/StillImage" />
      </cc:Work>
    </rdf:RDF>
  </metadata>
  <defs
     id="defs1168" />
  <sodipodi:namedview
     pagecolor="#ffffff"
     bordercolor="#666666"
     borderopacity="1"
     objecttolerance="10"
     gridtolerance="10"
     guidetolerance="10"
     inkscape:pageopacity="0"
     inkscape:pageshadow="2"
     inkscape:window-width="1366"
     inkscape:window-height="659"
     id="namedview1166"
     showgrid="false"
     inkscape:zoom="1.1209942"
     inkscape:cx="211.97328"
     inkscape:cy="210.97343"
     inkscape:window-x="0"
     inkscape:window-y="31"
     inkscape:window-maximized="1"
     inkscape:current-layer="svg1164" />
  <path
     id="Selection #28"
     fill="none"
     stroke="black"
     stroke-width="1"
     d="M 382.00,417.00            C 382.00,417.00 421.00,417.00 421.00,417.00              421.00,417.00 421.00,378.00 421.00,378.00              412.32,379.15 401.16,381.23 394.17,386.79              385.28,393.86 382.87,406.26 382.00,417.00 Z"
     onclick="top.notify(evt)" />
  <path
     id="Selection #27"
     fill="none"
     stroke="black"
     stroke-width="1"
     d="M 369.00,417.00            C 369.00,417.00 378.00,417.00 378.00,417.00              378.12,403.45 382.95,388.92 395.00,381.47              399.84,378.47 405.47,376.66 411.00,375.42              413.38,374.89 418.49,374.36 419.98,372.42              421.24,370.76 420.99,367.04 421.00,365.00              409.19,365.54 390.59,370.54 382.17,379.10              373.05,388.37 369.58,404.35 369.00,417.00 Z"
     onclick="top.notify(evt)" />
  <path
     id="Selection #26"
     fill="none"
     stroke="black"
     stroke-width="1"
     d="M 419.00,286.00            C 413.44,289.63 400.13,296.82 398.04,303.00              396.86,306.48 399.30,310.15 401.06,313.00              405.94,320.88 412.45,328.60 420.00,334.00              420.00,334.00 420.00,302.00 420.00,302.00              420.00,302.00 419.00,286.00 419.00,286.00 Z"
     onclick="top.notify(evt)" />
  <path
     id="Selection #25"
     fill="none"
     stroke="black"
     stroke-width="1"
     d="M 289.00,416.00            C 289.00,416.00 338.00,416.00 338.00,416.00              334.09,410.78 322.65,400.94 317.00,397.47              314.43,395.89 310.08,393.30 307.00,393.93              299.90,395.40 292.23,409.90 289.00,416.00 Z"
     onclick="top.notify(evt)" />
  <path
     id="Selection #24"
     fill="none"
     stroke="black"
     stroke-width="1"
     d="M 321.00,317.00            C 321.00,323.57 322.35,341.51 325.93,346.67              327.93,349.54 332.88,351.67 336.00,353.25              343.21,356.89 350.21,361.78 358.00,364.00              358.00,364.00 366.59,353.83 366.59,353.83              367.40,351.24 364.83,347.22 363.58,345.00              360.90,340.25 353.67,324.59 349.79,322.31              344.06,318.94 327.92,318.68 321.00,317.00 Z"
     onclick="top.notify(evt)" />
  <path
     id="Selection #23"
     fill="none"
     stroke="black"
     stroke-width="1"
     d="M 420.00,261.00            C 407.74,270.01 396.44,280.85 386.09,292.00              382.88,295.46 376.34,302.04 376.90,307.00              377.58,312.96 386.45,328.76 390.03,334.00              392.13,337.07 396.86,342.64 397.53,346.00              398.58,351.26 393.52,357.42 387.17,353.11              380.36,348.48 370.13,330.76 366.25,323.00              366.25,323.00 360.16,310.85 360.16,310.85              358.02,308.81 350.25,308.70 347.00,308.28              330.57,306.14 325.40,306.00 309.00,306.00              309.00,319.63 309.61,330.46 311.42,344.00              311.92,347.68 311.80,354.49 314.53,357.01              316.17,358.51 325.15,361.87 328.00,363.26              334.40,366.38 342.19,371.54 348.00,375.74              351.07,377.96 357.14,382.31 358.16,386.00              359.49,390.85 353.69,395.77 347.91,393.33              344.54,391.90 320.95,374.29 310.00,373.18              305.39,372.71 299.37,378.75 296.00,381.59              288.08,388.27 268.12,408.11 264.00,417.00              268.29,417.00 281.21,418.07 284.10,415.43              287.31,412.49 297.35,389.41 308.00,389.30              310.92,389.26 316.51,392.49 319.00,394.09              329.36,400.73 341.18,413.62 344.00,415.40              348.02,417.94 359.87,417.00 365.00,417.00              365.05,399.70 370.85,381.10 386.00,371.24              393.15,366.59 400.76,364.24 409.00,362.42              411.53,361.87 418.52,361.12 420.01,359.26              421.43,357.49 421.03,350.44 421.00,348.00              420.87,338.75 417.15,338.48 411.09,332.00              407.00,327.63 401.66,320.99 398.36,316.00              396.22,312.78 392.18,306.98 393.30,303.00              395.14,296.40 406.27,289.18 412.00,285.81              414.11,284.57 418.75,282.34 420.01,280.45              421.25,278.59 421.00,275.19 421.00,273.00              421.01,269.01 421.49,264.75 420.00,261.00 Z            M 375.00,353.00            C 375.00,353.00 375.00,355.00 375.00,355.00              367.04,359.58 364.10,362.46 359.00,370.00              359.00,370.00 334.00,357.24 334.00,357.24              334.00,357.24 321.93,349.66 321.93,349.66              321.93,349.66 319.00,339.00 319.00,339.00              319.00,339.00 316.00,313.00 316.00,313.00              328.11,313.00 331.12,313.42 343.00,315.80              346.44,316.49 351.68,317.00 354.21,319.48              359.81,324.99 366.58,346.26 375.00,353.00 Z"
     onclick="top.notify(evt)" />
  <path
     id="Selection #22"
     fill="none"
     stroke="black"
     stroke-width="1"
     d="M 420.00,227.00            C 420.00,227.00 378.00,269.00 378.00,269.00              378.00,269.00 362.00,283.40 362.00,283.40              362.00,283.40 355.00,284.00 355.00,284.00              355.00,284.00 287.00,284.00 287.00,284.00              287.00,284.00 287.00,351.00 287.00,351.00              287.00,351.00 286.40,358.00 286.40,358.00              286.40,358.00 272.00,374.00 272.00,374.00              272.00,374.00 230.00,417.00 230.00,417.00              230.00,417.00 251.00,417.00 251.00,417.00              252.79,416.99 255.25,417.06 256.91,416.40              260.06,415.16 266.99,406.02 269.58,403.00              277.42,393.85 285.77,385.18 295.00,377.44              297.54,375.31 304.07,369.83 307.00,369.03              310.37,368.12 315.83,370.70 319.00,372.01              325.22,374.59 332.39,378.29 338.00,382.00              344.22,386.12 346.31,389.55 354.00,390.00              353.46,383.43 350.20,381.93 345.00,378.35              337.70,373.32 330.12,368.45 322.00,364.86              318.21,363.19 311.22,361.44 309.17,357.87              308.01,355.84 307.20,345.01 306.93,342.00              306.93,342.00 304.01,312.00 304.01,312.00              303.84,304.53 303.43,301.16 312.00,301.00              312.00,301.00 346.00,303.84 346.00,303.84              348.92,304.15 359.89,304.88 361.78,306.02              364.73,307.80 366.65,314.68 368.26,318.00              372.72,327.25 376.14,333.71 382.37,342.00              385.83,346.59 387.30,349.32 393.00,351.00              394.28,344.03 391.03,342.35 387.16,337.00              382.06,329.96 378.17,322.01 374.86,314.00              373.74,311.29 371.77,306.89 372.51,304.00              373.51,300.09 380.98,292.19 383.84,289.00              392.90,278.85 399.59,272.74 410.00,264.08              416.13,258.98 420.84,257.50 421.00,249.00              421.09,243.83 421.70,231.28 420.00,227.00 Z"
     onclick="top.notify(evt)" />
  <path
     id="Selection #21"
     fill="none"
     stroke="black"
     stroke-width="1"
     d="M 419.99,199.00            C 419.99,199.00 371.00,248.00 371.00,248.00              371.00,248.00 353.00,264.40 353.00,264.40              353.00,264.40 346.00,265.00 346.00,265.00              346.00,265.00 268.00,265.00 268.00,265.00              268.00,265.00 268.00,342.00 268.00,342.00              268.00,342.00 267.40,349.00 267.40,349.00              267.40,349.00 251.00,367.00 251.00,367.00              251.00,367.00 220.00,398.00 220.00,398.00              220.00,398.00 202.00,417.00 202.00,417.00              202.00,417.00 218.00,417.00 218.00,417.00              225.58,416.87 228.03,412.04 233.43,407.12              233.43,407.12 263.00,378.00 263.00,378.00              266.99,374.01 280.84,361.25 282.40,357.00              283.12,355.06 283.00,352.09 283.00,350.00              283.00,350.00 283.00,280.00 283.00,280.00              283.00,280.00 353.00,280.00 353.00,280.00              364.93,279.98 364.94,276.47 373.17,268.58              373.17,268.58 398.00,244.00 398.00,244.00              401.95,240.05 418.21,224.54 419.99,221.00              421.69,217.58 421.44,202.64 419.99,199.00 Z"
     onclick="top.notify(evt)" />
  <path
     id="Selection #20"
     fill="none"
     stroke="black"
     stroke-width="1"
     d="M 419.99,172.00            C 419.99,172.00 364.16,227.00 364.16,227.00              364.16,227.00 344.00,245.40 344.00,245.40              344.00,245.40 337.00,246.00 337.00,246.00              337.00,246.00 248.00,246.00 248.00,246.00              248.00,246.00 248.00,335.00 248.00,335.00              248.00,337.06 248.11,339.99 247.44,341.91              245.89,346.37 233.01,357.03 229.00,361.00              229.00,361.00 194.00,396.00 194.00,396.00              188.31,401.69 178.36,410.91 174.00,417.00              178.47,417.00 191.55,417.54 195.00,416.15              199.39,414.37 207.34,405.66 211.00,402.00              211.00,402.00 242.00,371.00 242.00,371.00              246.10,366.90 260.82,353.29 262.40,349.00              263.12,347.06 263.00,344.09 263.00,342.00              263.00,342.00 263.00,260.00 263.00,260.00              263.00,260.00 346.00,260.00 346.00,260.00              356.97,259.98 358.45,255.55 366.00,248.00              366.00,248.00 394.00,220.00 394.00,220.00              394.00,220.00 411.00,203.00 411.00,203.00              413.39,200.61 418.58,195.79 419.99,193.00              421.68,189.59 421.43,175.61 419.99,172.00 Z"
     onclick="top.notify(evt)" />
  <path
     id="Selection #19"
     fill="none"
     stroke="black"
     stroke-width="1"
     d="M 419.99,144.00            C 419.99,144.00 358.17,205.70 358.17,205.70              358.17,205.70 336.99,225.07 336.99,225.07              336.99,225.07 329.00,226.00 329.00,226.00              329.00,226.00 229.00,226.00 229.00,226.00              229.00,226.00 229.00,326.00 229.00,326.00              229.00,326.00 228.40,333.00 228.40,333.00              228.40,333.00 221.00,342.00 221.00,342.00              221.00,342.00 204.99,357.17 204.99,357.17              204.99,357.17 169.00,393.00 169.00,393.00              169.00,393.00 146.00,417.00 146.00,417.00              146.00,417.00 161.00,417.00 161.00,417.00              161.00,417.00 167.00,416.40 167.00,416.40              167.00,416.40 182.00,403.00 182.00,403.00              182.00,403.00 221.00,364.00 221.00,364.00              221.00,364.00 236.00,349.00 236.00,349.00              236.00,349.00 243.40,340.00 243.40,340.00              243.40,340.00 244.00,333.00 244.00,333.00              244.00,333.00 244.00,241.00 244.00,241.00              244.00,241.00 337.00,241.00 337.00,241.00              348.22,240.98 350.28,235.72 358.00,228.00              358.00,228.00 390.00,196.00 390.00,196.00              390.00,196.00 410.00,176.00 410.00,176.00              412.53,173.47 418.54,167.88 419.99,165.00              421.68,161.59 421.43,147.61 419.99,144.00 Z"
     onclick="top.notify(evt)" />
  <path
     id="Selection #18"
     fill="none"
     stroke="black"
     stroke-width="1"
     d="M 390.00,5.00            C 392.45,18.89 392.64,31.26 410.00,34.77              413.35,35.17 417.54,35.00 421.00,34.77              421.00,34.77 421.00,5.00 421.00,5.00              421.00,5.00 390.00,5.00 390.00,5.00 Z"
     onclick="top.notify(evt)" />
  <path
     id="Selection #17"
     fill="none"
     stroke="black"
     stroke-width="1"
     d="M 310.00,5.00            C 310.00,5.00 327.00,26.00 327.00,26.00              333.27,25.03 339.01,22.33 345.00,20.33              350.08,18.64 357.68,15.98 363.00,17.43              369.85,19.30 372.12,26.50 366.77,31.47              358.43,39.23 339.53,36.42 334.09,38.60              329.67,40.37 322.26,55.30 320.00,60.00              325.50,61.60 340.20,66.94 345.00,64.45              349.75,61.99 359.31,52.11 364.00,48.34              367.81,45.27 372.30,42.93 376.95,45.86              382.03,49.06 382.43,54.24 379.30,59.00              375.32,65.05 362.45,75.90 360.62,82.00              359.44,85.96 364.23,99.53 365.00,105.00              370.01,103.57 385.57,95.64 387.40,90.96              388.28,88.70 387.92,83.64 388.04,81.00              388.23,76.52 389.35,68.03 391.11,64.00              392.79,60.14 396.30,55.73 401.00,56.05              406.52,56.43 409.16,62.07 408.82,67.00              408.38,73.26 405.90,80.21 403.60,86.00              402.51,88.75 400.06,94.13 400.78,97.00              401.53,99.99 404.78,102.33 407.00,104.28              407.00,104.28 421.00,116.00 421.00,116.00              421.00,116.00 421.00,40.00 421.00,40.00              398.16,39.93 386.21,27.85 386.00,5.00              386.00,5.00 310.00,5.00 310.00,5.00 Z"
     onclick="top.notify(evt)" />
  <path
     id="Selection #16"
     fill="none"
     stroke="black"
     stroke-width="1"
     d="M 259.00,91.00            C 259.00,111.98 257.65,124.52 252.53,145.00              252.53,145.00 248.00,162.00 248.00,162.00              256.73,162.93 262.07,168.27 263.00,177.00              278.25,171.92 305.09,166.02 321.00,166.00              321.00,166.00 334.00,166.00 334.00,166.00              331.11,162.05 319.97,150.66 315.00,151.26              315.00,151.26 305.00,155.42 305.00,155.42              296.68,158.98 296.08,159.50 287.00,161.20              282.88,161.97 277.64,162.47 274.76,158.61              270.88,153.42 279.26,148.38 283.00,146.31              283.00,146.31 311.00,132.86 311.00,132.86              313.83,131.61 322.44,128.50 324.01,126.35              325.26,124.64 325.84,118.26 325.97,116.00              326.21,111.52 327.00,102.13 328.00,98.00              328.00,98.00 307.00,99.72 307.00,99.72              304.73,99.99 301.16,99.85 299.27,101.02              296.63,102.66 294.99,108.12 293.70,111.00              293.70,111.00 282.75,134.00 282.75,134.00              280.44,138.63 273.36,155.18 266.28,150.22              262.55,147.61 262.92,141.90 263.62,138.00              264.51,133.00 267.22,124.63 269.31,120.00              270.31,117.79 273.53,111.95 273.72,110.00              274.17,105.47 262.62,93.99 259.00,91.00 Z"
     onclick="top.notify(evt)" />
  <path
     id="Selection #15"
     fill="none"
     stroke="black"
     stroke-width="1"
     d="M 233.00,176.00            C 233.00,176.00 227.00,198.00 227.00,198.00              227.00,198.00 250.00,195.00 250.00,195.00              247.05,186.56 242.48,178.02 233.00,176.00 Z"
     onclick="top.notify(evt)" />
  <path
     id="Selection #14"
     fill="none"
     stroke="black"
     stroke-width="1"
     d="M 199.00,224.00            C 199.00,224.00 177.00,227.00 177.00,227.00              179.86,235.50 184.47,243.97 194.00,246.00              194.00,246.00 199.00,224.00 199.00,224.00 Z"
     onclick="top.notify(evt)" />
  <path
     id="Selection #13"
     fill="none"
     stroke="black"
     stroke-width="1"
     d="M 93.00,256.00            C 95.87,259.92 107.06,271.27 112.00,270.73              112.00,270.73 122.00,266.58 122.00,266.58              130.32,263.02 130.92,262.50 140.00,260.80              144.12,260.03 149.36,259.53 152.24,263.39              156.12,268.58 147.74,273.62 144.00,275.69              144.00,275.69 116.00,289.15 116.00,289.15              113.20,290.35 104.53,293.53 102.99,295.65              101.75,297.34 101.15,303.76 101.04,306.00              100.78,311.26 100.22,318.97 99.00,324.00              99.00,324.00 120.00,322.28 120.00,322.28              122.27,322.01 125.84,322.15 127.73,320.98              130.37,319.34 132.01,313.87 133.30,311.00              133.30,311.00 144.25,288.00 144.25,288.00              146.56,283.37 153.64,266.82 160.72,271.78              164.43,274.38 164.12,280.12 163.33,284.00              162.27,289.22 159.87,297.17 157.69,302.00              156.70,304.20 153.47,310.06 153.28,312.00              152.98,315.03 155.05,316.87 156.85,319.00              160.38,323.16 163.79,327.53 168.00,331.00              168.00,309.30 169.61,296.15 174.89,275.00              174.89,275.00 179.00,260.00 179.00,260.00              170.60,259.10 165.58,254.27 164.00,246.00              164.00,246.00 131.00,253.20 131.00,253.20              115.94,256.10 107.99,256.00 93.00,256.00 Z"
     onclick="top.notify(evt)" />
  <path
     id="Selection #12"
     fill="none"
     stroke="black"
     stroke-width="1"
     d="M 64.00,310.00            C 64.00,310.00 69.85,331.00 69.85,331.00              70.66,333.99 72.07,338.02 70.93,341.00              68.38,347.64 51.72,361.19 50.47,367.00              49.33,372.30 53.60,373.90 57.91,372.16              62.98,370.11 77.69,353.86 83.00,352.31              85.60,351.55 90.29,353.19 93.00,353.87              93.00,353.87 114.00,359.00 114.00,359.00              114.00,359.00 103.28,377.00 103.28,377.00              101.48,380.15 99.06,385.16 95.90,386.99              91.43,389.58 77.09,388.70 70.00,390.29              66.84,391.00 61.63,392.94 61.63,396.91              61.63,402.52 71.81,400.20 75.00,399.49              75.00,399.49 92.00,393.69 92.00,393.69              94.30,392.88 97.58,391.53 99.99,392.35              102.68,393.27 105.27,396.89 107.17,399.00              110.17,402.33 121.15,415.13 124.28,416.43              125.69,417.01 127.50,416.97 129.00,417.00              131.48,417.04 136.85,417.19 139.00,416.40              142.57,415.09 148.14,408.86 151.00,406.00              151.00,406.00 175.00,382.00 175.00,382.00              175.00,382.00 210.00,347.00 210.00,347.00              213.26,343.74 221.98,335.85 223.40,332.00              224.12,330.06 224.00,327.09 224.00,325.00              224.00,325.00 224.00,222.00 224.00,222.00              224.00,222.00 328.00,222.00 328.00,222.00              330.09,222.00 333.06,222.12 335.00,221.40              339.08,219.90 350.27,207.73 354.00,204.00              354.00,204.00 402.00,156.27 402.00,156.27              405.52,152.97 419.17,140.33 420.44,136.83              421.16,134.84 421.04,130.25 421.00,128.00              420.96,125.84 420.98,123.99 419.98,122.00              417.32,116.71 399.29,103.88 396.69,99.72              394.93,96.91 396.37,93.84 397.34,91.00              400.17,82.78 402.01,80.37 403.74,71.00              404.31,67.91 405.79,62.07 401.78,60.66              395.95,58.60 394.13,68.22 393.46,72.00              392.55,77.18 393.35,89.60 390.98,93.91              389.33,96.90 384.92,99.28 382.00,100.99              382.00,100.99 363.00,112.00 363.00,112.00              363.00,112.00 357.29,91.00 357.29,91.00              356.41,87.91 354.86,84.16 356.07,81.00              358.74,74.05 375.29,60.79 376.53,55.00              377.04,52.60 376.44,49.98 373.77,49.31              369.86,48.34 365.70,51.79 363.00,54.17              359.37,57.37 348.69,67.67 345.00,69.31              341.78,70.73 338.21,69.19 335.00,68.37              335.00,68.37 313.00,63.00 313.00,63.00              313.00,63.00 323.72,45.00 323.72,45.00              325.49,41.91 328.16,36.85 331.18,34.98              333.94,33.28 338.80,33.04 342.00,33.00              342.00,33.00 346.00,33.00 346.00,33.00              350.20,32.95 358.43,32.11 361.94,29.91              366.91,26.82 366.40,21.95 360.98,21.31              355.56,20.68 343.31,25.18 338.00,27.19              335.20,28.25 329.88,30.63 327.00,29.65              324.21,28.71 321.63,25.18 319.72,23.00              316.74,19.62 305.96,6.92 302.72,5.57              301.31,4.99 299.50,5.03 298.00,5.00              295.52,4.96 290.15,4.81 288.00,5.60              284.43,6.91 278.86,13.14 276.00,16.00              276.00,16.00 253.00,39.00 253.00,39.00              253.00,39.00 217.00,75.00 217.00,75.00              213.74,78.26 205.02,86.15 203.60,90.00              202.88,91.94 203.00,94.91 203.00,97.00              203.00,97.00 203.00,190.00 203.00,190.00              202.99,192.54 203.32,196.48 201.40,198.40              199.77,200.04 197.14,199.96 195.00,200.00              195.00,200.00 178.00,200.00 178.00,200.00              178.00,200.00 99.00,200.00 99.00,200.00              96.91,200.00 93.94,199.88 92.00,200.60              87.92,202.10 76.73,214.27 73.00,218.00              73.00,218.00 23.83,266.59 23.83,266.59              19.87,270.29 8.24,280.55 6.60,285.00              5.84,287.07 5.96,291.67 6.00,294.00              6.04,296.16 6.02,298.01 7.02,300.00              9.78,305.49 28.78,318.60 30.80,323.28              31.84,325.71 30.15,329.63 29.31,332.00              26.53,339.82 24.89,342.16 23.26,351.00              22.69,354.09 21.21,359.93 25.22,361.34              30.85,363.33 32.72,354.71 33.38,351.00              34.46,345.06 33.41,332.77 36.02,328.09              37.78,324.92 41.94,322.90 45.00,321.15              45.00,321.15 64.00,310.00 64.00,310.00 Z            M 255.00,79.00            C 255.00,79.00 273.58,100.00 273.58,100.00              275.58,102.35 279.17,105.78 279.05,109.00              278.97,111.23 275.40,117.64 274.26,120.00              271.85,124.98 269.92,130.62 268.62,136.00              268.18,138.02 266.58,143.64 268.62,145.09              270.54,146.48 272.54,143.26 273.38,141.98              273.38,141.98 281.75,126.00 281.75,126.00              281.75,126.00 290.42,107.00 290.42,107.00              291.50,104.49 293.43,99.26 295.41,97.60              297.47,95.88 304.19,95.31 307.00,95.08              307.00,95.08 333.00,93.00 333.00,93.00              333.00,93.00 330.07,119.00 330.07,119.00              329.79,122.06 329.63,127.95 327.41,130.19              326.06,131.53 319.21,134.22 317.00,135.23              317.00,135.23 290.00,147.75 290.00,147.75              284.84,150.34 280.78,151.66 278.00,157.00              288.09,157.51 293.87,155.54 303.00,151.58              305.70,150.40 313.82,146.04 316.00,145.94              319.27,145.79 322.63,149.11 325.00,151.08              330.00,155.23 342.47,165.48 346.00,170.00              326.22,170.00 314.87,169.63 295.00,173.60              295.00,173.60 274.00,178.37 274.00,178.37              271.29,179.06 265.53,180.96 263.05,180.68              257.80,180.10 260.00,175.88 256.35,171.10              252.70,166.32 248.49,166.05 243.00,166.00              243.00,166.00 248.12,144.00 248.12,144.00              248.12,144.00 253.72,115.00 253.72,115.00              253.72,115.00 255.00,92.00 255.00,92.00              255.00,92.00 255.00,79.00 255.00,79.00 Z            M 254.00,199.00            C 254.00,199.00 220.00,203.00 220.00,203.00              220.00,203.00 230.00,171.00 230.00,171.00              244.90,171.73 253.87,184.94 254.00,199.00 Z            M 207.00,219.00            C 207.00,219.00 197.00,251.00 197.00,251.00              182.11,250.27 173.04,237.06 173.00,223.00              173.00,223.00 207.00,219.00 207.00,219.00 Z            M 168.00,240.00            C 168.11,251.59 172.41,255.89 184.00,256.00              184.00,256.00 174.61,298.00 174.61,298.00              174.61,298.00 172.00,330.00 172.00,330.00              172.00,330.00 173.00,343.00 173.00,343.00              167.22,338.83 158.44,327.86 153.42,322.00              151.42,319.66 147.83,316.21 147.95,313.00              148.03,310.77 151.60,304.36 152.74,302.00              155.15,297.02 157.08,291.38 158.38,286.00              158.82,283.98 160.42,278.36 158.38,276.91              156.44,275.50 154.55,278.74 153.73,280.02              153.73,280.02 145.25,296.00 145.25,296.00              145.25,296.00 136.58,315.00 136.58,315.00              135.50,317.51 133.57,322.74 131.59,324.40              129.53,326.12 122.81,326.69 120.00,326.92              120.00,326.92 94.00,329.00 94.00,329.00              94.00,329.00 96.83,304.00 96.83,304.00              97.15,300.80 97.02,295.12 98.98,292.50              100.74,290.16 111.73,286.13 115.00,284.72              125.36,280.25 141.61,273.07 150.00,266.00              140.42,263.34 130.71,267.32 122.00,271.31              119.56,272.43 113.25,275.95 111.00,276.06              107.47,276.22 103.53,272.17 101.00,270.00              95.06,264.89 85.57,257.87 81.00,252.00              97.33,252.00 109.62,252.32 126.00,249.57              126.00,249.57 168.00,240.00 168.00,240.00 Z"
     onclick="top.notify(evt)" />
  <path
     id="Selection #11"
     fill="none"
     stroke="black"
     stroke-width="1"
     d="M 6.00,306.00            C 6.00,306.00 6.00,382.00 6.00,382.00              29.14,382.21 40.50,393.97 41.00,417.00              41.00,417.00 117.00,417.00 117.00,417.00              117.00,417.00 100.00,396.00 100.00,396.00              93.73,396.97 87.99,399.67 82.00,401.67              76.92,403.36 69.32,406.02 64.00,404.57              57.15,402.70 54.88,395.50 60.23,390.53              66.41,384.78 77.97,384.94 86.00,384.17              88.01,383.98 92.00,384.17 93.62,383.43              95.92,382.38 97.51,379.11 98.72,377.00              98.72,377.00 107.00,362.00 107.00,362.00              101.50,360.40 86.80,355.06 82.00,357.55              77.25,360.01 67.69,369.89 63.00,373.66              59.19,376.73 54.70,379.07 50.05,376.14              44.97,372.94 44.57,367.76 47.70,363.00              51.68,356.95 64.55,346.10 66.38,340.00              67.56,336.04 62.77,322.47 62.00,317.00              56.97,318.47 41.45,326.30 39.60,331.04              38.72,333.30 39.08,338.36 38.96,341.00              38.77,345.48 37.65,353.97 35.89,358.00              34.21,361.86 30.70,366.27 26.00,365.95              20.48,365.57 17.84,359.93 18.18,355.00              18.62,348.74 21.10,341.79 23.40,336.00              24.49,333.25 26.94,327.87 26.22,325.00              25.47,322.01 22.22,319.67 20.00,317.72              20.00,317.72 6.00,306.00 6.00,306.00 Z" />
  <path
     id="Selection #10"
     fill="none"
     stroke="black"
     stroke-width="1"
     d="M 6.00,306.00            C 6.00,306.00 6.00,382.00 6.00,382.00              29.14,382.21 40.50,393.97 41.00,417.00              41.00,417.00 117.00,417.00 117.00,417.00              117.00,417.00 100.00,396.00 100.00,396.00              93.73,396.97 87.99,399.67 82.00,401.67              76.92,403.36 69.32,406.02 64.00,404.57              57.15,402.70 54.88,395.50 60.23,390.53              66.41,384.78 77.97,384.94 86.00,384.17              88.01,383.98 92.00,384.17 93.62,383.43              95.92,382.38 97.51,379.11 98.72,377.00              98.72,377.00 107.00,362.00 107.00,362.00              101.50,360.40 86.80,355.06 82.00,357.55              77.25,360.01 67.69,369.89 63.00,373.66              59.19,376.73 54.70,379.07 50.05,376.14              44.97,372.94 44.57,367.76 47.70,363.00              51.68,356.95 64.55,346.10 66.38,340.00              67.56,336.04 62.77,322.47 62.00,317.00              56.97,318.47 41.45,326.30 39.60,331.04              38.72,333.30 39.08,338.36 38.96,341.00              38.77,345.48 37.65,353.97 35.89,358.00              34.21,361.86 30.70,366.27 26.00,365.95              20.48,365.57 17.84,359.93 18.18,355.00              18.62,348.74 21.10,341.79 23.40,336.00              24.49,333.25 26.94,327.87 26.22,325.00              25.47,322.01 22.22,319.67 20.00,317.72              20.00,317.72 6.00,306.00 6.00,306.00 Z"
     onclick="top.notify(evt)" />
  <path
     id="Selection #9"
     fill="none"
     stroke="black"
     stroke-width="1"
     d="M 183.00,181.00            C 183.00,181.00 90.00,181.00 90.00,181.00              78.78,181.02 76.72,186.28 69.00,194.00              69.00,194.00 37.00,226.00 37.00,226.00              37.00,226.00 15.00,248.00 15.00,248.00              9.73,253.28 6.15,255.18 6.00,263.00              6.00,263.00 6.00,278.00 6.00,278.00              6.00,278.00 29.00,256.00 29.00,256.00              29.00,256.00 68.00,217.00 68.00,217.00              68.00,217.00 83.20,202.26 83.20,202.26              83.20,202.26 90.04,196.60 90.04,196.60              90.04,196.60 97.00,196.00 97.00,196.00              97.00,196.00 198.00,196.00 198.00,196.00              198.00,196.00 198.00,96.00 198.00,96.00              198.00,93.91 197.88,90.94 198.60,89.00              200.29,84.40 215.47,70.72 219.83,66.58              219.83,66.58 259.00,28.00 259.00,28.00              264.94,22.06 276.55,11.22 281.00,5.00              281.00,5.00 266.00,5.00 266.00,5.00              266.00,5.00 260.17,5.56 260.17,5.56              260.17,5.56 245.00,19.00 245.00,19.00              245.00,19.00 206.00,58.00 206.00,58.00              206.00,58.00 191.00,73.00 191.00,73.00              191.00,73.00 183.60,82.00 183.60,82.00              183.60,82.00 183.00,89.00 183.00,89.00              183.00,89.00 183.00,181.00 183.00,181.00 Z"
     onclick="top.notify(evt)" />
  <path
     id="Selection #8"
     fill="none"
     stroke="black"
     stroke-width="1"
     d="M 6.00,250.00            C 11.90,245.78 20.09,236.88 25.71,231.44              25.71,231.44 62.00,196.00 62.00,196.00              66.00,192.00 78.75,178.16 83.00,176.60              84.94,175.88 87.91,176.00 90.00,176.00              90.00,176.00 179.00,176.00 179.00,176.00              179.00,176.00 179.00,87.00 179.00,87.00              179.00,87.00 179.60,80.00 179.60,80.00              179.60,80.00 198.00,61.00 198.00,61.00              198.00,61.00 233.00,26.00 233.00,26.00              233.00,26.00 253.00,5.00 253.00,5.00              248.38,5.00 235.61,4.38 232.00,5.93              227.48,7.88 219.74,16.26 216.00,20.00              216.00,20.00 185.00,51.00 185.00,51.00              180.90,55.10 166.18,68.71 164.60,73.00              163.88,74.94 164.00,77.91 164.00,80.00              164.00,80.00 164.00,152.00 164.00,152.00              164.00,154.19 164.21,157.84 162.98,159.69              160.62,163.23 147.27,162.00 143.00,162.00              143.00,162.00 81.00,162.00 81.00,162.00              78.91,162.00 75.94,161.88 74.00,162.60              69.71,164.18 56.10,178.90 52.00,183.00              52.00,183.00 18.00,217.00 18.00,217.00              11.36,223.64 6.07,226.23 6.00,236.00              6.00,236.00 6.00,250.00 6.00,250.00 Z"
     onclick="top.notify(evt)" />
  <path
     id="Selection #7"
     fill="none"
     stroke="black"
     stroke-width="1"
     d="M 144.00,142.00            C 144.00,142.00 74.00,142.00 74.00,142.00              71.59,142.00 68.33,141.86 66.09,142.72              61.80,144.37 53.09,154.14 49.58,157.72              49.58,157.72 19.00,188.00 19.00,188.00              11.28,195.72 6.02,197.78 6.00,209.00              6.00,209.00 6.00,223.00 6.00,223.00              6.00,223.00 25.00,205.00 25.00,205.00              25.00,205.00 56.00,174.00 56.00,174.00              56.00,174.00 74.00,157.60 74.00,157.60              74.00,157.60 81.00,157.00 81.00,157.00              81.00,157.00 159.00,157.00 159.00,157.00              159.00,157.00 159.00,79.00 159.00,79.00              159.00,79.00 159.60,72.17 159.60,72.17              159.60,72.17 176.00,55.00 176.00,55.00              176.00,55.00 207.00,24.00 207.00,24.00              207.00,24.00 225.00,5.00 225.00,5.00              220.87,5.00 207.22,4.55 204.17,5.70              200.63,7.03 196.58,12.28 193.56,15.00              193.56,15.00 164.00,44.00 164.00,44.00              160.01,47.99 146.16,60.75 144.60,65.00              143.88,66.94 144.00,69.91 144.00,72.00              144.00,72.00 144.00,142.00 144.00,142.00 Z"
     onclick="top.notify(evt)" />
  <path
     id="Selection #6"
     fill="none"
     stroke="black"
     stroke-width="1"
     d="M 73.00,32.00            C 73.48,38.13 76.22,39.33 81.00,42.85              87.64,47.72 97.46,53.89 105.00,57.13              108.95,58.83 115.61,60.26 117.83,64.13              118.92,66.04 119.73,76.10 120.05,79.00              120.05,79.00 122.99,110.00 122.99,110.00              123.16,117.47 123.57,120.84 115.00,121.00              115.00,121.00 80.00,118.07 80.00,118.07              77.31,117.83 66.98,117.04 65.22,115.98              62.27,114.20 60.35,107.32 58.74,104.00              53.99,94.15 51.71,89.97 45.29,81.00              41.82,76.15 39.95,72.75 34.00,71.00              32.67,78.21 37.17,81.31 41.12,87.00              46.16,94.28 47.85,98.04 51.28,106.00              52.67,109.22 55.51,114.54 54.54,118.00              53.71,120.94 48.04,127.46 45.87,130.00              36.97,140.39 31.30,145.80 21.00,154.71              17.42,157.81 8.13,164.06 6.60,168.04              5.88,169.89 6.00,172.98 6.00,175.00              6.00,175.00 6.00,195.00 6.00,195.00              6.00,195.00 49.00,153.00 49.00,153.00              49.00,153.00 65.00,138.60 65.00,138.60              65.00,138.60 72.00,138.00 72.00,138.00              72.00,138.00 140.00,138.00 140.00,138.00              140.00,138.00 140.00,71.00 140.00,71.00              140.00,71.00 140.60,64.00 140.60,64.00              140.60,64.00 155.00,48.00 155.00,48.00              155.00,48.00 197.00,5.00 197.00,5.00              197.00,5.00 176.00,5.00 176.00,5.00              174.21,5.01 171.75,4.94 170.09,5.60              166.61,6.98 159.61,16.70 156.71,20.00              149.04,28.75 140.91,37.06 132.00,44.56              129.52,46.65 122.82,52.20 120.00,53.05              116.57,54.07 111.25,51.34 108.00,49.99              101.75,47.39 94.64,43.73 89.00,40.00              82.78,35.88 80.69,32.45 73.00,32.00 Z"
     onclick="top.notify(evt)" />
  <path
     id="Selection #5"
     fill="none"
     stroke="black"
     stroke-width="1"
     d="M 62.00,5.00            C 61.95,22.30 56.15,40.90 41.00,50.76              34.33,55.10 26.73,57.66 19.00,59.34              16.18,59.95 8.69,60.59 6.99,62.73              5.53,64.57 5.96,72.43 6.00,75.00              6.15,83.10 9.65,83.67 14.97,89.04              20.32,94.45 25.93,101.51 29.94,108.00              31.28,110.17 33.86,114.48 33.95,117.00              34.07,120.31 31.07,123.72 28.91,125.96              22.43,132.68 9.51,138.92 7.57,140.95              4.94,143.72 6.00,156.79 6.00,161.00              15.97,155.74 32.86,138.65 40.91,130.00              44.12,126.55 50.66,119.96 50.10,115.00              49.42,109.04 40.55,93.24 36.97,88.00              34.87,84.93 30.14,79.36 29.47,76.00              28.51,71.17 33.16,63.95 39.95,68.86              46.11,73.31 56.77,90.75 60.40,98.00              60.40,98.00 66.84,111.15 66.84,111.15              68.92,113.13 78.78,113.72 82.00,114.00              82.00,114.00 102.00,116.00 102.00,116.00              102.00,116.00 118.00,116.00 118.00,116.00              118.00,99.79 117.58,94.08 115.42,78.00              114.92,74.20 115.38,67.66 112.47,64.99              112.47,64.99 100.00,59.24 100.00,59.24              93.35,55.92 85.04,50.62 79.00,46.26              75.93,44.04 69.86,39.69 68.84,36.00              67.48,31.05 73.50,25.90 80.00,29.11              80.00,29.11 89.00,35.33 89.00,35.33              94.38,38.96 110.88,48.17 117.00,48.57              122.03,48.89 127.38,43.47 131.00,40.41              138.92,33.73 158.88,13.89 163.00,5.00              158.71,5.00 145.79,3.93 142.90,6.57              139.80,9.42 135.27,21.59 126.99,28.54              124.94,30.25 121.76,32.83 119.00,32.86              116.29,32.89 110.36,29.42 108.00,27.91              97.64,21.26 85.82,8.38 83.00,6.60              78.98,4.06 67.13,5.00 62.00,5.00 Z            M 111.00,109.00            C 98.89,109.00 95.88,108.58 84.00,106.20              81.12,105.62 75.75,104.91 73.53,103.18              71.26,101.41 68.01,94.80 66.42,92.00              66.42,92.00 52.00,67.00 52.00,67.00              59.96,62.42 62.90,59.54 68.00,52.00              68.00,52.00 93.00,64.75 93.00,64.75              93.00,64.75 105.07,72.38 105.07,72.38              105.07,72.38 108.25,84.00 108.25,84.00              108.25,84.00 111.00,109.00 111.00,109.00 Z"
     onclick="top.notify(evt)" />
  <path
     id="Selection #4"
     fill="none"
     stroke="black"
     stroke-width="1"
     d="M 89.00,6.00            C 93.04,11.38 105.09,21.69 111.00,25.12              113.95,26.83 117.51,28.99 121.00,27.81              127.38,25.65 134.86,11.93 138.00,6.00              138.00,6.00 89.00,6.00 89.00,6.00 Z"
     onclick="top.notify(evt)" />
  <path
     id="Selection #3"
     fill="none"
     stroke="black"
     stroke-width="1"
     d="M 69.00,58.00            C 66.98,60.81 60.44,66.74 60.23,69.09              60.04,71.36 62.47,75.03 63.58,77.00              66.29,81.81 73.23,97.35 77.21,99.69              82.94,103.06 99.08,103.32 106.00,105.00              106.00,98.80 104.48,79.92 101.15,75.21              99.13,72.36 94.14,70.34 91.00,68.75              83.76,65.11 76.83,60.23 69.00,58.00 Z" />
  <path
     id="Selection #2"
     fill="none"
     stroke="black"
     stroke-width="1"
     d="M 7.00,88.00            C 7.00,88.00 7.00,136.00 7.00,136.00              12.96,133.13 28.04,124.82 29.23,118.00              29.78,114.83 26.95,110.57 25.30,108.00              20.46,100.46 14.31,93.23 7.00,88.00 Z"
     onclick="top.notify(evt)" />
  <path
     id="Selection #1"
     fill="none"
     stroke="black"
     stroke-width="1"
     d="M 49.00,5.00            C 48.76,16.07 45.17,28.96 36.83,36.67              29.36,43.57 15.97,47.19 6.00,48.00              6.00,48.00 6.00,57.00 6.00,57.00              18.71,56.42 37.00,51.51 45.82,41.96              54.30,32.78 57.73,17.25 58.00,5.00              58.00,5.00 49.00,5.00 49.00,5.00 Z"
     onclick="top.notify(evt)" />
  <path
     id="Selection"
     fill="none"
     stroke="black"
     stroke-width="1"
     d="M 6.00,5.00            C 6.00,5.00 6.00,44.00 6.00,44.00              14.68,42.85 25.84,40.77 32.83,35.21              41.72,28.14 44.13,15.74 45.00,5.00              45.00,5.00 6.00,5.00 6.00,5.00 Z"
     onclick="top.notify(evt)" />
</svg>
