<?xml version="1.0" encoding="UTF-8" standalone="no"?>
<svg
   xmlns:dc="http://purl.org/dc/elements/1.1/"
   xmlns:cc="http://creativecommons.org/ns#"
   xmlns:rdf="http://www.w3.org/1999/02/22-rdf-syntax-ns#"
   xmlns:svg="http://www.w3.org/2000/svg"
   xmlns="http://www.w3.org/2000/svg"
   xmlns:sodipodi="http://sodipodi.sourceforge.net/DTD/sodipodi-0.dtd"
   xmlns:inkscape="http://www.inkscape.org/namespaces/inkscape"
   width="2.41636in"
   height="2.39553in"
   viewBox="0 0 232 230"
   version="1.1"
   id="svg1011"
   sodipodi:docname="acacia21-01.svg"
   inkscape:version="0.92.4 (5da689c313, 2019-01-14)">
  <metadata
     id="metadata1017">
    <rdf:RDF>
      <cc:Work
         rdf:about="">
        <dc:format>image/svg+xml</dc:format>
        <dc:type
           rdf:resource="http://purl.org/dc/dcmitype/StillImage" />
      </cc:Work>
    </rdf:RDF>
  </metadata>
  <defs
     id="defs1015" />
  <sodipodi:namedview
     pagecolor="#ffffff"
     bordercolor="#666666"
     borderopacity="1"
     objecttolerance="10"
     gridtolerance="10"
     guidetolerance="10"
     inkscape:pageopacity="0"
     inkscape:pageshadow="2"
     inkscape:window-width="1366"
     inkscape:window-height="659"
     id="namedview1013"
     showgrid="false"
     inkscape:zoom="2.0567822"
     inkscape:cx="40.624839"
     inkscape:cy="114.98544"
     inkscape:window-x="0"
     inkscape:window-y="31"
     inkscape:window-maximized="1"
     inkscape:current-layer="svg1011" />
  <path
     id="Selection #22"
     fill="none"
     stroke="black"
     stroke-width="1"
     d="M 3.00,3.00            C 3.00,3.00 3.00,227.00 3.00,227.00              3.00,227.00 229.00,227.00 229.00,227.00              229.00,227.00 229.00,3.00 229.00,3.00              229.00,3.00 3.00,3.00 3.00,3.00 Z            M 54.00,7.00            C 54.00,7.00 45.00,17.83 45.00,17.83              45.00,17.83 38.55,25.01 38.55,25.01              38.55,25.01 44.00,44.00 44.00,44.00              44.00,44.00 26.00,38.21 26.00,38.21              26.00,38.21 19.00,43.01 19.00,43.01              19.00,43.01 7.00,54.00 7.00,54.00              7.00,54.00 7.00,7.00 7.00,7.00              7.00,7.00 54.00,7.00 54.00,7.00 Z            M 103.00,7.00            C 103.00,7.00 109.61,27.00 109.61,27.00              109.61,27.00 105.60,39.00 105.60,39.00              105.60,39.00 96.00,64.00 96.00,64.00              89.69,62.86 75.66,56.82 69.00,54.20              65.57,52.86 60.31,51.53 58.07,48.61              56.14,46.09 50.13,30.92 50.50,28.00              50.93,24.57 54.66,21.35 57.00,19.00              64.32,11.65 67.26,7.02 78.00,7.00              78.00,7.00 103.00,7.00 103.00,7.00 Z            M 136.00,64.00            C 136.00,64.00 122.42,28.00 122.42,28.00              121.92,24.52 126.95,10.03 129.70,7.99              131.38,6.74 134.94,7.00 137.00,7.00              141.23,6.99 158.16,6.55 161.00,7.60              164.76,8.98 173.82,18.69 176.98,22.00              178.88,23.99 181.14,26.09 181.36,29.00              181.54,31.44 178.80,37.49 177.80,40.00              176.80,42.49 175.09,47.52 173.30,49.30              171.29,51.32 161.19,54.95 158.00,56.19              152.39,58.36 141.27,63.05 136.00,64.00 Z            M 225.00,54.00            C 225.00,54.00 206.00,38.34 206.00,38.34              206.00,38.34 187.00,44.00 187.00,44.00              187.00,44.00 193.40,25.42 193.40,25.42              193.40,25.42 178.00,7.00 178.00,7.00              178.00,7.00 217.00,7.00 217.00,7.00              217.00,7.00 223.98,8.60 223.98,8.60              223.98,8.60 225.00,21.00 225.00,21.00              225.00,21.00 225.00,54.00 225.00,54.00 Z            M 117.00,43.00            C 117.00,43.00 128.00,69.00 128.00,69.00              128.00,69.00 120.00,72.52 120.00,72.52              115.07,74.23 106.04,72.48 106.15,65.96              106.22,61.93 113.05,47.61 115.00,43.00              115.00,43.00 117.00,43.00 117.00,43.00 Z            M 28.00,49.97            C 32.32,50.22 47.59,56.03 50.30,59.27              52.16,61.50 57.10,75.24 58.60,79.00              59.86,82.15 64.55,91.62 62.89,94.50              61.73,96.50 56.21,98.33 54.00,99.19              54.00,99.19 28.00,108.75 28.00,108.75              24.74,109.06 21.97,107.95 19.00,106.80              16.42,105.80 9.47,103.42 7.99,101.35              6.83,99.73 7.01,96.93 7.00,95.00              7.00,95.00 7.00,76.00 7.00,76.00              7.06,66.48 11.51,64.49 18.00,58.00              21.37,54.63 23.50,51.75 28.00,49.97 Z            M 167.00,95.00            C 167.00,95.00 176.80,70.00 176.80,70.00              178.07,66.82 180.13,60.69 182.41,58.42              184.70,56.14 194.47,52.77 198.00,51.40              199.74,50.73 202.11,49.66 204.00,49.97              206.88,50.46 209.98,53.99 212.00,56.00              218.76,62.72 224.93,66.07 225.00,76.00              225.00,76.00 225.00,94.00 225.00,94.00              224.98,102.70 225.08,102.33 212.00,107.05              202.38,110.52 200.08,107.77 191.00,104.20              191.00,104.20 167.00,95.00 167.00,95.00 Z            M 74.00,91.00            C 74.00,91.00 64.00,64.00 64.00,64.00              70.64,65.04 76.76,68.18 83.00,70.58              85.06,71.36 88.78,72.39 89.88,74.42              90.93,76.37 89.76,79.12 88.98,81.00              86.16,87.76 80.65,89.20 74.00,91.00 Z            M 168.00,64.00            C 168.00,64.00 158.00,91.00 158.00,91.00              151.35,89.20 145.84,87.76 143.02,81.00              142.24,79.12 141.07,76.37 142.12,74.42              143.22,72.39 146.94,71.36 149.00,70.58              155.24,68.18 161.36,65.04 168.00,64.00 Z            M 131.00,78.00            C 131.00,78.00 138.27,93.59 138.27,93.59              138.27,93.59 153.00,100.00 153.00,100.00              151.91,106.97 148.40,111.98 148.73,116.00              149.04,119.67 153.56,126.49 151.88,129.50              150.28,132.36 142.70,133.43 139.21,135.99              135.42,138.78 132.80,147.51 131.00,152.00              131.00,152.00 116.00,147.75 116.00,147.75              111.83,147.75 105.61,152.23 102.27,151.22              98.31,150.02 97.90,141.25 94.35,137.41              91.14,133.93 82.94,132.73 80.54,130.19              78.94,128.32 79.74,126.11 80.54,124.00              81.76,120.06 83.78,117.35 82.81,113.00              82.14,110.04 78.71,104.10 79.68,101.41              80.87,98.09 89.27,97.08 92.79,94.30              96.38,91.47 99.22,82.45 101.00,78.00              101.00,78.00 116.00,82.58 116.00,82.58              116.00,82.58 131.00,78.00 131.00,78.00 Z            M 70.00,104.00            C 70.00,104.00 73.69,116.00 73.69,116.00              73.69,116.00 70.00,127.00 70.00,127.00              64.08,125.40 57.70,122.30 52.00,119.85              48.20,118.22 45.32,117.61 43.00,114.00              43.00,114.00 70.00,104.00 70.00,104.00 Z            M 189.00,115.00            C 184.42,118.62 167.92,125.40 162.00,127.00              162.00,127.00 158.01,116.00 158.01,116.00              158.01,116.00 162.00,104.00 162.00,104.00              168.94,105.09 182.70,111.43 189.00,115.00 Z            M 7.00,128.00            C 12.66,126.47 22.95,120.94 28.00,121.61              31.19,122.03 41.41,126.36 45.00,127.80              48.11,129.04 61.63,133.67 62.96,135.70              64.85,138.55 58.95,150.64 57.60,154.00              55.93,158.17 51.86,170.63 48.73,172.92              46.40,174.61 30.45,180.74 28.00,180.19              25.04,179.53 21.17,175.16 19.00,173.00              11.45,165.47 7.02,163.95 7.00,153.00              7.00,153.00 7.00,128.00 7.00,128.00 Z            M 204.00,121.48            C 207.99,121.55 221.83,126.06 223.98,129.39              225.13,131.18 224.99,133.94 225.00,136.00              225.03,140.91 225.75,157.46 223.98,161.00              222.54,163.88 216.53,169.47 214.00,172.00              211.69,174.31 207.10,179.50 204.00,180.19              201.36,180.79 196.58,178.41 194.00,177.42              191.03,176.29 184.66,174.31 182.50,172.30              179.91,169.91 174.66,155.17 173.00,151.00              171.90,148.24 167.78,138.90 168.68,136.41              169.52,134.07 174.78,132.48 177.00,131.60              177.00,131.60 204.00,121.48 204.00,121.48 Z            M 91.00,157.00            C 91.00,157.00 64.00,167.00 64.00,167.00              64.00,167.00 74.00,140.00 74.00,140.00              85.67,141.83 89.17,145.33 91.00,157.00 Z            M 158.00,140.00            C 158.00,140.00 168.00,167.00 168.00,167.00              168.00,167.00 141.00,157.00 141.00,157.00              142.79,145.59 146.59,141.79 158.00,140.00 Z            M 128.00,161.00            C 128.00,161.00 117.00,188.00 117.00,188.00              113.70,185.79 112.95,182.57 111.42,179.00              107.85,170.65 106.09,169.41 106.00,160.00              106.00,160.00 116.00,156.91 116.00,156.91              116.00,156.91 128.00,161.00 128.00,161.00 Z            M 95.00,166.00            C 95.00,166.00 105.00,190.00 105.00,190.00              106.36,193.41 109.68,200.63 109.61,204.00              109.55,206.78 104.39,220.46 102.30,222.01              100.73,223.17 97.89,222.99 96.00,223.00              90.87,223.03 72.60,223.78 69.00,221.98              66.13,220.54 60.52,214.52 58.00,212.00              55.81,209.80 51.51,205.95 50.70,203.00              49.84,199.86 53.14,193.19 54.32,190.00              55.25,187.47 56.77,182.59 58.70,180.81              60.25,179.37 67.61,176.76 70.00,175.80              70.00,175.80 95.00,166.00 95.00,166.00 Z            M 136.00,166.00            C 136.00,166.00 160.00,175.05 160.00,175.05              163.42,176.33 171.03,178.91 173.35,181.41              175.16,183.37 176.58,187.46 177.60,190.00              178.86,193.15 182.17,199.82 181.30,203.00              180.49,205.95 176.19,209.80 174.00,212.00              171.48,214.52 165.87,220.54 163.00,221.98              160.30,223.33 156.03,223.00 153.00,223.00              153.00,223.00 135.00,223.00 135.00,223.00              133.27,222.97 131.12,223.06 129.65,222.01              127.36,220.37 122.70,207.99 122.42,205.00              122.05,201.10 124.55,195.65 126.00,192.00              126.00,192.00 136.00,166.00 136.00,166.00 Z            M 8.00,177.00            C 8.00,177.00 26.00,192.03 26.00,192.03              26.00,192.03 44.00,186.00 44.00,186.00              44.00,186.00 38.63,205.00 38.63,205.00              38.63,205.00 54.00,223.00 54.00,223.00              54.00,223.00 7.00,223.00 7.00,223.00              7.00,223.00 7.00,193.00 7.00,193.00              7.00,193.00 8.00,177.00 8.00,177.00 Z            M 225.00,177.00            C 225.00,177.00 225.00,223.00 225.00,223.00              225.00,223.00 178.00,223.00 178.00,223.00              178.00,223.00 188.99,211.00 188.99,211.00              188.99,211.00 193.67,204.58 193.67,204.58              193.67,204.58 188.00,186.00 188.00,186.00              191.69,187.47 203.75,192.93 207.00,191.77              211.52,190.16 217.49,180.55 225.00,177.00 Z"
     onclick="top.notify(evt)" />
  <path
     id="Selection #21"
     fill="none"
     stroke="black"
     stroke-width="1"
     d="M 221.00,183.00            C 218.43,185.57 209.65,195.36 206.58,195.67              206.58,195.67 192.00,191.00 192.00,191.00              192.00,191.00 196.45,206.00 196.45,206.00              196.45,206.00 185.00,220.00 185.00,220.00              185.00,220.00 222.00,220.00 222.00,220.00              222.00,220.00 222.00,196.00 222.00,196.00              222.00,196.00 221.00,183.00 221.00,183.00 Z"
     onclick="top.notify(evt)" />
  <path
     id="Selection #20"
     fill="none"
     stroke="black"
     stroke-width="1"
     d="M 171.00,137.00            C 172.42,143.04 176.01,151.02 178.40,157.00              179.68,160.19 182.37,168.12 184.65,170.21              186.31,171.75 190.77,173.31 193.00,174.20              195.49,175.20 200.45,177.57 203.00,177.08              205.88,176.52 208.96,173.02 211.00,171.00              216.63,165.41 221.84,162.33 222.00,154.00              222.00,154.00 222.00,137.00 222.00,137.00              221.99,135.11 222.17,132.27 221.01,130.70              219.07,128.08 207.28,124.08 204.00,124.47              204.00,124.47 171.00,137.00 171.00,137.00 Z"
     onclick="top.notify(evt)" />
  <path
     id="Selection #19"
     fill="none"
     stroke="black"
     stroke-width="1"
     d="M 138.00,170.00            C 138.00,170.00 125.62,201.00 125.62,201.00              124.69,205.04 128.06,216.61 131.50,218.98              133.32,220.23 136.83,220.00 139.00,220.00              142.97,220.01 158.27,220.41 161.00,219.40              164.57,218.09 177.39,205.59 178.19,202.00              178.78,199.37 176.41,194.53 175.40,192.00              174.46,189.65 172.90,185.20 171.30,183.42              169.14,181.00 161.34,178.54 158.00,177.20              152.37,174.95 143.67,171.33 138.00,170.00 Z"
     onclick="top.notify(evt)" />
  <path
     id="Selection #18"
     fill="none"
     stroke="black"
     stroke-width="1"
     d="M 184.00,10.00            C 184.00,10.00 196.37,25.00 196.37,25.00              196.37,25.00 192.00,40.00 192.00,40.00              192.00,40.00 206.00,35.21 206.00,35.21              206.00,35.21 222.00,48.00 222.00,48.00              222.00,48.00 222.00,10.00 222.00,10.00              222.00,10.00 184.00,10.00 184.00,10.00 Z" />
  <path
     id="Selection #17"
     fill="none"
     stroke="black"
     stroke-width="1"
     d="M 171.00,94.00            C 171.00,94.00 195.00,102.95 195.00,102.95              197.43,103.86 202.66,106.04 205.00,106.10              208.34,106.18 220.00,101.80 221.40,98.73              222.35,96.65 222.00,85.96 222.00,83.00              222.00,79.53 222.45,72.95 220.98,70.00              219.64,67.32 215.24,63.24 213.00,61.00              210.63,58.63 206.36,53.59 203.00,53.20              200.84,52.96 195.21,55.33 193.00,56.20              190.47,57.20 186.38,58.61 184.50,60.50              182.28,62.71 179.51,70.74 178.20,74.00              175.82,79.95 172.10,87.91 171.00,94.00 Z"
     onclick="top.notify(evt)" />
  <path
     id="Selection #16"
     fill="none"
     stroke="black"
     stroke-width="1"
     d="M 164.00,107.00            C 160.10,114.54 159.84,115.61 164.00,123.00              164.00,123.00 183.00,115.00 183.00,115.00              183.00,115.00 164.00,107.00 164.00,107.00 Z"
     onclick="top.notify(evt)" />
  <path
     id="Selection #15"
     fill="none"
     stroke="black"
     stroke-width="1"
     d="M 144.00,155.00            C 144.00,155.00 163.00,162.00 163.00,162.00              163.00,162.00 156.00,143.00 156.00,143.00              147.65,145.90 146.39,146.14 144.00,155.00 Z"
     onclick="top.notify(evt)" />
  <path
     id="Selection #14"
     fill="none"
     stroke="black"
     stroke-width="1"
     d="M 108.00,162.00            C 108.92,167.11 112.72,178.13 117.00,181.00              117.00,181.00 124.00,163.00 124.00,163.00              115.66,158.39 116.40,159.66 108.00,162.00 Z"
     onclick="top.notify(evt)" />
  <path
     id="Selection #13"
     fill="none"
     stroke="black"
     stroke-width="1"
     d="M 94.00,170.00            C 87.07,171.58 80.61,174.63 74.00,177.19              70.80,178.43 63.74,180.65 61.39,182.70              59.06,184.72 57.93,188.19 56.80,191.00              55.68,193.78 53.08,199.13 53.78,202.00              54.51,204.99 58.81,208.80 61.00,211.00              63.24,213.24 67.32,217.64 70.00,218.98              73.02,220.49 80.40,220.00 84.00,220.00              86.87,220.00 97.64,220.36 99.61,219.43              102.56,218.04 106.55,207.23 106.61,204.00              106.67,200.79 104.05,195.13 102.80,192.00              102.80,192.00 94.00,170.00 94.00,170.00 Z"
     onclick="top.notify(evt)" />
  <path
     id="Selection #12"
     fill="none"
     stroke="black"
     stroke-width="1"
     d="M 184.00,10.00            C 184.00,10.00 196.37,25.00 196.37,25.00              196.37,25.00 192.00,40.00 192.00,40.00              192.00,40.00 206.00,35.21 206.00,35.21              206.00,35.21 222.00,48.00 222.00,48.00              222.00,48.00 222.00,10.00 222.00,10.00              222.00,10.00 184.00,10.00 184.00,10.00 Z"
     onclick="top.notify(evt)" />
  <path
     id="Selection #11"
     fill="none"
     stroke="black"
     stroke-width="1"
     d="M 162.00,68.00            C 162.00,68.00 144.00,75.00 144.00,75.00              146.27,83.40 147.47,85.05 156.00,87.00              158.10,82.48 163.18,72.67 162.00,68.00 Z" />
  <path
     id="Selection #10"
     fill="none"
     stroke="black"
     stroke-width="1"
     d="M 162.00,68.00            C 162.00,68.00 144.00,75.00 144.00,75.00              146.27,83.40 147.47,85.05 156.00,87.00              158.10,82.48 163.18,72.67 162.00,68.00 Z"
     onclick="top.notify(evt)" />
  <path
     id="Selection #9"
     fill="none"
     stroke="black"
     stroke-width="1"
     d="M 76.00,143.00            C 76.00,143.00 69.00,162.00 69.00,162.00              69.00,162.00 88.00,155.00 88.00,155.00              88.00,155.00 84.19,146.81 84.19,146.81              84.19,146.81 76.00,143.00 76.00,143.00 Z"
     onclick="top.notify(evt)" />
  <path
     id="Selection #8"
     fill="none"
     stroke="black"
     stroke-width="1"
     d="M 10.00,183.00            C 10.00,183.00 10.00,220.00 10.00,220.00              10.00,220.00 47.00,220.00 47.00,220.00              47.00,220.00 35.21,205.00 35.21,205.00              35.21,205.00 40.00,191.00 40.00,191.00              40.00,191.00 25.28,195.64 25.28,195.64              25.28,195.64 10.00,183.00 10.00,183.00 Z"
     onclick="top.notify(evt)" />
  <path
     id="Selection #7"
     fill="none"
     stroke="black"
     stroke-width="1"
     d="M 138.00,61.00            C 138.00,61.00 161.00,52.00 161.00,52.00              163.55,50.98 169.51,49.07 171.21,47.30              173.42,45.01 178.95,30.99 178.22,28.00              177.53,25.18 174.02,22.04 172.00,20.00              165.74,13.70 164.18,10.06 155.00,10.00              155.00,10.00 139.00,10.00 139.00,10.00              136.90,10.00 133.39,9.75 131.65,10.99              129.15,12.78 125.19,23.87 125.29,27.00              125.38,30.22 127.94,35.85 129.20,39.00              129.20,39.00 138.00,61.00 138.00,61.00 Z" />
  <path
     id="Selection #6"
     fill="none"
     stroke="black"
     stroke-width="1"
     d="M 115.00,49.00            C 115.00,49.00 108.00,68.00 108.00,68.00              116.05,71.38 115.86,71.23 124.00,68.00              122.64,62.23 119.17,53.18 115.00,49.00 Z"
     onclick="top.notify(evt)" />
  <path
     id="Selection #5"
     fill="none"
     stroke="black"
     stroke-width="1"
     d="M 69.00,68.00            C 69.00,68.00 76.00,87.00 76.00,87.00              84.36,85.03 85.79,83.19 88.00,75.00              88.00,75.00 69.00,68.00 69.00,68.00 Z"
     onclick="top.notify(evt)" />
  <path
     id="Selection #4"
     fill="none"
     stroke="black"
     stroke-width="1"
     d="M 49.00,115.00            C 51.90,116.91 54.83,118.05 58.00,119.42              63.36,121.75 69.98,125.43 70.45,116.00              70.80,114.63 70.57,113.31 70.45,112.00              69.69,110.22 68.83,108.64 68.00,107.00              68.00,107.00 49.00,115.00 49.00,115.00 Z"
     onclick="top.notify(evt)" />
  <path
     id="Selection #3"
     fill="none"
     stroke="black"
     stroke-width="1"
     d="M 61.00,137.00            C 61.00,137.00 39.00,128.40 39.00,128.40              35.99,127.21 29.99,124.45 27.00,124.39              23.80,124.33 11.96,128.54 10.57,131.41              9.65,133.33 10.00,144.18 10.00,147.00              10.00,150.47 9.55,157.05 11.02,160.00              12.36,162.68 16.76,166.76 19.00,169.00              21.32,171.32 25.80,176.48 29.00,177.03              31.25,177.41 36.72,175.07 39.00,174.19              41.20,173.34 45.71,171.72 47.35,170.21              49.74,168.02 51.85,161.20 53.05,158.00              53.05,158.00 61.00,137.00 61.00,137.00 Z"
     onclick="top.notify(evt)" />
  <path
     id="Selection #2"
     fill="none"
     stroke="black"
     stroke-width="1"
     d="M 94.00,61.00            C 94.00,61.00 102.60,39.00 102.60,39.00              103.79,36.02 106.55,29.96 106.61,27.00              106.67,24.11 102.64,12.63 100.35,10.99              98.61,9.75 95.10,10.00 93.00,10.00              93.00,10.00 76.00,10.00 76.00,10.00              67.91,10.15 65.44,14.52 60.00,20.00              57.97,22.05 54.48,25.17 53.78,28.00              53.00,31.16 58.37,44.98 60.70,47.30              62.79,49.40 69.05,51.30 72.00,52.42              72.00,52.42 94.00,61.00 94.00,61.00 Z"
     onclick="top.notify(evt)" />
  <path
     id="Selection #1"
     fill="none"
     stroke="black"
     stroke-width="1"
     d="M 61.00,93.00            C 61.00,93.00 53.00,72.00 53.00,72.00              51.99,69.47 49.67,63.13 48.19,61.27              46.02,58.56 42.15,57.48 39.00,56.32              36.72,55.47 31.13,52.97 29.00,53.21              25.55,53.59 20.49,59.51 18.00,62.00              15.92,64.08 12.29,67.46 11.02,70.00              9.39,73.27 10.00,83.87 10.00,88.00              10.00,90.75 9.55,97.37 11.02,99.50              12.55,101.72 23.22,105.84 26.00,106.07              29.45,106.35 36.45,102.99 40.00,101.68              40.00,101.68 61.00,93.00 61.00,93.00 Z"
     onclick="top.notify(evt)" />
  <path
     id="Selection"
     fill="none"
     stroke="black"
     stroke-width="1"
     d="M 10.00,10.00            C 10.00,10.00 10.00,47.00 10.00,47.00              10.00,47.00 26.00,35.36 26.00,35.36              26.00,35.36 39.00,39.00 39.00,39.00              39.00,39.00 35.38,26.00 35.38,26.00              35.38,26.00 48.00,10.00 48.00,10.00              48.00,10.00 10.00,10.00 10.00,10.00 Z"
     onclick="top.notify(evt)" />
</svg>
