<?xml version="1.0" encoding="UTF-8" standalone="no"?>
<svg
   xmlns:dc="http://purl.org/dc/elements/1.1/"
   xmlns:cc="http://creativecommons.org/ns#"
   xmlns:rdf="http://www.w3.org/1999/02/22-rdf-syntax-ns#"
   xmlns:svg="http://www.w3.org/2000/svg"
   xmlns="http://www.w3.org/2000/svg"
   xmlns:sodipodi="http://sodipodi.sourceforge.net/DTD/sodipodi-0.dtd"
   xmlns:inkscape="http://www.inkscape.org/namespaces/inkscape"
   width="4.43695in"
   height="4.35362in"
   viewBox="0 0 426 418"
   version="1.1"
   id="svg581"
   sodipodi:docname="acacia2-01.svg"
   inkscape:version="0.92.4 (5da689c313, 2019-01-14)">
  <metadata
     id="metadata587">
    <rdf:RDF>
      <cc:Work
         rdf:about="">
        <dc:format>image/svg+xml</dc:format>
        <dc:type
           rdf:resource="http://purl.org/dc/dcmitype/StillImage" />
      </cc:Work>
    </rdf:RDF>
  </metadata>
  <defs
     id="defs585" />
  <sodipodi:namedview
     pagecolor="#ffffff"
     bordercolor="#666666"
     borderopacity="1"
     objecttolerance="10"
     gridtolerance="10"
     guidetolerance="10"
     inkscape:pageopacity="0"
     inkscape:pageshadow="2"
     inkscape:window-width="1366"
     inkscape:window-height="659"
     id="namedview583"
     showgrid="false"
     inkscape:zoom="1.131721"
     inkscape:cx="185.1399"
     inkscape:cy="208.97376"
     inkscape:window-x="0"
     inkscape:window-y="31"
     inkscape:window-maximized="1"
     inkscape:current-layer="svg581" />
  <path
     id="Selection #7"
     fill="none"
     stroke="black"
     stroke-width="1"
     d="M 421.00,189.00            C 407.62,200.23 402.35,219.97 402.02,237.00              402.02,237.00 403.40,254.98 403.40,254.98              402.49,261.70 390.39,262.00 388.25,268.09              386.38,273.39 397.63,281.37 399.04,284.72              400.12,287.28 397.64,289.17 395.96,290.73              393.12,293.36 386.85,297.76 386.94,302.00              387.00,304.74 390.50,308.79 392.12,311.00              395.18,315.19 398.28,320.31 400.52,325.00              407.87,340.45 410.01,359.18 407.00,376.00              401.56,372.73 394.69,368.94 390.00,364.82              372.50,349.44 365.06,331.65 362.00,309.20              357.76,309.76 344.66,312.46 341.60,309.20              337.49,305.30 343.06,287.74 333.96,288.35              333.96,288.35 330.00,289.16 330.00,289.16              330.00,289.16 325.00,290.70 325.00,290.70              322.19,291.71 320.59,292.57 318.00,294.00              308.82,273.44 287.31,260.20 265.00,260.00              265.01,278.27 273.18,294.91 288.00,305.84              291.89,308.72 294.35,310.52 299.00,312.00              297.52,315.50 291.71,328.05 294.03,331.27              298.95,338.08 316.68,327.51 316.12,342.00              316.12,342.00 315.00,356.00 315.00,356.00              343.86,359.83 369.89,373.04 382.00,401.00              382.00,401.00 366.00,401.92 366.00,401.92              358.44,401.92 343.03,398.98 336.00,396.14              328.43,393.07 323.78,390.60 317.00,385.97              314.63,384.36 309.77,380.14 307.00,380.30              302.02,380.59 295.45,391.56 291.91,392.51              286.63,393.93 280.04,381.10 274.09,381.30              269.01,381.46 266.02,392.70 262.61,395.40              259.88,397.56 251.91,396.01 248.00,396.00              248.00,396.00 237.00,396.00 237.00,396.00              223.01,396.17 200.06,401.97 193.00,415.00              193.00,415.00 422.00,415.00 422.00,415.00              422.00,415.00 422.00,257.00 422.00,257.00              422.00,257.00 422.00,211.00 422.00,211.00              422.00,211.00 421.00,189.00 421.00,189.00 Z"
     onclick="top.notify(evt)" />
  <path
     id="Selection #6"
     fill="none"
     stroke="black"
     stroke-width="1"
     d="M 227.00,223.00            C 226.77,233.49 221.70,251.58 218.71,262.00              206.49,304.51 186.53,338.62 154.00,368.91              143.76,378.45 127.98,389.75 116.00,397.19              108.82,401.65 98.85,406.65 96.00,415.00              96.00,415.00 180.00,415.00 180.00,415.00              191.53,414.98 187.18,412.70 196.00,405.33              199.50,402.40 203.89,400.22 208.00,398.26              224.01,390.64 242.86,389.93 260.00,393.00              262.75,388.18 268.96,374.29 276.00,376.87              280.20,378.42 287.37,386.85 291.00,386.81              296.02,386.75 302.26,374.60 308.00,375.49              310.10,375.82 314.12,379.23 316.00,380.57              319.72,383.24 325.91,387.18 330.00,389.11              347.36,397.32 356.57,397.00 375.00,397.00              366.05,373.61 332.47,360.51 309.00,360.00              309.00,360.00 312.00,338.00 312.00,338.00              306.18,338.00 290.73,339.24 288.89,331.96              288.01,328.49 292.05,318.15 293.00,314.00              270.74,299.02 260.00,282.02 260.00,255.00              275.35,255.70 290.92,259.26 303.00,269.32              303.00,269.32 319.30,286.22 319.30,286.22              323.28,288.59 332.04,283.06 336.98,283.61              345.06,284.51 344.00,301.15 344.00,307.00              344.00,307.00 366.00,304.00 366.00,304.00              367.17,329.43 379.68,358.14 404.00,369.00              404.00,352.79 403.62,341.13 396.51,326.00              394.38,321.46 389.55,314.10 386.52,310.00              384.98,307.91 382.01,304.65 381.94,302.00              381.83,297.55 391.51,289.50 395.00,287.00              392.12,280.91 383.02,274.06 382.94,269.01              382.83,262.03 397.49,258.74 398.67,253.79              398.67,253.79 398.00,236.00 398.00,236.00              398.03,219.50 405.15,191.60 422.00,185.00              422.00,185.00 422.00,94.00 422.00,94.00              413.39,96.53 406.84,108.74 402.00,116.00              389.42,134.87 382.20,143.88 366.00,160.00              340.14,185.74 306.54,202.40 272.00,213.02              259.56,216.85 239.78,221.96 227.00,223.00 Z"
     onclick="top.notify(evt)" />
  <path
     id="Selection #5"
     fill="none"
     stroke="black"
     stroke-width="1"
     d="M 202.00,198.00            C 202.00,198.00 199.58,216.00 199.58,216.00              197.49,229.42 194.20,243.00 190.28,256.00              181.11,286.46 164.12,315.46 142.83,339.00              128.04,355.35 108.93,370.13 90.00,381.40              86.42,383.53 71.59,390.94 70.02,393.39              68.78,395.34 69.00,398.73 69.00,401.00              69.00,401.00 69.00,415.00 69.00,415.00              72.46,415.00 87.44,415.43 89.61,414.43              91.45,413.58 94.90,408.19 97.04,406.09              101.26,401.95 108.87,397.00 114.00,393.81              159.56,365.51 187.86,333.04 207.19,283.00              212.19,270.06 216.25,256.52 219.35,243.00              220.24,239.13 222.57,224.37 223.98,222.14              226.69,217.88 238.02,217.00 243.00,216.00              260.16,212.57 275.58,207.97 292.00,201.95              326.44,189.32 357.03,166.95 380.56,139.00              389.02,128.95 396.05,117.90 403.33,107.00              408.22,99.69 413.27,91.78 422.00,89.00              422.00,89.00 422.00,68.00 422.00,68.00              422.00,68.00 407.00,68.00 407.00,68.00              404.73,68.00 401.34,67.78 399.39,69.02              397.29,70.36 395.87,73.82 394.74,76.00              394.74,76.00 387.19,89.00 387.19,89.00              377.29,105.13 360.15,126.31 346.00,138.71              321.19,160.47 294.56,176.16 263.00,185.98              240.82,192.87 224.64,195.01 202.00,198.00 Z"
     onclick="top.notify(evt)" />
  <path
     id="Selection #4"
     fill="none"
     stroke="black"
     stroke-width="1"
     d="M 226.00,120.00            C 233.80,115.81 237.44,110.75 238.70,102.00              239.24,98.27 238.26,92.13 240.60,89.43              242.74,86.95 247.01,86.80 250.00,85.75              255.20,83.94 258.65,80.93 261.00,76.11              252.47,76.39 244.51,78.73 236.00,76.11              227.86,73.81 215.82,64.06 207.00,59.31              183.98,46.91 161.68,46.25 141.01,63.62              136.20,67.66 130.86,74.39 127.98,80.00              124.01,87.72 121.97,96.39 121.15,105.00              121.01,109.14 122.86,113.83 121.15,116.69              119.15,119.45 114.90,118.99 112.00,119.00              101.77,119.02 95.68,119.50 86.00,123.45              66.13,131.57 51.76,151.41 52.00,173.00              52.16,186.32 59.87,202.04 67.08,213.00              70.49,218.20 75.23,223.28 77.76,229.00              81.86,239.80 78.49,246.28 77.76,257.00              82.22,254.26 85.29,251.71 87.44,247.00              89.38,242.77 88.63,238.29 92.23,235.61              94.53,233.90 103.49,234.30 107.00,233.82              115.09,232.71 119.55,228.02 123.00,221.00              114.69,221.00 108.47,221.04 101.00,216.52              83.43,205.91 82.79,181.32 96.17,167.04              103.65,159.06 115.22,155.30 126.00,155.75              152.32,156.83 169.70,179.75 170.00,205.00              170.00,205.00 170.00,215.00 170.00,215.00              169.92,265.14 130.98,316.44 92.00,344.42              81.07,352.27 69.40,359.27 57.00,364.57              53.81,365.94 42.56,369.32 41.02,371.51              39.77,373.29 40.00,376.86 40.00,379.00              40.00,379.00 40.00,415.00 40.00,415.00              40.00,415.00 65.00,415.00 65.00,415.00              65.00,415.00 65.00,399.00 65.00,399.00              65.00,396.62 64.80,393.29 66.02,391.21              67.55,388.62 71.40,387.09 74.00,385.74              74.00,385.74 91.00,376.19 91.00,376.19              113.73,362.29 136.10,343.37 152.11,322.00              170.69,297.18 181.99,271.83 189.85,242.00              189.85,242.00 195.85,211.00 195.85,211.00              196.25,207.63 196.71,198.64 198.60,196.28              201.56,192.56 215.89,191.84 221.00,191.13              238.88,188.64 255.99,183.92 273.00,178.00              302.28,167.81 337.46,145.49 357.57,122.00              368.84,108.85 379.23,94.96 387.99,80.00              389.95,76.64 394.83,65.65 397.39,64.02              399.34,62.78 402.73,63.00 405.00,63.00              405.00,63.00 422.00,63.00 422.00,63.00              422.00,63.00 422.00,39.00 422.00,39.00              422.00,39.00 385.00,39.00 385.00,39.00              382.86,39.00 379.29,38.77 377.51,40.02              375.60,41.36 371.32,53.93 370.00,57.00              365.26,68.05 357.32,80.38 350.11,90.00              318.69,131.88 267.20,167.63 213.00,167.00              193.11,166.76 173.49,159.52 163.78,141.00              160.57,134.87 159.08,129.94 159.00,123.00              158.87,111.65 161.70,102.31 170.09,94.17              183.62,81.06 207.94,81.05 219.36,97.00              223.85,103.26 225.65,112.42 226.00,120.00 Z"
     onclick="top.notify(evt)" />
  <path
     id="Selection #3"
     fill="none"
     stroke="black"
     stroke-width="1"
     d="M 4.00,233.00            C 4.00,233.00 4.00,323.00 4.00,323.00              13.17,319.02 17.65,314.77 20.56,305.00              21.66,301.31 21.89,294.68 23.74,292.23              26.33,288.79 31.19,288.80 35.00,287.53              39.02,286.20 40.82,284.66 44.00,282.00              44.00,282.00 32.90,269.00 32.90,269.00              24.98,258.59 19.08,246.15 18.00,233.00              18.00,233.00 4.00,233.00 4.00,233.00 Z"
     onclick="top.notify(evt)" />
  <path
     id="Selection #2"
     fill="none"
     stroke="black"
     stroke-width="1"
     d="M 238.00,3.00            C 238.00,3.00 238.00,17.00 238.00,17.00              256.86,17.88 272.84,29.44 286.00,42.00              289.31,39.49 290.91,37.99 292.44,34.00              293.92,30.15 293.74,25.33 297.23,22.59              299.88,20.51 306.50,20.17 310.00,19.32              318.25,17.33 325.91,11.45 328.00,3.00              328.00,3.00 238.00,3.00 238.00,3.00 Z"
     onclick="top.notify(evt)" />
  <path
     id="Selection #1"
     fill="none"
     stroke="black"
     stroke-width="1"
     d="M 66.00,43.00            C 64.88,39.08 63.57,36.13 60.79,33.04              43.03,13.28 14.45,41.03 34.09,58.67              37.17,61.43 40.09,62.86 44.00,64.00              41.70,69.88 37.22,74.42 32.00,77.90              29.77,79.38 24.26,81.81 22.99,83.63              21.76,85.40 22.05,88.79 21.68,91.00              20.96,95.22 19.07,99.61 16.47,103.00              11.13,109.97 6.77,110.63 5.02,113.39              3.78,115.35 4.00,118.71 4.00,121.00              4.00,121.00 4.00,229.00 4.00,229.00              4.00,229.00 22.00,229.00 22.00,229.00              22.60,241.96 27.09,254.53 34.76,265.00              34.76,265.00 43.08,274.91 43.08,274.91              44.33,276.19 47.20,278.51 47.66,280.17              48.29,282.44 46.39,284.43 44.94,285.91              38.02,292.96 31.33,292.03 28.48,294.16              25.38,296.48 26.67,300.72 24.45,307.00              20.96,316.91 14.19,324.09 4.00,327.00              4.00,327.00 4.00,415.00 4.00,415.00              4.00,415.00 36.00,415.00 36.00,415.00              36.00,415.00 36.00,376.00 36.00,376.00              36.01,372.92 35.51,369.18 38.31,367.14              38.31,367.14 56.00,360.57 56.00,360.57              66.07,356.27 78.04,349.54 87.00,343.28              130.52,312.87 166.64,263.03 166.00,208.00              165.72,183.98 152.49,160.62 126.00,160.01              117.62,159.82 108.75,161.68 102.09,167.04              89.54,177.15 86.66,197.73 98.47,209.53              106.38,217.45 118.64,217.00 129.00,217.00              127.50,220.39 126.35,223.94 124.20,227.00              116.24,238.34 106.58,239.00 94.00,239.00              91.40,251.88 85.06,260.27 72.00,264.00              73.92,256.14 76.18,239.69 74.07,232.00              72.18,225.11 62.62,213.96 58.31,206.00              52.87,195.97 48.02,184.52 47.18,173.00              46.11,158.20 56.58,140.79 67.00,131.09              72.59,125.89 80.78,120.87 88.00,118.34              97.46,115.04 107.06,113.22 117.00,115.00              117.00,101.47 116.43,98.18 121.42,85.00              124.30,77.40 128.52,70.94 134.09,65.00              154.41,43.34 180.33,40.84 206.00,54.32              206.00,54.32 221.00,63.09 221.00,63.09              230.57,69.49 233.71,73.26 246.00,72.99              246.00,72.99 269.00,70.00 269.00,70.00              266.86,77.35 261.45,83.78 255.00,87.87              246.29,93.38 243.39,87.95 243.30,98.00              243.14,113.63 235.00,121.11 221.00,126.00              221.00,115.81 221.55,104.12 213.79,96.19              204.91,87.11 185.84,86.75 176.00,94.39              167.70,100.84 163.70,109.62 163.09,120.00              162.87,123.85 163.72,128.27 164.67,132.00              169.87,152.52 189.24,161.97 209.00,162.00              209.00,162.00 221.00,162.00 221.00,162.00              229.19,161.99 238.05,160.35 246.00,158.37              289.00,147.68 327.26,117.53 351.67,81.00              359.75,68.91 371.68,48.58 373.00,34.00              373.00,34.00 422.00,34.00 422.00,34.00              422.00,34.00 422.00,3.00 422.00,3.00              422.00,3.00 341.00,3.00 341.00,3.00              338.86,3.00 335.42,2.75 333.63,3.99              330.99,5.84 330.09,11.36 323.96,16.67              316.84,22.85 308.19,24.92 299.00,25.00              297.84,31.16 294.18,45.74 286.28,46.34              284.15,46.50 282.35,44.31 280.96,42.97              276.84,38.98 274.81,36.83 270.00,33.44              259.07,25.73 246.44,21.12 233.00,21.00              233.00,21.00 233.00,3.00 233.00,3.00              233.00,3.00 123.00,3.00 123.00,3.00              121.25,3.00 117.93,2.86 116.39,3.57              113.78,4.78 110.96,11.49 104.00,16.35              96.84,21.36 88.95,19.51 85.68,21.98              85.68,21.98 79.52,31.00 79.52,31.00              75.48,36.40 71.82,39.62 66.00,43.00 Z"
     onclick="top.notify(evt)" />
  <path
     id="Selection"
     fill="none"
     stroke="black"
     stroke-width="1"
     d="M 4.00,3.00            C 4.00,3.00 4.00,108.00 4.00,108.00              10.27,104.92 14.78,101.11 16.47,94.00              17.41,90.05 16.30,85.63 18.74,82.11              22.76,76.29 32.16,76.64 38.00,66.00              31.13,61.99 24.14,55.34 23.19,47.00              21.62,33.26 37.62,19.48 51.00,22.39              58.13,23.94 63.79,30.44 68.00,36.00              78.68,30.93 78.41,21.62 84.11,17.60              87.18,15.43 91.30,16.23 95.00,15.53              102.26,14.16 107.59,10.06 110.00,3.00              110.00,3.00 4.00,3.00 4.00,3.00 Z"
     onclick="top.notify(evt)" />
</svg>
