<?xml version="1.0" encoding="UTF-8" standalone="no"?>
<svg
   xmlns:dc="http://purl.org/dc/elements/1.1/"
   xmlns:cc="http://creativecommons.org/ns#"
   xmlns:rdf="http://www.w3.org/1999/02/22-rdf-syntax-ns#"
   xmlns:svg="http://www.w3.org/2000/svg"
   xmlns="http://www.w3.org/2000/svg"
   xmlns:sodipodi="http://sodipodi.sourceforge.net/DTD/sodipodi-0.dtd"
   xmlns:inkscape="http://www.inkscape.org/namespaces/inkscape"
   width="2.3747in"
   height="2.3747in"
   viewBox="0 0 228 228"
   version="1.1"
   id="svg721"
   sodipodi:docname="acacia18-01.svg"
   inkscape:version="0.92.4 (5da689c313, 2019-01-14)">
  <metadata
     id="metadata727">
    <rdf:RDF>
      <cc:Work
         rdf:about="">
        <dc:format>image/svg+xml</dc:format>
        <dc:type
           rdf:resource="http://purl.org/dc/dcmitype/StillImage" />
      </cc:Work>
    </rdf:RDF>
  </metadata>
  <defs
     id="defs725" />
  <sodipodi:namedview
     pagecolor="#ffffff"
     bordercolor="#666666"
     borderopacity="1"
     objecttolerance="10"
     gridtolerance="10"
     guidetolerance="10"
     inkscape:pageopacity="0"
     inkscape:pageshadow="2"
     inkscape:window-width="1366"
     inkscape:window-height="659"
     id="namedview723"
     showgrid="false"
     inkscape:zoom="2.0748234"
     inkscape:cx="105.06918"
     inkscape:cy="113.9856"
     inkscape:window-x="0"
     inkscape:window-y="31"
     inkscape:window-maximized="1"
     inkscape:current-layer="svg721" />
  <path
     id="Selection #37"
     fill="none"
     stroke="black"
     stroke-width="1"
     d="M 225.00,198.00            C 225.00,198.00 201.00,225.00 201.00,225.00              201.00,225.00 226.00,224.00 226.00,224.00              226.00,224.00 225.00,198.00 225.00,198.00 Z"
     onclick="top.notify(evt)" />
  <path
     id="Selection #36"
     fill="none"
     stroke="black"
     stroke-width="1"
     d="M 200.00,196.00            C 200.00,196.00 199.00,222.00 199.00,222.00              204.22,218.23 220.22,200.65 224.00,195.00              224.00,195.00 200.00,196.00 200.00,196.00 Z"
     onclick="top.notify(evt)" />
  <path
     id="Selection #35"
     fill="none"
     stroke="black"
     stroke-width="1"
     d="M 200.00,170.00            C 200.00,170.00 200.00,193.00 200.00,193.00              200.00,193.00 224.00,193.00 224.00,193.00              224.00,193.00 200.00,170.00 200.00,170.00 Z"
     onclick="top.notify(evt)" />
  <path
     id="Selection #34"
     fill="none"
     stroke="black"
     stroke-width="1"
     d="M 173.00,196.00            C 177.10,201.74 191.59,218.09 197.00,222.00              197.00,222.00 197.00,196.00 197.00,196.00              197.00,196.00 173.00,196.00 173.00,196.00 Z"
     onclick="top.notify(evt)" />
  <path
     id="Selection #33"
     fill="none"
     stroke="black"
     stroke-width="1"
     d="M 171.00,168.00            C 171.00,168.00 171.00,193.00 171.00,193.00              171.00,193.00 197.00,193.00 197.00,193.00              197.00,193.00 197.00,168.00 197.00,168.00              197.00,168.00 171.00,168.00 171.00,168.00 Z"
     onclick="top.notify(evt)" />
  <path
     id="Selection #32"
     fill="none"
     stroke="black"
     stroke-width="1"
     d="M 225.00,35.00            C 225.00,35.00 208.00,50.42 208.00,50.42              208.00,50.42 198.57,60.28 198.57,60.28              198.57,60.28 198.00,67.00 198.00,67.00              198.00,67.00 198.00,90.00 198.00,90.00              198.00,90.00 199.00,105.00 199.00,105.00              199.00,105.00 199.00,157.00 199.00,157.00              199.00,157.00 200.02,165.00 200.02,165.00              200.02,165.00 208.00,174.00 208.00,174.00              208.00,174.00 226.00,190.00 226.00,190.00              226.00,190.00 226.00,82.00 226.00,82.00              226.00,82.00 226.00,51.00 226.00,51.00              226.00,51.00 225.00,35.00 225.00,35.00 Z"
     onclick="top.notify(evt)" />
  <path
     id="Selection #31"
     fill="none"
     stroke="black"
     stroke-width="1"
     d="M 170.00,61.00            C 170.00,61.00 170.00,165.00 170.00,165.00              170.00,165.00 197.00,165.00 197.00,165.00              197.00,165.00 196.00,151.00 196.00,151.00              196.00,151.00 196.00,81.00 196.00,81.00              196.00,81.00 195.00,61.00 195.00,61.00              195.00,61.00 170.00,61.00 170.00,61.00 Z" />
  <path
     id="Selection #30"
     fill="none"
     stroke="black"
     stroke-width="1"
     d="M 167.00,117.00            C 167.00,117.00 119.00,165.00 119.00,165.00              119.00,165.00 168.00,165.00 168.00,165.00              168.00,165.00 168.00,133.00 168.00,133.00              168.00,133.00 167.00,117.00 167.00,117.00 Z"
     onclick="top.notify(evt)" />
  <path
     id="Selection #29"
     fill="none"
     stroke="black"
     stroke-width="1"
     d="M 62.00,168.00            C 62.00,168.00 62.00,194.00 62.00,194.00              62.00,194.00 110.00,194.00 110.00,194.00              110.00,194.00 127.00,193.00 127.00,193.00              127.00,193.00 168.00,193.00 168.00,193.00              168.00,193.00 168.00,168.00 168.00,168.00              168.00,168.00 62.00,168.00 62.00,168.00 Z"
     onclick="top.notify(evt)" />
  <path
     id="Selection #28"
     fill="none"
     stroke="black"
     stroke-width="1"
     d="M 37.00,225.00            C 37.00,225.00 195.00,225.00 195.00,225.00              195.00,225.00 181.28,209.00 181.28,209.00              181.28,209.00 168.83,196.60 168.83,196.60              168.83,196.60 162.00,196.00 162.00,196.00              162.00,196.00 101.00,196.00 101.00,196.00              101.00,196.00 85.00,197.00 85.00,197.00              85.00,197.00 69.00,197.00 69.00,197.00              69.00,197.00 62.01,197.60 62.01,197.60              62.01,197.60 46.72,213.00 46.72,213.00              46.72,213.00 37.00,225.00 37.00,225.00 Z"
     onclick="top.notify(evt)" />
  <path
     id="Selection #27"
     fill="none"
     stroke="black"
     stroke-width="1"
     d="M 198.00,33.00            C 198.00,33.00 198.00,56.00 198.00,56.00              203.78,51.91 219.07,38.44 223.00,33.00              223.00,33.00 198.00,33.00 198.00,33.00 Z"
     onclick="top.notify(evt)" />
  <path
     id="Selection #26"
     fill="none"
     stroke="black"
     stroke-width="1"
     d="M 201.00,3.00            C 205.25,8.94 219.72,24.03 226.00,27.00              226.00,27.00 226.00,3.00 226.00,3.00              226.00,3.00 201.00,3.00 201.00,3.00 Z"
     onclick="top.notify(evt)" />
  <path
     id="Selection #25"
     fill="none"
     stroke="black"
     stroke-width="1"
     d="M 199.00,6.00            C 199.00,6.00 198.00,30.00 198.00,30.00              198.00,30.00 224.00,30.00 224.00,30.00              224.00,30.00 199.00,6.00 199.00,6.00 Z"
     onclick="top.notify(evt)" />
  <path
     id="Selection #24"
     fill="none"
     stroke="black"
     stroke-width="1"
     d="M 195.00,6.00            C 195.00,6.00 173.00,30.00 173.00,30.00              173.00,30.00 196.00,30.00 196.00,30.00              196.00,30.00 195.00,6.00 195.00,6.00 Z"
     onclick="top.notify(evt)" />
  <path
     id="Selection #23"
     fill="none"
     stroke="black"
     stroke-width="1"
     d="M 170.00,33.00            C 170.00,33.00 170.00,58.00 170.00,58.00              170.00,58.00 195.00,58.00 195.00,58.00              195.00,58.00 195.00,33.00 195.00,33.00              195.00,33.00 170.00,33.00 170.00,33.00 Z"
     onclick="top.notify(evt)" />
  <path
     id="Selection #22"
     fill="none"
     stroke="black"
     stroke-width="1"
     d="M 117.00,61.00            C 123.35,69.86 132.26,76.46 140.00,84.01              148.12,91.94 158.87,104.20 168.00,110.00              168.00,110.00 168.00,61.00 168.00,61.00              168.00,61.00 117.00,61.00 117.00,61.00 Z"
     onclick="top.notify(evt)" />
  <path
     id="Selection #21"
     fill="none"
     stroke="black"
     stroke-width="1"
     d="M 139.00,97.00            C 136.12,103.46 133.60,107.54 128.00,112.00              128.00,112.00 137.00,127.00 137.00,127.00              137.00,127.00 139.00,127.00 139.00,127.00              139.00,127.00 144.51,117.60 144.51,117.60              144.51,117.60 156.00,113.00 156.00,113.00              152.01,108.20 148.95,107.84 143.00,107.00              142.51,102.39 141.88,100.65 139.00,97.00 Z"
     onclick="top.notify(evt)" />
  <path
     id="Selection #20"
     fill="none"
     stroke="black"
     stroke-width="1"
     d="M 114.00,125.00            C 109.77,130.64 105.60,133.63 99.00,136.00              99.00,136.00 99.00,138.00 99.00,138.00              99.00,138.00 110.00,142.00 110.00,142.00              110.00,142.00 113.00,154.00 113.00,154.00              119.80,150.38 117.02,147.51 119.98,143.41              121.18,141.76 127.72,138.47 130.00,137.00              130.00,137.00 130.00,135.00 130.00,135.00              130.00,135.00 114.00,125.00 114.00,125.00 Z"
     onclick="top.notify(evt)" />
  <path
     id="Selection #19"
     fill="none"
     stroke="black"
     stroke-width="1"
     d="M 115.00,104.78            C 103.89,106.90 105.47,119.46 114.00,120.76              125.46,122.51 128.32,105.77 115.00,104.78 Z" />
  <path
     id="Selection #18"
     fill="none"
     stroke="black"
     stroke-width="1"
     d="M 114.00,70.00            C 114.00,70.00 108.99,81.61 108.99,81.61              108.99,81.61 100.00,90.00 100.00,90.00              106.14,91.81 110.17,94.90 114.00,100.00              114.00,100.00 116.00,100.00 116.00,100.00              120.21,94.69 123.84,91.80 130.00,89.00              125.13,83.49 122.09,84.64 120.02,81.59              117.55,77.95 120.54,75.79 114.00,70.00 Z" />
  <path
     id="Selection #17"
     fill="none"
     stroke="black"
     stroke-width="1"
     d="M 91.00,97.00            C 87.17,101.73 86.34,102.91 86.00,109.00              79.12,109.02 77.81,108.91 72.00,113.00              76.15,117.36 80.28,117.24 86.00,118.00              86.00,118.00 89.00,129.00 89.00,129.00              89.00,129.00 91.00,129.00 91.00,129.00              94.14,122.59 97.33,118.39 103.00,114.00              103.00,114.00 103.00,112.00 103.00,112.00              95.05,106.26 95.74,104.15 91.00,97.00 Z"
     onclick="top.notify(evt)" />
  <path
     id="Selection #16"
     fill="none"
     stroke="black"
     stroke-width="1"
     d="M 113.00,62.00            C 113.00,62.00 63.00,113.00 63.00,113.00              63.00,113.00 82.00,133.00 82.00,133.00              82.00,133.00 114.00,165.00 114.00,165.00              114.00,165.00 132.00,148.04 132.00,148.04              132.00,148.04 167.00,114.00 167.00,114.00              167.00,114.00 147.00,94.00 147.00,94.00              147.00,94.00 113.00,62.00 113.00,62.00 Z            M 134.00,90.00            C 126.49,93.56 123.08,94.96 118.00,102.00              122.78,104.20 124.22,104.90 126.00,110.00              132.21,105.45 135.90,99.35 138.00,92.00              143.73,95.44 142.73,99.93 146.49,103.44              149.06,105.84 156.10,106.63 157.83,111.08              158.84,113.67 156.95,115.48 154.94,116.77              151.84,118.77 148.72,118.60 146.49,120.58              143.40,123.34 144.24,126.55 137.00,132.00              137.00,132.00 126.00,116.00 126.00,116.00              124.01,120.84 122.59,121.70 118.00,124.00              123.62,129.11 127.60,131.98 135.00,134.00              131.03,142.00 125.80,141.32 122.59,144.69              119.69,147.75 122.83,149.24 115.00,158.00              106.91,151.86 109.78,149.21 106.42,145.49              102.95,141.67 97.94,142.64 94.00,135.00              102.33,132.22 106.58,130.40 112.00,123.00              107.51,121.39 106.76,120.39 105.00,116.00              100.90,118.96 99.21,120.84 96.36,125.00              95.09,126.85 93.13,130.64 90.83,131.18              85.92,132.31 84.66,123.87 82.30,121.59              80.42,119.79 77.98,120.04 75.00,118.78              72.17,117.57 70.31,115.93 68.00,114.00              72.55,108.00 76.63,106.36 84.00,106.00              84.70,99.47 86.99,95.87 93.00,93.00              95.73,100.82 98.13,105.04 105.00,110.00              106.56,105.49 107.38,104.39 112.00,103.00              108.20,94.99 102.76,93.59 95.00,91.00              98.73,83.28 102.78,84.54 106.15,79.79              108.32,76.74 109.07,68.55 114.03,68.03              116.20,67.80 117.87,69.49 119.01,71.11              121.16,74.18 121.35,78.06 123.56,80.32              127.10,83.93 130.30,82.35 134.00,90.00 Z"
     onclick="top.notify(evt)" />
  <path
     id="Selection #15"
     fill="none"
     stroke="black"
     stroke-width="1"
     d="M 62.00,117.00            C 62.00,117.00 62.00,158.00 62.00,158.00              62.04,164.43 62.16,165.87 69.00,166.00              69.00,166.00 88.00,165.00 88.00,165.00              88.00,165.00 110.00,165.00 110.00,165.00              110.00,165.00 86.00,140.00 86.00,140.00              86.00,140.00 62.00,117.00 62.00,117.00 Z"
     onclick="top.notify(evt)" />
  <path
     id="Selection #14"
     fill="none"
     stroke="black"
     stroke-width="1"
     d="M 34.00,169.00            C 34.00,169.00 34.00,185.00 34.00,185.00              34.00,185.00 35.74,193.01 35.74,193.01              35.74,193.01 42.00,194.00 42.00,194.00              42.00,194.00 59.96,194.00 59.96,194.00              59.96,194.00 59.96,179.00 59.96,179.00              59.96,179.00 59.00,169.00 59.00,169.00              59.00,169.00 34.00,169.00 34.00,169.00 Z"
     onclick="top.notify(evt)" />
  <path
     id="Selection #13"
     fill="none"
     stroke="black"
     stroke-width="1"
     d="M 35.00,197.00            C 35.00,197.00 35.00,222.00 35.00,222.00              40.09,217.80 54.02,202.56 57.00,197.00              57.00,197.00 35.00,197.00 35.00,197.00 Z"
     onclick="top.notify(evt)" />
  <path
     id="Selection #12"
     fill="none"
     stroke="black"
     stroke-width="1"
     d="M 30.00,171.00            C 30.00,171.00 7.00,194.00 7.00,194.00              7.00,194.00 32.00,194.00 32.00,194.00              32.00,194.00 30.00,171.00 30.00,171.00 Z" />
  <path
     id="Selection #11"
     fill="none"
     stroke="black"
     stroke-width="1"
     d="M 30.00,171.00            C 30.00,171.00 7.00,194.00 7.00,194.00              7.00,194.00 32.00,194.00 32.00,194.00              32.00,194.00 30.00,171.00 30.00,171.00 Z"
     onclick="top.notify(evt)" />
  <path
     id="Selection #10"
     fill="none"
     stroke="black"
     stroke-width="1"
     d="M 4.00,199.00            C 4.00,199.00 4.00,225.00 4.00,225.00              4.00,225.00 30.00,225.00 30.00,225.00              27.12,218.91 23.72,217.31 19.00,212.91              13.99,208.24 9.59,203.00 4.00,199.00 Z"
     onclick="top.notify(evt)" />
  <path
     id="Selection #9"
     fill="none"
     stroke="black"
     stroke-width="1"
     d="M 61.00,33.00            C 61.00,33.00 61.00,58.00 61.00,58.00              61.00,58.00 168.00,58.00 168.00,58.00              168.00,58.00 168.00,33.00 168.00,33.00              168.00,33.00 61.00,33.00 61.00,33.00 Z"
     onclick="top.notify(evt)" />
  <path
     id="Selection #8"
     fill="none"
     stroke="black"
     stroke-width="1"
     d="M 62.00,61.00            C 62.00,61.00 62.00,110.00 62.00,110.00              68.16,105.59 78.19,94.81 84.00,89.00              92.41,80.59 103.35,70.58 110.00,61.00              110.00,61.00 62.00,61.00 62.00,61.00 Z"
     onclick="top.notify(evt)" />
  <path
     id="Selection #7"
     fill="none"
     stroke="black"
     stroke-width="1"
     d="M 33.00,61.00            C 33.00,61.00 33.00,166.00 33.00,166.00              33.00,166.00 60.00,166.00 60.00,166.00              60.00,166.00 60.00,137.00 60.00,137.00              60.00,137.00 59.00,121.00 59.00,121.00              59.00,121.00 59.00,61.00 59.00,61.00              59.00,61.00 33.00,61.00 33.00,61.00 Z"
     onclick="top.notify(evt)" />
  <path
     id="Selection #6"
     fill="none"
     stroke="black"
     stroke-width="1"
     d="M 33.00,33.00            C 33.00,33.00 33.00,58.00 33.00,58.00              33.00,58.00 58.00,58.00 58.00,58.00              58.00,58.00 58.00,33.00 58.00,33.00              58.00,33.00 33.00,33.00 33.00,33.00 Z"
     onclick="top.notify(evt)" />
  <path
     id="Selection #5"
     fill="none"
     stroke="black"
     stroke-width="1"
     d="M 35.00,3.00            C 39.60,9.87 43.30,13.23 49.00,19.00              58.18,28.29 56.38,29.98 67.00,30.00              67.00,30.00 161.00,30.00 161.00,30.00              163.65,29.99 166.57,30.19 169.00,28.98              171.68,27.64 175.76,23.24 178.00,21.00              183.86,15.15 188.50,11.09 193.00,4.00              193.00,4.00 174.00,4.00 174.00,4.00              174.00,4.00 160.00,3.00 160.00,3.00              160.00,3.00 35.00,3.00 35.00,3.00 Z"
     onclick="top.notify(evt)" />
  <path
     id="Selection #4"
     fill="none"
     stroke="black"
     stroke-width="1"
     d="M 33.00,6.00            C 33.00,6.00 33.00,31.00 33.00,31.00              33.00,31.00 56.00,30.00 56.00,30.00              56.00,30.00 33.00,6.00 33.00,6.00 Z"
     onclick="top.notify(evt)" />
  <path
     id="Selection #3"
     fill="none"
     stroke="black"
     stroke-width="1"
     d="M 7.00,34.00            C 10.97,39.54 24.40,51.99 30.00,56.00              30.00,56.00 30.00,34.00 30.00,34.00              30.00,34.00 7.00,34.00 7.00,34.00 Z"
     onclick="top.notify(evt)" />
  <path
     id="Selection #2"
     fill="none"
     stroke="black"
     stroke-width="1"
     d="M 4.00,36.00            C 4.00,36.00 4.00,192.00 4.00,192.00              8.92,188.48 10.73,186.03 15.00,182.17              18.98,178.57 28.67,170.71 30.40,166.00              31.12,164.06 31.00,161.09 31.00,159.00              31.00,159.00 31.00,68.00 31.00,68.00              31.00,65.51 31.21,62.39 29.98,60.17              28.93,58.27 24.76,54.70 23.00,52.99              18.91,49.01 8.23,39.03 4.00,36.00 Z"
     onclick="top.notify(evt)" />
  <path
     id="Selection #1"
     fill="none"
     stroke="black"
     stroke-width="1"
     d="M 29.00,6.00            C 29.00,6.00 6.00,31.00 6.00,31.00              6.00,31.00 30.00,31.00 30.00,31.00              30.00,31.00 29.00,6.00 29.00,6.00 Z"
     onclick="top.notify(evt)" />
  <path
     id="Selection"
     fill="none"
     stroke="black"
     stroke-width="1"
     d="M 4.00,3.00            C 4.00,3.00 4.00,28.00 4.00,28.00              9.23,24.26 24.22,8.28 28.00,3.00              28.00,3.00 4.00,3.00 4.00,3.00 Z"
     onclick="top.notify(evt)" />
</svg>
