<?xml version="1.0" encoding="UTF-8" standalone="no"?>
<svg
   xmlns:dc="http://purl.org/dc/elements/1.1/"
   xmlns:cc="http://creativecommons.org/ns#"
   xmlns:rdf="http://www.w3.org/1999/02/22-rdf-syntax-ns#"
   xmlns:svg="http://www.w3.org/2000/svg"
   xmlns="http://www.w3.org/2000/svg"
   xmlns:sodipodi="http://sodipodi.sourceforge.net/DTD/sodipodi-0.dtd"
   xmlns:inkscape="http://www.inkscape.org/namespaces/inkscape"
   width="2.4372in"
   height="2.3747in"
   viewBox="0 0 234 228"
   version="1.1"
   id="svg925"
   sodipodi:docname="acacia10-01.svg"
   inkscape:version="0.92.4 (5da689c313, 2019-01-14)">
  <metadata
     id="metadata931">
    <rdf:RDF>
      <cc:Work
         rdf:about="">
        <dc:format>image/svg+xml</dc:format>
        <dc:type
           rdf:resource="http://purl.org/dc/dcmitype/StillImage" />
      </cc:Work>
    </rdf:RDF>
  </metadata>
  <defs
     id="defs929" />
  <sodipodi:namedview
     pagecolor="#ffffff"
     bordercolor="#666666"
     borderopacity="1"
     objecttolerance="10"
     gridtolerance="10"
     guidetolerance="10"
     inkscape:pageopacity="0"
     inkscape:pageshadow="2"
     inkscape:window-width="1366"
     inkscape:window-height="659"
     id="namedview927"
     showgrid="false"
     inkscape:zoom="2.0748234"
     inkscape:cx="101.80359"
     inkscape:cy="113.9856"
     inkscape:window-x="0"
     inkscape:window-y="31"
     inkscape:window-maximized="1"
     inkscape:current-layer="svg925" />
  <path
     id="Selection #8"
     fill="none"
     stroke="black"
     stroke-width="1"
     d="M 3.00,2.00            C 3.00,2.00 3.00,90.00 3.00,90.00              20.25,90.38 41.33,95.08 57.00,102.31              57.00,102.31 76.00,113.00 76.00,113.00              71.06,119.27 61.37,124.38 54.00,127.40              37.45,134.16 20.92,138.00 3.00,138.00              3.00,138.00 3.00,226.00 3.00,226.00              3.00,226.00 92.00,226.00 92.00,226.00              92.68,211.19 96.03,192.64 101.87,179.00              106.16,168.99 110.83,162.98 116.00,154.00              131.99,171.57 140.93,202.45 141.00,226.00              141.00,226.00 230.00,226.00 230.00,226.00              230.00,226.00 230.00,138.00 230.00,138.00              211.21,138.00 191.99,133.60 175.00,125.52              175.00,125.52 157.00,115.00 157.00,115.00              174.90,97.97 205.90,91.11 230.00,90.00              230.00,90.00 230.00,2.00 230.00,2.00              230.00,2.00 141.00,2.00 141.00,2.00              140.95,18.16 136.42,38.32 129.69,53.00              129.69,53.00 118.00,74.00 118.00,74.00              110.89,68.66 106.38,60.10 103.01,52.00              96.47,36.29 92.37,19.07 92.00,2.00              92.00,2.00 3.00,2.00 3.00,2.00 Z            M 112.00,110.00            C 90.08,108.99 61.78,93.59 46.00,78.91              35.69,69.33 27.12,58.20 20.15,46.00              13.42,34.22 7.30,19.74 7.00,6.00              20.87,6.64 36.05,12.74 48.00,19.58              71.41,32.98 89.04,49.65 101.25,74.00              107.09,85.66 111.88,96.72 112.00,110.00 Z            M 227.00,6.00            C 223.94,18.14 224.83,21.12 219.14,34.00              206.36,62.91 185.28,85.11 157.00,99.25              145.78,104.86 133.65,109.42 121.00,110.00              121.57,83.99 142.86,51.70 162.00,35.30              169.35,29.00 177.62,23.93 186.00,19.15              198.06,12.27 212.97,6.31 227.00,6.00 Z            M 112.00,118.00            C 111.96,132.46 105.92,146.63 98.85,159.00              82.11,188.29 53.69,211.19 21.00,220.26              21.00,220.26 7.00,223.00 7.00,223.00              7.12,209.72 11.91,198.66 17.75,187.00              32.83,156.92 60.73,132.24 93.00,122.03              93.00,122.03 112.00,118.00 112.00,118.00 Z            M 227.00,222.00            C 227.00,222.00 226.00,223.00 226.00,223.00              226.00,223.00 215.00,220.99 215.00,220.99              209.04,219.69 199.66,216.08 194.00,213.56              167.80,201.93 144.56,179.55 131.75,154.00              126.06,142.65 121.12,130.90 121.00,118.00              121.00,118.00 136.00,120.74 136.00,120.74              171.06,130.46 200.53,156.79 216.63,189.00              223.29,202.32 223.61,208.57 227.00,222.00 Z"
     onclick="top.notify(evt)" />
  <path
     id="Selection #7"
     fill="none"
     stroke="black"
     stroke-width="1"
     d="M 124.00,121.00            C 124.53,132.25 130.19,146.27 135.72,156.00              148.72,178.86 164.16,193.90 187.00,206.72              197.37,212.54 210.99,218.74 223.00,219.00              222.45,207.28 217.12,196.23 211.78,186.00              197.96,159.58 174.66,138.66 147.00,127.45              138.52,124.02 132.49,123.14 124.00,121.00 Z"
     onclick="top.notify(evt)" />
  <path
     id="Selection #6"
     fill="none"
     stroke="black"
     stroke-width="1"
     d="M 161.00,115.00            C 185.83,128.88 201.05,135.00 230.00,135.00              230.00,135.00 230.00,93.00 230.00,93.00              213.13,93.00 196.69,96.73 181.00,102.81              174.32,105.40 165.65,109.53 161.00,115.00 Z"
     onclick="top.notify(evt)" />
  <path
     id="Selection #5"
     fill="none"
     stroke="black"
     stroke-width="1"
     d="M 116.00,158.00            C 116.00,158.00 103.87,180.00 103.87,180.00              98.76,191.95 95.01,212.96 95.00,226.00              95.00,226.00 138.00,226.00 138.00,226.00              138.00,209.62 134.55,193.19 128.40,178.00              125.76,171.50 121.13,162.75 116.00,158.00 Z"
     onclick="top.notify(evt)" />
  <path
     id="Selection #4"
     fill="none"
     stroke="black"
     stroke-width="1"
     d="M 124.00,107.00            C 159.35,102.31 191.48,77.12 209.40,47.00              215.71,36.38 222.42,21.45 223.00,9.00              189.14,13.57 158.84,37.24 140.33,65.00              132.05,77.42 125.23,91.94 124.00,107.00 Z"
     onclick="top.notify(evt)" />
  <path
     id="Selection #3"
     fill="none"
     stroke="black"
     stroke-width="1"
     d="M 10.00,219.00            C 22.28,218.73 36.45,212.28 47.00,206.28              69.28,193.61 83.99,179.21 96.99,157.00              102.74,147.17 108.46,133.47 109.00,122.00              96.21,122.28 81.92,128.62 71.00,135.01              62.93,139.74 52.77,146.72 46.00,153.09              30.22,167.94 11.85,196.93 10.00,219.00 Z"
     onclick="top.notify(evt)" />
  <path
     id="Selection #2"
     fill="none"
     stroke="black"
     stroke-width="1"
     d="M 3.00,93.00            C 3.00,93.00 3.00,135.00 3.00,135.00              22.30,135.00 41.61,131.35 59.00,122.63              59.00,122.63 72.00,115.00 72.00,115.00              66.98,109.09 59.08,105.64 52.00,102.80              36.48,96.57 19.76,93.00 3.00,93.00 Z"
     onclick="top.notify(evt)" />
  <path
     id="Selection #1"
     fill="none"
     stroke="black"
     stroke-width="1"
     d="M 95.00,2.00            C 95.01,17.98 99.47,39.56 106.32,54.00              108.71,59.05 112.86,65.29 116.00,70.00              121.16,65.62 124.35,59.05 127.22,53.00              134.47,37.69 138.00,18.87 138.00,2.00              138.00,2.00 95.00,2.00 95.00,2.00 Z"
     onclick="top.notify(evt)" />
  <path
     id="Selection"
     fill="none"
     stroke="black"
     stroke-width="1"
     d="M 10.00,9.00            C 10.95,20.68 16.13,32.81 21.70,43.00              39.07,74.83 72.31,102.13 109.00,107.00              108.44,94.83 103.66,84.64 98.24,74.00              86.55,51.01 68.11,34.23 46.00,21.58              35.65,15.65 21.96,9.98 10.00,9.00 Z" />
</svg>
