<?xml version="1.0" encoding="UTF-8" standalone="no"?>
<svg
   xmlns:dc="http://purl.org/dc/elements/1.1/"
   xmlns:cc="http://creativecommons.org/ns#"
   xmlns:rdf="http://www.w3.org/1999/02/22-rdf-syntax-ns#"
   xmlns:svg="http://www.w3.org/2000/svg"
   xmlns="http://www.w3.org/2000/svg"
   xmlns:sodipodi="http://sodipodi.sourceforge.net/DTD/sodipodi-0.dtd"
   xmlns:inkscape="http://www.inkscape.org/namespaces/inkscape"
   width="2.41636in"
   height="2.41636in"
   viewBox="0 0 232 232"
   version="1.1"
   id="svg823"
   sodipodi:docname="acacia19-01.svg"
   inkscape:version="0.92.4 (5da689c313, 2019-01-14)">
  <metadata
     id="metadata829">
    <rdf:RDF>
      <cc:Work
         rdf:about="">
        <dc:format>image/svg+xml</dc:format>
        <dc:type
           rdf:resource="http://purl.org/dc/dcmitype/StillImage" />
      </cc:Work>
    </rdf:RDF>
  </metadata>
  <defs
     id="defs827" />
  <sodipodi:namedview
     pagecolor="#ffffff"
     bordercolor="#666666"
     borderopacity="1"
     objecttolerance="10"
     gridtolerance="10"
     guidetolerance="10"
     inkscape:pageopacity="0"
     inkscape:pageshadow="2"
     inkscape:window-width="1366"
     inkscape:window-height="659"
     id="namedview825"
     showgrid="false"
     inkscape:zoom="2.0390519"
     inkscape:cx="106.91243"
     inkscape:cy="115.98528"
     inkscape:window-x="0"
     inkscape:window-y="31"
     inkscape:window-maximized="1"
     inkscape:current-layer="svg823" />
  <path
     id="Selection #16"
     fill="none"
     stroke="black"
     stroke-width="1"
     d="M 205.00,228.00            C 205.00,228.00 229.00,228.00 229.00,228.00              229.00,228.00 229.00,205.00 229.00,205.00              214.96,205.66 206.93,214.39 205.00,228.00 Z"
     onclick="top.notify(evt)" />
  <path
     id="Selection #15"
     fill="none"
     stroke="black"
     stroke-width="1"
     d="M 228.00,162.00            C 225.98,164.86 217.84,175.61 217.12,178.00              216.13,181.26 220.88,193.07 223.64,195.01              225.18,196.09 227.21,195.94 229.00,196.00              229.00,196.00 229.00,174.00 229.00,174.00              229.00,174.00 228.00,162.00 228.00,162.00 Z"
     onclick="top.notify(evt)" />
  <path
     id="Selection #14"
     fill="none"
     stroke="black"
     stroke-width="1"
     d="M 180.00,180.00            C 180.54,183.99 182.77,197.90 184.85,200.61              187.34,203.86 198.83,208.02 203.00,209.00              203.00,209.00 209.65,200.83 209.65,200.83              210.50,198.47 208.88,195.21 208.00,193.00              207.01,190.50 205.61,186.31 203.59,184.59              200.86,182.27 184.20,180.19 180.00,180.00 Z"
     onclick="top.notify(evt)" />
  <path
     id="Selection #13"
     fill="none"
     stroke="black"
     stroke-width="1"
     d="M 162.00,227.00            C 162.00,227.00 174.00,228.00 174.00,228.00              174.00,228.00 196.00,228.00 196.00,228.00              196.00,228.00 197.00,222.00 197.00,222.00              197.00,222.00 180.00,216.09 180.00,216.09              180.00,216.09 162.00,227.00 162.00,227.00 Z"
     onclick="top.notify(evt)" />
  <path
     id="Selection #12"
     fill="none"
     stroke="black"
     stroke-width="1"
     d="M 228.00,70.00            C 228.00,70.00 229.00,58.00 229.00,58.00              229.00,58.00 229.00,36.00 229.00,36.00              227.17,36.06 225.09,35.93 223.49,37.02              220.43,39.12 216.03,50.47 217.19,54.00              217.99,56.43 225.89,66.86 228.00,70.00 Z"
     onclick="top.notify(evt)" />
  <path
     id="Selection #11"
     fill="none"
     stroke="black"
     stroke-width="1"
     d="M 205.00,4.00            C 207.07,17.42 215.02,26.31 229.00,27.00              229.00,27.00 229.00,4.00 229.00,4.00              229.00,4.00 205.00,4.00 205.00,4.00 Z"
     onclick="top.notify(evt)" />
  <path
     id="Selection #10"
     fill="none"
     stroke="black"
     stroke-width="1"
     d="M 180.00,52.00            C 184.11,51.81 198.81,49.78 201.61,47.42              203.81,45.55 205.12,41.64 206.30,39.00              207.40,36.56 209.61,32.87 208.65,30.17              208.11,28.64 206.31,27.00 205.15,25.73              199.98,20.95 199.22,22.42 191.00,25.73              188.69,26.46 185.80,27.13 184.48,29.42              184.48,29.42 180.00,52.00 180.00,52.00 Z"
     onclick="top.notify(evt)" />
  <path
     id="Selection #9"
     fill="none"
     stroke="black"
     stroke-width="1"
     d="M 163.00,4.00            C 165.93,7.27 175.74,15.20 180.00,15.54              183.71,15.84 193.54,10.92 197.00,9.00              197.00,9.00 196.00,4.00 196.00,4.00              196.00,4.00 163.00,4.00 163.00,4.00 Z"
     onclick="top.notify(evt)" />
  <path
     id="Selection #8"
     fill="none"
     stroke="black"
     stroke-width="1"
     d="M 35.00,222.00            C 35.00,222.00 36.00,228.00 36.00,228.00              36.00,228.00 69.00,228.00 69.00,228.00              66.10,224.57 55.47,215.82 51.00,216.09              51.00,216.09 35.00,222.00 35.00,222.00 Z"
     onclick="top.notify(evt)" />
  <path
     id="Selection #7"
     fill="none"
     stroke="black"
     stroke-width="1"
     d="M 51.00,179.00            C 51.00,179.00 30.63,183.95 30.63,183.95              28.08,185.89 22.99,198.54 22.00,202.00              22.00,202.00 30.00,210.00 30.00,210.00              30.00,210.00 46.44,203.30 46.44,203.30              46.44,203.30 49.08,196.00 49.08,196.00              49.08,196.00 51.00,179.00 51.00,179.00 Z"
     onclick="top.notify(evt)" />
  <path
     id="Selection #6"
     fill="none"
     stroke="black"
     stroke-width="1"
     d="M 3.00,205.00            C 3.00,205.00 3.00,228.00 3.00,228.00              3.00,228.00 27.00,228.00 27.00,228.00              25.10,214.58 16.89,205.68 3.00,205.00 Z"
     onclick="top.notify(evt)" />
  <path
     id="Selection #5"
     fill="none"
     stroke="black"
     stroke-width="1"
     d="M 3.00,162.00            C 3.00,162.00 3.00,196.00 3.00,196.00              4.78,195.94 6.83,196.10 8.35,195.01              11.04,193.09 15.62,181.23 14.71,178.00              13.67,174.34 5.99,164.68 3.00,162.00 Z"
     onclick="top.notify(evt)" />
  <path
     id="Selection #4"
     fill="none"
     stroke="black"
     stroke-width="1"
     d="M 3.00,33.00            C 5.05,33.03 7.82,32.85 9.59,34.02              12.18,35.73 18.13,49.94 17.54,53.00              17.06,55.54 13.72,59.80 12.14,62.00              6.34,70.10 3.02,71.81 3.00,82.00              3.00,82.00 3.00,149.00 3.00,149.00              3.02,159.60 5.53,160.53 11.58,169.00              13.30,171.40 17.17,176.23 17.54,179.00              18.07,182.88 12.28,192.14 11.00,199.00              11.00,199.00 3.00,198.00 3.00,198.00              3.00,198.00 3.00,202.00 3.00,202.00              12.14,202.82 19.81,207.27 24.89,215.00              27.86,219.51 27.85,226.20 33.00,228.00              33.00,228.00 32.00,221.00 32.00,221.00              35.46,219.62 50.06,212.85 52.58,213.20              54.70,213.50 60.03,217.73 62.00,219.14              70.20,225.02 71.69,227.98 82.00,228.00              82.00,228.00 150.00,228.00 150.00,228.00              160.31,227.98 161.79,225.02 170.00,219.14              172.06,217.66 177.30,213.57 179.58,213.23              182.12,212.85 196.55,219.62 200.00,221.00              200.00,221.00 199.00,228.00 199.00,228.00              203.98,226.21 204.29,219.28 207.11,215.00              212.34,207.04 219.61,202.85 229.00,202.00              229.00,202.00 229.00,198.00 229.00,198.00              229.00,198.00 221.00,199.00 221.00,199.00              219.65,191.79 213.77,182.94 214.37,179.00              214.84,175.85 219.15,170.67 221.12,168.00              227.04,159.95 228.98,159.04 229.00,149.00              229.00,149.00 229.00,83.00 229.00,83.00              228.98,72.40 226.47,71.47 220.42,63.00              218.80,60.73 214.69,55.49 214.24,53.00              213.68,49.90 219.74,35.73 222.39,34.02              224.20,32.86 226.92,33.03 229.00,33.00              227.23,28.47 220.45,28.29 216.00,25.53              211.47,22.73 207.86,18.73 205.40,14.00              202.36,8.15 204.36,5.87 199.00,4.00              199.00,4.00 200.00,11.00 200.00,11.00              196.41,12.25 181.86,18.88 179.42,18.55              177.38,18.27 171.92,13.95 170.00,12.58              161.95,6.83 160.11,4.02 150.00,4.00              150.00,4.00 82.00,4.00 82.00,4.00              71.40,4.02 70.47,6.53 62.00,12.58              60.02,13.99 54.52,18.28 52.42,18.62              50.05,19.01 35.59,12.25 32.00,11.00              32.00,11.00 33.00,4.00 33.00,4.00              27.86,5.79 29.54,7.83 27.01,13.00              24.49,18.12 20.86,22.52 16.00,25.53              11.55,28.29 4.77,28.47 3.00,33.00 Z            M 203.00,18.00            C 203.00,18.00 212.08,30.04 212.08,30.04              212.08,30.04 209.30,39.00 209.30,39.00              209.30,39.00 203.37,50.10 203.37,50.10              203.37,50.10 194.00,52.75 194.00,52.75              194.00,52.75 177.00,56.00 177.00,56.00              177.00,56.00 180.08,36.00 180.08,36.00              180.08,36.00 182.74,26.70 182.74,26.70              182.74,26.70 203.00,18.00 203.00,18.00 Z            M 55.00,55.00            C 48.93,54.87 41.07,53.36 35.00,52.20              32.96,51.81 28.02,51.09 26.50,49.99              23.39,47.75 18.64,33.09 18.00,29.00              18.00,29.00 30.09,20.23 30.09,20.23              30.09,20.23 38.00,23.00 38.00,23.00              38.00,23.00 49.27,28.70 49.27,28.70              49.27,28.70 52.00,37.00 52.00,37.00              52.00,37.00 55.00,55.00 55.00,55.00 Z            M 55.00,176.00            C 55.00,176.00 51.80,196.00 51.80,196.00              51.38,198.19 50.84,202.81 49.69,204.50              48.24,206.65 44.36,207.85 42.00,208.80              29.52,213.81 30.85,213.84 23.98,207.16              22.76,205.98 20.81,204.38 20.13,202.83              18.80,199.85 21.37,195.77 22.58,193.00              23.79,190.20 26.29,183.67 28.49,181.85              30.58,180.14 35.31,179.54 38.00,179.08              38.00,179.08 55.00,176.00 55.00,176.00 Z            M 178.00,176.00            C 178.00,176.00 202.95,180.72 202.95,180.72              207.50,182.18 208.18,185.95 209.80,190.00              214.41,201.51 214.74,200.59 208.08,207.07              206.93,208.19 205.13,210.22 203.72,210.89              200.37,212.47 195.10,209.23 192.00,207.86              189.72,206.85 184.31,204.85 182.73,203.22              181.04,201.47 180.67,198.31 180.20,196.00              179.11,190.63 176.10,180.95 178.00,176.00 Z"
     onclick="top.notify(evt)" />
  <path
     id="Selection #3"
     fill="none"
     stroke="black"
     stroke-width="1"
     d="M 36.00,4.00            C 36.00,4.00 35.00,9.00 35.00,9.00              38.84,11.13 48.80,16.30 53.00,15.40              56.30,14.70 65.70,7.33 69.00,5.00              64.24,3.11 42.56,4.00 36.00,4.00 Z"
     onclick="top.notify(evt)" />
  <path
     id="Selection #2"
     fill="none"
     stroke="black"
     stroke-width="1"
     d="M 52.00,52.00            C 51.50,48.31 49.00,32.95 47.10,30.70              45.76,29.12 41.96,27.69 40.00,26.81              31.49,23.19 30.79,22.18 25.85,26.81              24.91,27.65 23.39,29.06 22.78,30.17              21.17,33.09 22.89,36.20 24.00,39.00              25.00,41.52 26.33,45.55 28.41,47.26              31.14,49.51 47.77,51.66 52.00,52.00 Z"
     onclick="top.notify(evt)" />
  <path
     id="Selection #1"
     fill="none"
     stroke="black"
     stroke-width="1"
     d="M 3.00,36.00            C 3.00,36.00 3.00,70.00 3.00,70.00              5.89,67.09 14.28,56.69 14.95,53.00              15.50,49.97 10.88,38.76 8.36,36.99              6.82,35.91 4.79,36.06 3.00,36.00 Z"
     onclick="top.notify(evt)" />
  <path
     id="Selection"
     fill="none"
     stroke="black"
     stroke-width="1"
     d="M 3.00,4.00            C 3.00,4.00 3.00,27.00 3.00,27.00              16.73,26.33 24.96,17.18 27.00,4.00              27.00,4.00 3.00,4.00 3.00,4.00 Z"
     onclick="top.notify(evt)" />
</svg>
