<?xml version="1.0" encoding="UTF-8" standalone="no"?>
<svg
   xmlns:dc="http://purl.org/dc/elements/1.1/"
   xmlns:cc="http://creativecommons.org/ns#"
   xmlns:rdf="http://www.w3.org/1999/02/22-rdf-syntax-ns#"
   xmlns:svg="http://www.w3.org/2000/svg"
   xmlns="http://www.w3.org/2000/svg"
   xmlns:sodipodi="http://sodipodi.sourceforge.net/DTD/sodipodi-0.dtd"
   xmlns:inkscape="http://www.inkscape.org/namespaces/inkscape"
   width="0.839276in"
   height="0.831825in"
   viewBox="0 0 188 188"
   version="1.1"
   id="svg1274"
   sodipodi:docname="acacia23-01.svg"
   inkscape:version="0.92.4 (5da689c313, 2019-01-14)">
  <metadata
     id="metadata1280">
    <rdf:RDF>
      <cc:Work
         rdf:about="">
        <dc:format>image/svg+xml</dc:format>
        <dc:type
           rdf:resource="http://purl.org/dc/dcmitype/StillImage" />
      </cc:Work>
    </rdf:RDF>
  </metadata>
  <defs
     id="defs1278" />
  <sodipodi:namedview
     pagecolor="#ffffff"
     bordercolor="#666666"
     borderopacity="1"
     objecttolerance="10"
     gridtolerance="10"
     guidetolerance="10"
     inkscape:pageopacity="0"
     inkscape:pageshadow="2"
     inkscape:window-width="1366"
     inkscape:window-height="659"
     id="namedview1276"
     showgrid="false"
     inkscape:zoom="5.9232209"
     inkscape:cx="40.285249"
     inkscape:cy="39.927601"
     inkscape:window-x="0"
     inkscape:window-y="31"
     inkscape:window-maximized="1"
     inkscape:current-layer="svg1274" />
  <path
     id="Selection #20"
     fill="none"
     stroke="black"
     stroke-width="1"
     d="M 167.00,184.00            C 167.00,184.00 183.00,184.00 183.00,184.00              183.00,184.00 183.00,167.00 183.00,167.00              173.53,169.22 167.57,173.80 167.00,184.00 Z"
     onclick="top.notify(evt)" />
  <path
     id="Selection #19"
     fill="none"
     stroke="black"
     stroke-width="1"
     d="M 180.00,158.00            C 175.69,158.68 174.22,158.94 171.00,162.00              166.78,157.09 160.00,145.40 154.96,143.29              146.15,139.58 139.77,146.98 141.78,153.00              145.22,163.33 165.96,166.18 158.78,176.85              156.24,180.64 152.80,179.40 149.00,178.58              140.47,176.72 129.58,171.99 127.00,184.00              127.00,184.00 158.00,184.00 158.00,184.00              167.18,183.83 163.05,180.84 168.39,174.00              172.33,168.97 176.77,166.17 183.00,165.00              183.00,165.00 183.00,127.00 183.00,127.00              180.36,127.92 178.65,128.48 177.17,131.11              174.23,136.37 179.12,151.46 180.00,158.00 Z"
     onclick="top.notify(evt)" />
  <path
     id="Selection #18"
     fill="none"
     stroke="black"
     stroke-width="1"
     d="M 115.00,184.00            C 117.24,183.99 120.59,184.24 122.51,182.98              124.65,181.57 126.22,176.77 132.00,174.72              136.47,173.14 150.90,176.71 156.00,178.00              156.73,176.23 158.65,173.01 158.18,171.22              157.62,169.07 153.86,167.25 152.09,165.96              148.37,163.26 140.36,156.47 139.52,152.00              138.40,145.95 146.68,137.74 152.72,139.82              160.27,142.42 165.91,152.47 170.00,159.00              171.86,158.23 174.83,157.24 175.96,155.50              178.69,151.34 172.19,139.17 174.33,132.83              176.08,127.67 180.38,126.23 181.98,123.63              183.30,121.47 183.00,117.52 183.00,115.00              171.73,115.01 173.85,115.44 163.99,118.71              146.96,124.33 139.76,129.66 128.85,143.96              128.85,143.96 123.34,151.09 123.34,151.09              118.23,159.45 115.09,174.22 115.00,184.00 Z"
     onclick="top.notify(evt)" />
  <path
     id="Selection #17"
     fill="none"
     stroke="black"
     stroke-width="1"
     d="M 107.00,184.00            C 107.00,184.00 113.00,184.00 113.00,184.00              113.03,172.93 115.94,160.72 121.31,151.00              123.94,146.25 125.04,145.73 128.15,141.83              141.76,124.79 160.75,113.02 183.00,113.00              183.00,113.00 183.00,107.00 183.00,107.00              173.39,107.44 159.67,110.10 151.04,114.32              148.06,115.78 145.66,117.78 142.96,119.67              129.61,129.03 121.15,136.93 114.31,152.00              108.37,165.08 109.29,171.21 107.00,184.00 Z"
     onclick="top.notify(evt)" />
  <path
     id="Selection #16"
     fill="none"
     stroke="black"
     stroke-width="1"
     d="M 182.00,75.00            C 175.15,81.85 167.17,88.86 162.00,97.00              162.00,97.00 183.00,94.00 183.00,94.00              183.00,94.00 182.00,75.00 182.00,75.00 Z" />
  <path
     id="Selection #15"
     fill="none"
     stroke="black"
     stroke-width="1"
     d="M 96.00,162.00            C 90.16,166.42 78.20,178.13 74.00,184.00              74.00,184.00 93.00,184.00 93.00,184.00              93.00,184.00 94.25,173.09 94.25,173.09              94.25,173.09 96.00,162.00 96.00,162.00 Z"
     onclick="top.notify(evt)" />
  <path
     id="Selection #14"
     fill="none"
     stroke="black"
     stroke-width="1"
     d="M 182.00,61.00            C 182.00,61.00 161.00,81.96 161.00,81.96              161.00,81.96 153.09,89.09 153.09,89.09              153.09,89.09 145.96,97.00 145.96,97.00              145.96,97.00 126.58,116.72 126.58,116.72              126.58,116.72 109.01,134.00 109.01,134.00              109.01,134.00 99.96,143.99 99.96,143.99              99.96,143.99 87.00,156.00 87.00,156.00              87.00,156.00 72.00,172.00 72.00,172.00              72.00,172.00 60.00,184.00 60.00,184.00              63.02,184.00 67.23,184.27 70.00,183.15              74.27,181.42 83.46,171.70 86.91,168.00              91.44,163.14 94.04,158.28 101.00,157.00              97.65,166.15 97.00,174.40 97.00,184.00              97.00,184.00 105.00,184.00 105.00,184.00              105.36,167.63 111.94,147.66 122.48,135.04              125.03,131.98 134.57,123.75 137.99,121.15              137.99,121.15 147.04,114.34 147.04,114.34              156.13,108.90 172.40,105.10 183.00,105.00              183.00,105.00 183.00,97.00 183.00,97.00              183.00,97.00 156.00,100.00 156.00,100.00              156.00,100.00 175.17,79.00 175.17,79.00              180.44,73.22 185.38,69.51 182.00,61.00 Z"
     onclick="top.notify(evt)" />
  <path
     id="Selection #13"
     fill="none"
     stroke="black"
     stroke-width="1"
     d="M 182.00,49.00            C 182.00,49.00 166.01,64.01 166.01,64.01              166.01,64.01 158.83,71.83 158.83,71.83              158.83,71.83 142.04,88.00 142.04,88.00              142.04,88.00 132.00,99.00 132.00,99.00              132.00,99.00 120.00,110.01 120.00,110.01              120.00,110.01 99.00,131.96 99.00,131.96              99.00,131.96 65.83,165.91 65.83,165.91              65.83,165.91 48.00,184.00 48.00,184.00              50.29,184.00 53.91,184.16 56.00,183.40              62.88,180.90 76.45,164.70 82.01,159.00              82.01,159.00 98.83,142.91 98.83,142.91              98.83,142.91 124.28,116.17 124.28,116.17              124.28,116.17 134.00,107.00 134.00,107.00              134.00,107.00 155.00,85.17 155.00,85.17              155.00,85.17 165.96,75.00 165.96,75.00              165.96,75.00 175.01,65.00 175.01,65.00              180.13,59.77 185.19,57.05 182.00,49.00 Z"
     onclick="top.notify(evt)" />
  <path
     id="Selection #12"
     fill="none"
     stroke="black"
     stroke-width="1"
     d="M 182.00,8.00            C 182.00,8.00 166.85,25.00 166.85,25.00              166.85,25.00 166.00,50.00 166.00,50.00              169.21,47.50 181.20,35.28 182.40,32.00              183.30,29.56 183.00,21.99 183.00,19.00              183.01,15.21 183.84,11.34 182.00,8.00 Z"
     onclick="top.notify(evt)" />
  <path
     id="Selection #11"
     fill="none"
     stroke="black"
     stroke-width="1"
     d="M 140.00,24.00            C 143.90,24.00 161.30,24.43 163.72,23.43              167.04,22.05 178.58,9.38 181.00,6.00              176.74,6.00 159.87,5.54 157.00,6.60              152.19,8.37 142.22,19.31 140.00,24.00 Z"
     onclick="top.notify(evt)" />
  <path
     id="Selection #10"
     fill="none"
     stroke="black"
     stroke-width="1"
     d="M 119.00,33.00            C 119.00,33.00 156.00,33.00 156.00,33.00              156.00,33.00 156.00,71.00 156.00,71.00              160.23,68.63 163.57,64.43 167.00,61.00              171.09,56.91 180.95,48.15 182.49,43.00              183.09,40.99 182.99,38.13 183.00,36.00              183.00,36.00 163.00,55.00 163.00,55.00              163.00,55.00 163.00,27.00 163.00,27.00              163.00,27.00 135.00,27.00 135.00,27.00              135.00,27.00 153.00,6.00 153.00,6.00              150.90,6.01 147.95,5.88 146.00,6.60              141.53,8.24 132.20,19.02 128.58,22.91              124.42,27.37 122.99,27.48 119.00,33.00 Z"
     onclick="top.notify(evt)" />
  <path
     id="Selection #9"
     fill="none"
     stroke="black"
     stroke-width="1"
     d="M 94.00,56.00            C 94.00,56.00 82.28,68.09 82.28,68.09              82.28,68.09 60.17,90.17 60.17,90.17              60.17,90.17 52.00,99.00 52.00,99.00              52.00,99.00 36.60,116.00 36.60,116.00              36.60,116.00 36.00,123.00 36.00,123.00              36.00,123.00 36.00,154.00 36.00,154.00              36.00,154.00 67.00,154.00 67.00,154.00              69.09,154.00 72.06,154.12 74.00,153.40              78.84,151.62 86.44,142.03 90.17,138.01              90.17,138.01 102.00,127.00 102.00,127.00              102.00,127.00 115.04,113.00 115.04,113.00              115.04,113.00 130.96,97.96 130.96,97.96              130.96,97.96 140.01,88.00 140.01,88.00              143.30,84.63 151.96,76.91 153.40,73.00              154.12,71.06 154.00,68.09 154.00,66.00              154.00,66.00 154.00,35.00 154.00,35.00              154.00,35.00 128.00,35.00 128.00,35.00              124.67,35.00 118.88,34.58 116.00,36.02              108.60,39.72 101.36,53.99 94.00,56.00 Z"
     onclick="top.notify(evt)" />
  <path
     id="Selection #8"
     fill="none"
     stroke="black"
     stroke-width="1"
     d="M 33.00,119.00            C 27.36,123.27 9.89,140.13 7.02,146.00              5.80,148.49 6.01,151.30 6.00,154.00              6.00,154.00 26.00,134.00 26.00,134.00              26.00,134.00 26.00,163.00 26.00,163.00              26.00,163.00 55.00,163.00 55.00,163.00              55.00,163.00 36.00,184.00 36.00,184.00              47.45,183.96 47.95,179.57 56.00,172.09              61.53,166.96 67.45,162.07 72.00,156.00              72.00,156.00 34.00,156.00 34.00,156.00              34.00,156.00 34.00,132.00 34.00,132.00              34.00,132.00 33.00,119.00 33.00,119.00 Z"
     onclick="top.notify(evt)" />
  <path
     id="Selection #7"
     fill="none"
     stroke="black"
     stroke-width="1"
     d="M 8.00,184.00            C 12.26,184.00 29.13,184.46 32.00,183.40              36.36,181.80 47.08,170.07 50.00,166.00              45.74,166.00 28.87,165.54 26.00,166.60              21.64,168.20 10.92,179.93 8.00,184.00 Z"
     onclick="top.notify(evt)" />
  <path
     id="Selection #6"
     fill="none"
     stroke="black"
     stroke-width="1"
     d="M 22.99,139.00            C 22.99,139.00 7.02,157.00 7.02,157.00              7.02,157.00 6.00,182.00 6.00,182.00              9.91,179.20 20.98,169.00 22.99,165.00              24.71,161.54 24.48,142.72 22.99,139.00 Z"
     onclick="top.notify(evt)" />
  <path
     id="Selection #5"
     fill="none"
     stroke="black"
     stroke-width="1"
     d="M 6.00,143.00            C 6.00,143.00 32.28,116.42 32.28,116.42              32.28,116.42 50.96,98.00 50.96,98.00              50.96,98.00 59.04,89.04 59.04,89.04              59.04,89.04 79.28,69.00 79.28,69.00              82.71,65.12 90.51,57.39 94.51,54.00              98.22,50.86 101.01,50.13 102.00,45.00              108.85,41.76 112.81,35.29 118.01,30.00              125.34,22.55 136.20,14.10 142.00,6.00              139.71,6.00 136.14,5.87 134.01,6.51              126.36,8.82 112.13,25.87 106.00,32.00              106.00,32.00 74.01,64.00 74.01,64.00              74.01,64.00 65.91,72.91 65.91,72.91              65.91,72.91 54.00,84.00 54.00,84.00              54.00,84.00 33.00,105.72 33.00,105.72              33.00,105.72 16.00,123.00 16.00,123.00              13.26,125.77 7.89,130.50 6.60,134.00              5.80,136.17 6.00,140.57 6.00,143.00 Z"
     onclick="top.notify(evt)" />
  <path
     id="Selection #4"
     fill="none"
     stroke="black"
     stroke-width="1"
     d="M 85.00,6.00            C 82.91,21.81 80.99,33.37 72.47,47.43              68.20,54.47 64.81,56.79 59.00,62.07              59.00,62.07 47.91,71.91 47.91,71.91              35.93,80.53 20.50,84.00 6.00,84.00              6.00,84.00 6.00,94.00 6.00,94.00              6.00,94.00 34.00,89.00 34.00,89.00              34.00,89.00 17.00,108.00 17.00,108.00              17.00,108.00 6.93,120.00 6.93,120.00              6.93,120.00 6.00,130.00 6.00,130.00              6.00,130.00 24.01,112.00 24.01,112.00              24.01,112.00 37.99,98.99 37.99,98.99              37.99,98.99 54.00,82.00 54.00,82.00              54.00,82.00 83.99,52.00 83.99,52.00              83.99,52.00 92.09,43.09 92.09,43.09              92.09,43.09 106.00,30.00 106.00,30.00              106.00,30.00 117.01,18.01 117.01,18.01              117.01,18.01 129.00,6.00 129.00,6.00              126.57,6.00 122.17,5.80 120.00,6.60              111.24,9.82 99.75,28.41 89.00,33.00              91.47,22.03 93.00,17.58 93.00,6.00              93.00,6.00 85.00,6.00 85.00,6.00 Z"
     onclick="top.notify(evt)" />
  <path
     id="Selection #3"
     fill="none"
     stroke="black"
     stroke-width="1"
     d="M 77.00,6.00            C 76.81,14.46 74.47,25.22 71.13,33.00              68.92,38.15 65.33,42.54 64.00,48.00              63.15,48.20 63.13,47.74 61.58,48.77              59.47,50.15 56.25,55.79 47.00,62.51              34.71,71.45 21.20,76.30 6.00,77.00              6.00,77.00 6.00,82.00 6.00,82.00              27.42,82.00 42.41,75.51 58.00,60.98              60.80,58.37 63.87,55.84 66.33,52.91              76.68,40.60 82.00,21.87 82.00,6.00              82.00,6.00 77.00,6.00 77.00,6.00 Z"
     onclick="top.notify(evt)" />
  <path
     id="Selection #2"
     fill="none"
     stroke="black"
     stroke-width="1"
     d="M 66.00,6.00            C 65.28,8.07 65.11,8.95 63.58,10.70              57.84,17.22 51.32,15.18 44.00,13.58              41.66,13.06 37.61,11.77 35.38,12.60              32.96,13.49 31.19,16.87 30.00,19.00              34.62,20.99 47.43,30.58 49.53,35.00              52.66,41.56 46.15,50.51 39.00,50.15              28.75,49.62 24.37,34.41 19.68,32.12              17.50,31.06 14.25,32.42 12.00,33.00              14.21,44.74 21.73,59.64 6.00,65.00              6.00,65.00 6.00,75.00 6.00,75.00              13.07,73.73 20.01,73.94 26.83,71.21              26.83,71.21 33.04,68.03 33.04,68.03              47.56,61.13 50.85,59.22 60.67,46.09              60.67,46.09 65.53,39.91 65.53,39.91              71.54,30.80 74.13,16.78 75.00,6.00              75.00,6.00 66.00,6.00 66.00,6.00 Z"
     onclick="top.notify(evt)" />
  <path
     id="Selection #1"
     fill="none"
     stroke="black"
     stroke-width="1"
     d="M 25.00,6.00            C 24.00,12.36 21.92,15.99 17.00,20.24              7.98,28.04 6.07,22.50 6.00,33.00              6.00,33.00 6.00,63.00 6.00,63.00              17.61,59.00 13.35,49.08 11.42,40.00              10.33,34.84 11.08,29.33 17.99,29.55              21.13,29.65 23.15,32.73 24.84,35.00              28.03,39.26 32.26,47.12 38.04,47.84              44.73,48.68 49.27,42.38 48.18,37.00              46.08,26.63 24.09,24.47 30.69,13.12              33.51,8.28 38.46,10.25 43.00,11.21              51.57,13.03 59.41,15.91 64.00,6.00              64.00,6.00 25.00,6.00 25.00,6.00 Z"
     onclick="top.notify(evt)" />
  <path
     id="Selection"
     fill="none"
     stroke="black"
     stroke-width="1"
     d="M 6.00,6.00            C 6.00,6.00 6.00,22.00 6.00,22.00              15.85,21.10 21.46,15.77 23.00,6.00              23.00,6.00 6.00,6.00 6.00,6.00 Z"
     onclick="top.notify(evt)" />
</svg>
