<?xml version="1.0" encoding="UTF-8" standalone="no"?>
<svg
   xmlns:dc="http://purl.org/dc/elements/1.1/"
   xmlns:cc="http://creativecommons.org/ns#"
   xmlns:rdf="http://www.w3.org/1999/02/22-rdf-syntax-ns#"
   xmlns:svg="http://www.w3.org/2000/svg"
   xmlns="http://www.w3.org/2000/svg"
   xmlns:sodipodi="http://sodipodi.sourceforge.net/DTD/sodipodi-0.dtd"
   xmlns:inkscape="http://www.inkscape.org/namespaces/inkscape"
   width="2.41636in"
   height="2.39553in"
   viewBox="0 0 232 230"
   version="1.1"
   id="svg496"
   sodipodi:docname="acacia17-01.svg"
   inkscape:version="0.92.4 (5da689c313, 2019-01-14)">
  <metadata
     id="metadata502">
    <rdf:RDF>
      <cc:Work
         rdf:about="">
        <dc:format>image/svg+xml</dc:format>
        <dc:type
           rdf:resource="http://purl.org/dc/dcmitype/StillImage" />
      </cc:Work>
    </rdf:RDF>
  </metadata>
  <defs
     id="defs500" />
  <sodipodi:namedview
     pagecolor="#ffffff"
     bordercolor="#666666"
     borderopacity="1"
     objecttolerance="10"
     gridtolerance="10"
     guidetolerance="10"
     inkscape:pageopacity="0"
     inkscape:pageshadow="2"
     inkscape:window-width="1366"
     inkscape:window-height="659"
     id="namedview498"
     showgrid="false"
     inkscape:zoom="2.0567822"
     inkscape:cx="115.98528"
     inkscape:cy="114.98544"
     inkscape:window-x="0"
     inkscape:window-y="31"
     inkscape:window-maximized="1"
     inkscape:current-layer="svg496" />
  <path
     id="Selection #12"
     fill="none"
     stroke="black"
     stroke-width="1"
     d="M 177.00,177.00            C 177.00,185.19 175.85,194.63 183.10,200.36              187.66,203.97 196.76,205.81 201.99,209.64              203.59,210.80 206.78,213.43 206.38,215.69              205.68,219.62 194.56,217.53 192.00,216.84              192.00,216.84 184.00,214.38 184.00,214.38              173.32,212.26 164.24,216.39 163.00,228.00              163.00,228.00 229.00,228.00 229.00,228.00              229.00,228.00 229.00,163.00 229.00,163.00              220.53,163.49 215.23,168.40 214.34,177.00              213.80,182.23 216.52,187.07 217.84,192.00              218.60,194.81 220.50,204.37 216.69,205.66              214.32,206.47 212.01,203.60 210.79,201.98              205.98,195.60 205.43,189.27 202.92,185.00              197.28,175.42 186.64,175.27 177.00,177.00 Z"
     onclick="top.notify(evt)" />
  <path
     id="Selection #11"
     fill="none"
     stroke="black"
     stroke-width="1"
     d="M 133.00,123.00            C 133.00,123.00 146.00,136.04 146.00,136.04              146.00,136.04 165.00,152.40 165.00,152.40              165.00,152.40 172.00,153.00 172.00,153.00              172.00,153.00 206.00,153.00 206.00,153.00              202.22,147.72 197.49,143.78 193.17,139.00              189.57,135.02 181.71,125.33 177.00,123.60              175.06,122.88 172.09,123.00 170.00,123.00              170.00,123.00 133.00,123.00 133.00,123.00 Z"
     onclick="top.notify(evt)" />
  <path
     id="Selection #10"
     fill="none"
     stroke="black"
     stroke-width="1"
     d="M 124.00,134.00            C 124.00,134.00 124.00,171.00 124.00,171.00              124.01,172.88 123.95,175.23 124.60,177.00              126.29,181.59 137.91,191.68 142.00,195.28              146.08,198.88 148.43,201.73 153.00,205.00              153.00,205.00 153.00,185.00 153.00,185.00              153.00,185.00 153.98,170.00 153.98,170.00              153.75,161.98 149.30,159.42 144.01,154.00              137.28,147.10 132.02,139.74 124.00,134.00 Z"
     onclick="top.notify(evt)" />
  <path
     id="Selection #9"
     fill="none"
     stroke="black"
     stroke-width="1"
     d="M 134.00,108.00            C 134.00,108.00 172.00,108.00 172.00,108.00              182.39,107.93 183.19,103.00 190.01,96.00              195.33,90.55 201.60,85.15 206.00,78.88              206.00,78.88 179.00,78.88 179.00,78.88              179.00,78.88 166.00,78.88 166.00,78.88              166.00,78.88 156.00,86.42 156.00,86.42              156.00,86.42 134.00,108.00 134.00,108.00 Z"
     onclick="top.notify(evt)" />
  <path
     id="Selection #8"
     fill="none"
     stroke="black"
     stroke-width="1"
     d="M 107.00,134.00            C 107.00,134.00 89.00,153.00 89.00,153.00              89.00,153.00 78.95,165.00 78.95,165.00              78.95,165.00 78.95,184.00 78.95,184.00              78.95,184.00 78.95,205.00 78.95,205.00              84.28,201.22 88.22,196.49 93.00,192.17              100.33,185.54 107.93,181.64 108.00,171.00              108.00,171.00 108.00,147.00 108.00,147.00              108.00,142.72 108.60,138.03 107.00,134.00 Z"
     onclick="top.notify(evt)" />
  <path
     id="Selection #7"
     fill="none"
     stroke="black"
     stroke-width="1"
     d="M 163.00,4.00            C 164.78,14.89 172.34,19.45 183.00,17.68              183.00,17.68 192.00,15.04 192.00,15.04              194.86,14.21 205.58,11.54 206.38,16.27              206.77,18.58 203.62,21.03 201.99,22.20              196.30,26.29 188.51,27.35 184.04,30.65              175.48,36.94 177.00,45.72 177.00,55.00              186.25,55.42 195.89,57.04 202.03,47.96              205.37,43.03 205.98,36.53 210.79,30.02              211.86,28.56 214.35,25.38 216.43,25.73              220.56,26.43 218.54,37.39 217.84,40.00              216.82,43.79 214.51,48.41 214.22,52.00              213.48,61.35 219.93,68.15 229.00,69.00              229.00,69.00 229.00,4.00 229.00,4.00              229.00,4.00 163.00,4.00 163.00,4.00 Z"
     onclick="top.notify(evt)" />
  <path
     id="Selection #6"
     fill="none"
     stroke="black"
     stroke-width="1"
     d="M 3.00,163.00            C 3.00,163.00 3.00,228.00 3.00,228.00              3.00,228.00 69.00,228.00 69.00,228.00              67.12,216.54 59.03,212.19 48.00,214.38              48.00,214.38 41.00,216.56 41.00,216.56              38.36,217.33 26.36,219.85 25.62,215.69              25.22,213.43 28.41,210.80 30.01,209.64              35.24,205.81 44.34,203.97 48.90,200.36              56.15,194.63 55.00,185.19 55.00,177.00              45.51,175.75 35.96,174.91 29.70,184.02              26.99,187.96 25.51,196.24 21.21,201.98              20.00,203.61 17.68,206.47 15.31,205.66              11.50,204.37 13.40,194.81 14.16,192.00              15.19,188.16 17.27,183.83 17.66,180.00              18.63,170.50 12.34,163.54 3.00,163.00 Z"
     onclick="top.notify(evt)" />
  <path
     id="Selection #5"
     fill="none"
     stroke="black"
     stroke-width="1"
     d="M 152.00,27.00            C 152.00,27.00 133.00,45.00 133.00,45.00              126.92,51.08 124.06,52.15 124.00,61.00              124.00,61.00 124.00,98.00 124.00,98.00              131.34,92.74 136.68,85.36 143.00,79.00              148.02,73.95 153.68,69.57 153.98,62.00              153.98,62.00 153.00,47.00 153.00,47.00              152.94,41.72 153.79,31.51 152.00,27.00 Z"
     onclick="top.notify(evt)" />
  <path
     id="Selection #4"
     fill="none"
     stroke="black"
     stroke-width="1"
     d="M 26.00,153.00            C 26.00,153.00 61.00,153.00 61.00,153.00              61.00,153.00 67.00,152.40 67.00,152.40              67.00,152.40 87.00,135.09 87.00,135.09              87.00,135.09 99.00,123.00 99.00,123.00              99.00,123.00 61.00,123.00 61.00,123.00              59.12,123.01 56.77,122.95 55.00,123.60              50.22,125.36 41.54,135.90 37.83,140.00              33.65,144.62 29.71,147.81 26.00,153.00 Z"
     onclick="top.notify(evt)" />
  <path
     id="Selection #3"
     fill="none"
     stroke="black"
     stroke-width="1"
     d="M 26.00,78.88            C 30.26,84.95 35.92,89.73 40.96,95.00              48.65,103.04 49.08,107.98 61.00,108.00              61.00,108.00 98.00,108.00 98.00,108.00              98.00,108.00 76.00,86.42 76.00,86.42              76.00,86.42 66.00,78.88 66.00,78.88              66.00,78.88 55.00,78.88 55.00,78.88              55.00,78.88 26.00,78.88 26.00,78.88 Z"
     onclick="top.notify(evt)" />
  <path
     id="Selection #2"
     fill="none"
     stroke="black"
     stroke-width="1"
     d="M 79.00,27.00            C 79.00,27.00 79.00,45.00 79.00,45.00              79.00,45.00 78.00,61.00 78.00,61.00              78.17,70.40 84.89,74.65 90.96,81.00              97.06,87.37 100.46,92.60 108.00,98.00              108.00,98.00 108.00,61.00 108.00,61.00              107.94,51.78 104.29,50.29 98.00,44.00              93.01,39.01 84.61,31.01 79.00,27.00 Z"
     onclick="top.notify(evt)" />
  <path
     id="Selection #1"
     fill="none"
     stroke="black"
     stroke-width="1"
     d="M 27.00,16.00            C 35.90,27.30 48.61,22.95 55.32,36.00              57.62,40.48 59.59,51.36 56.15,55.57              51.78,60.90 37.70,57.49 33.01,54.06              21.37,45.55 25.69,33.35 15.00,28.00              15.18,31.86 15.75,36.26 16.76,40.00              16.76,40.00 19.62,49.00 19.62,49.00              21.25,57.18 17.98,64.57 11.00,69.12              8.34,70.86 6.03,71.36 3.00,72.00              3.00,72.00 3.00,160.00 3.00,160.00              6.13,160.49 8.28,160.89 11.00,162.70              23.79,171.21 19.86,180.26 16.75,192.00              15.75,195.80 15.18,200.08 15.00,204.00              24.41,199.11 23.25,186.37 31.09,179.33              36.01,174.91 51.21,170.17 56.26,176.31              59.56,180.33 57.69,190.67 55.60,195.00              48.71,209.32 32.99,205.32 27.00,216.00              31.04,215.91 35.06,215.43 39.00,214.50              39.00,214.50 49.00,211.52 49.00,211.52              56.88,209.86 64.50,213.30 68.87,220.01              70.62,222.71 71.27,224.93 72.00,228.00              72.00,228.00 160.00,228.00 160.00,228.00              160.73,224.93 161.38,222.71 163.13,220.01              167.50,213.30 175.12,209.86 183.00,211.52              183.00,211.52 193.00,214.50 193.00,214.50              196.94,215.43 200.96,215.91 205.00,216.00              199.60,206.64 185.61,208.01 178.79,198.96              175.17,194.16 171.49,181.48 175.74,176.16              179.42,171.83 191.40,173.69 196.00,176.16              209.76,182.90 205.54,195.12 216.11,204.00              218.84,190.02 205.18,179.91 216.11,167.02              217.53,165.49 219.33,163.81 221.00,162.70              223.72,160.89 225.87,160.49 229.00,160.00              229.00,160.00 229.00,72.00 229.00,72.00              226.19,71.42 223.46,70.86 221.00,69.28              219.33,68.20 217.52,66.50 216.11,64.98              205.15,52.06 218.79,41.75 216.11,28.00              205.26,36.60 209.94,49.85 195.00,56.24              190.86,57.98 180.07,59.36 176.43,56.24              170.89,51.55 175.10,36.91 179.34,32.09              187.30,23.05 197.07,26.06 205.00,16.00              199.70,16.02 197.22,16.13 192.00,17.48              192.00,17.48 182.00,20.62 182.00,20.62              174.58,22.01 167.34,18.05 163.25,11.99              161.33,9.15 160.77,7.25 160.00,4.00              160.00,4.00 80.00,4.00 80.00,4.00              77.99,4.00 74.35,3.74 72.72,4.99              71.37,6.03 70.08,9.99 68.74,11.96              66.22,15.67 62.27,18.64 58.00,20.01              47.52,23.36 44.95,16.05 27.00,16.00 Z            M 77.00,21.00            C 82.27,24.77 86.29,29.52 91.00,33.91              95.51,38.11 108.52,48.88 110.40,54.00              111.12,55.94 111.00,58.91 111.00,61.00              111.00,61.00 111.00,105.00 111.00,105.00              111.00,105.00 89.00,83.00 89.00,83.00              89.00,83.00 76.04,68.00 76.04,68.00              76.04,68.00 76.04,58.00 76.04,58.00              76.04,58.00 76.04,34.00 76.04,34.00              76.04,34.00 77.00,21.00 77.00,21.00 Z            M 155.90,21.00            C 155.90,21.00 155.90,58.00 155.90,58.00              155.90,58.00 155.90,68.00 155.90,68.00              155.90,68.00 144.96,81.00 144.96,81.00              144.96,81.00 121.00,105.00 121.00,105.00              121.00,105.00 121.00,61.00 121.00,61.00              121.00,58.91 120.88,55.94 121.60,54.00              123.51,48.81 137.37,37.22 142.00,32.91              146.61,28.62 150.23,23.73 155.90,21.00 Z            M 105.00,111.00            C 105.00,111.00 60.00,111.00 60.00,111.00              49.26,110.98 48.92,106.93 41.00,99.00              35.18,93.18 24.41,83.17 20.00,77.00              27.61,75.15 51.73,75.98 61.00,76.00              71.79,76.02 71.13,78.78 79.00,85.72              85.55,91.49 100.39,104.56 105.00,111.00 Z            M 211.00,77.00            C 211.00,77.00 200.00,90.00 200.00,90.00              200.00,90.00 186.01,104.00 186.01,104.00              186.01,104.00 178.83,110.40 178.83,110.40              178.83,110.40 172.00,111.00 172.00,111.00              172.00,111.00 127.00,111.00 127.00,111.00              131.47,104.76 146.64,91.10 153.00,85.58              160.89,78.73 160.34,76.02 171.00,76.00              179.58,75.98 204.25,75.08 211.00,77.00 Z            M 105.00,121.00            C 105.00,121.00 91.00,135.04 91.00,135.04              91.00,135.04 78.00,147.04 78.00,147.04              78.00,147.04 68.00,155.26 68.00,155.26              68.00,155.26 60.00,156.00 60.00,156.00              60.00,156.00 39.00,156.00 39.00,156.00              39.00,156.00 20.00,155.00 20.00,155.00              24.57,148.61 33.22,140.90 38.99,135.00              46.99,126.80 47.79,121.02 60.00,121.00              60.00,121.00 105.00,121.00 105.00,121.00 Z            M 212.00,155.00            C 212.00,155.00 192.00,156.00 192.00,156.00              192.00,156.00 172.00,156.00 172.00,156.00              172.00,156.00 164.00,155.26 164.00,155.26              164.00,155.26 154.00,147.04 154.00,147.04              154.00,147.04 141.00,135.04 141.00,135.04              141.00,135.04 127.00,121.00 127.00,121.00              127.00,121.00 172.00,121.00 172.00,121.00              183.95,121.02 184.14,125.93 192.01,134.00              197.92,140.05 207.37,148.53 212.00,155.00 Z            M 111.00,126.00            C 111.00,126.00 111.00,171.00 111.00,171.00              111.00,173.09 111.12,176.06 110.40,178.00              108.45,183.29 94.67,194.46 90.00,199.01              85.59,203.32 81.63,208.34 75.84,211.00              75.84,211.00 75.84,180.00 75.84,180.00              75.99,176.20 74.78,167.55 75.84,165.00              76.88,160.26 83.49,154.63 86.96,151.00              92.34,145.38 105.71,129.97 111.00,126.00 Z            M 122.00,127.00            C 122.00,127.00 142.04,148.00 142.04,148.00              142.04,148.00 155.90,164.00 155.90,164.00              155.90,164.00 155.90,172.00 155.90,172.00              155.90,172.00 155.90,211.00 155.90,211.00              150.39,208.35 146.35,203.33 142.00,199.00              137.36,194.38 123.47,183.10 121.60,178.00              120.95,176.23 121.01,173.88 121.00,172.00              121.00,172.00 121.00,149.00 121.00,149.00              121.00,143.59 120.22,131.49 122.00,127.00 Z"
     onclick="top.notify(evt)" />
  <path
     id="Selection"
     fill="none"
     stroke="black"
     stroke-width="1"
     d="M 3.00,4.00            C 3.00,4.00 3.00,69.00 3.00,69.00              11.58,68.19 17.99,61.93 17.74,53.00              17.62,48.91 15.25,44.05 14.16,40.00              13.34,36.95 11.70,27.94 15.03,25.96              18.46,23.93 23.56,33.61 24.68,36.00              26.48,39.86 27.47,44.57 29.85,47.96              36.20,57.01 45.63,55.43 55.00,55.00              55.00,46.05 56.16,36.73 47.96,30.65              43.56,27.38 35.70,26.29 30.01,22.20              28.38,21.03 25.23,18.58 25.62,16.27              26.42,11.54 37.14,14.21 40.00,15.04              40.00,15.04 49.00,17.68 49.00,17.68              59.66,19.45 67.22,14.89 69.00,4.00              69.00,4.00 3.00,4.00 3.00,4.00 Z"
     onclick="top.notify(evt)" />
</svg>
