<?xml version="1.0" encoding="UTF-8" standalone="no"?>
<svg
   xmlns:dc="http://purl.org/dc/elements/1.1/"
   xmlns:cc="http://creativecommons.org/ns#"
   xmlns:rdf="http://www.w3.org/1999/02/22-rdf-syntax-ns#"
   xmlns:svg="http://www.w3.org/2000/svg"
   xmlns="http://www.w3.org/2000/svg"
   xmlns:sodipodi="http://sodipodi.sourceforge.net/DTD/sodipodi-0.dtd"
   xmlns:inkscape="http://www.inkscape.org/namespaces/inkscape"
   width="4.43695in"
   height="4.39528in"
   viewBox="0 0 426 422"
   version="1.1"
   id="svg659"
   sodipodi:docname="acacia5-01.svg"
   inkscape:version="0.92.4 (5da689c313, 2019-01-14)">
  <metadata
     id="metadata665">
    <rdf:RDF>
      <cc:Work
         rdf:about="">
        <dc:format>image/svg+xml</dc:format>
        <dc:type
           rdf:resource="http://purl.org/dc/dcmitype/StillImage" />
      </cc:Work>
    </rdf:RDF>
  </metadata>
  <defs
     id="defs663" />
  <sodipodi:namedview
     pagecolor="#ffffff"
     bordercolor="#666666"
     borderopacity="1"
     objecttolerance="10"
     gridtolerance="10"
     guidetolerance="10"
     inkscape:pageopacity="0"
     inkscape:pageshadow="2"
     inkscape:window-width="1366"
     inkscape:window-height="659"
     id="namedview661"
     showgrid="false"
     inkscape:zoom="1.1209942"
     inkscape:cx="184.87355"
     inkscape:cy="210.97343"
     inkscape:window-x="0"
     inkscape:window-y="31"
     inkscape:window-maximized="1"
     inkscape:current-layer="svg659" />
  <path
     id="Selection #4"
     fill="none"
     stroke="black"
     stroke-width="1"
     d="M 4.00,5.00            C 4.00,5.00 4.00,417.00 4.00,417.00              4.00,417.00 422.00,417.00 422.00,417.00              422.00,417.00 422.00,5.00 422.00,5.00              422.00,5.00 4.00,5.00 4.00,5.00 Z            M 209.00,207.00            C 209.00,207.00 195.00,207.00 195.00,207.00              180.17,206.98 158.15,202.05 144.00,197.33              92.27,180.11 48.14,141.44 26.58,91.00              19.58,74.62 11.82,48.75 11.04,31.00              10.87,27.25 9.00,14.08 11.60,12.01              14.10,10.04 25.23,11.94 29.00,12.01              45.84,12.28 74.61,19.76 90.00,26.70              111.39,36.34 126.07,44.69 144.00,60.29              176.00,88.13 199.37,129.10 206.41,171.00              207.69,178.60 208.99,186.29 209.00,194.00              209.00,194.00 209.00,207.00 209.00,207.00 Z            M 217.00,208.00            C 217.00,208.00 217.00,193.00 217.00,193.00              217.02,179.81 221.04,161.65 224.98,149.00              235.61,114.78 254.83,83.92 282.00,60.29              299.93,44.69 314.61,36.34 336.00,26.70              351.39,19.76 380.16,12.28 397.00,12.01              400.77,11.94 411.90,10.04 414.40,12.01              417.11,14.17 415.08,26.18 414.99,30.00              414.56,46.36 406.77,73.85 400.28,89.00              377.41,142.40 330.92,183.63 275.00,199.57              262.96,203.00 244.39,206.94 232.00,207.00              224.94,207.03 224.19,206.71 217.00,208.00 Z            M 209.00,214.00            C 209.00,214.00 209.00,229.00 209.00,229.00              208.98,242.19 204.96,260.35 201.02,273.00              190.39,307.22 171.17,338.08 144.00,361.71              126.07,377.31 111.39,385.66 90.00,395.30              74.61,402.24 45.84,409.72 29.00,409.99              25.23,410.06 14.10,411.96 11.60,409.99              8.89,407.83 10.92,395.82 11.01,392.00              11.44,375.64 19.23,348.15 25.72,333.00              48.59,279.60 95.08,238.37 151.00,222.43              163.04,219.00 181.61,215.06 194.00,215.00              201.06,214.97 201.81,215.29 209.00,214.00 Z            M 217.00,215.00            C 217.00,215.00 231.00,215.00 231.00,215.00              243.02,215.02 258.29,218.18 270.00,221.13              326.53,235.33 376.47,277.32 399.42,331.00              406.42,347.38 414.18,373.25 414.96,391.00              415.13,394.75 417.00,407.92 414.40,409.99              411.90,411.96 400.77,410.06 397.00,409.99              380.16,409.72 351.39,402.24 336.00,395.30              314.61,385.66 299.93,377.31 282.00,361.71              250.00,333.87 226.63,292.90 219.59,251.00              218.31,243.40 217.01,235.71 217.00,228.00              217.00,228.00 217.00,215.00 217.00,215.00 Z"
     onclick="top.notify(evt)" />
  <path
     id="Selection #3"
     fill="none"
     stroke="black"
     stroke-width="1"
     d="M 221.00,219.00            C 221.00,233.47 223.12,247.97 226.63,262.00              247.81,346.72 323.78,406.00 411.00,406.00              411.00,302.96 323.15,219.00 221.00,219.00 Z"
     onclick="top.notify(evt)" />
  <path
     id="Selection #2"
     fill="none"
     stroke="black"
     stroke-width="1"
     d="M 221.00,203.00            C 323.14,203.00 411.00,119.03 411.00,16.00              323.78,16.00 247.81,75.28 226.63,160.00              223.12,174.03 221.00,188.53 221.00,203.00 Z"
     onclick="top.notify(evt)" />
  <path
     id="Selection #1"
     fill="none"
     stroke="black"
     stroke-width="1"
     d="M 15.00,406.00            C 102.22,406.00 178.19,346.72 199.37,262.00              202.88,247.97 205.00,233.47 205.00,219.00              102.86,219.00 15.00,302.97 15.00,406.00 Z"
     onclick="top.notify(evt)" />
  <path
     id="Selection"
     fill="none"
     stroke="black"
     stroke-width="1"
     d="M 15.00,16.00            C 15.00,119.16 102.70,203.00 205.00,203.00              205.00,188.56 202.86,174.01 199.37,160.00              178.29,75.29 102.13,16.00 15.00,16.00 Z"
     onclick="top.notify(evt)" />
</svg>
