<?xml version="1.0" encoding="UTF-8" standalone="no"?>
<svg
   xmlns:dc="http://purl.org/dc/elements/1.1/"
   xmlns:cc="http://creativecommons.org/ns#"
   xmlns:rdf="http://www.w3.org/1999/02/22-rdf-syntax-ns#"
   xmlns:svg="http://www.w3.org/2000/svg"
   xmlns="http://www.w3.org/2000/svg"
   xmlns:sodipodi="http://sodipodi.sourceforge.net/DTD/sodipodi-0.dtd"
   xmlns:inkscape="http://www.inkscape.org/namespaces/inkscape"
   width="2.41636in"
   height="2.3747in"
   viewBox="0 0 232 228"
   version="1.1"
   id="svg359"
   sodipodi:docname="acacia16-01.svg"
   inkscape:version="0.92.4 (5da689c313, 2019-01-14)">
  <metadata
     id="metadata365">
    <rdf:RDF>
      <cc:Work
         rdf:about="">
        <dc:format>image/svg+xml</dc:format>
        <dc:type
           rdf:resource="http://purl.org/dc/dcmitype/StillImage" />
      </cc:Work>
    </rdf:RDF>
  </metadata>
  <defs
     id="defs363" />
  <sodipodi:namedview
     pagecolor="#ffffff"
     bordercolor="#666666"
     borderopacity="1"
     objecttolerance="10"
     gridtolerance="10"
     guidetolerance="10"
     inkscape:pageopacity="0"
     inkscape:pageshadow="2"
     inkscape:window-width="1366"
     inkscape:window-height="659"
     id="namedview361"
     showgrid="false"
     inkscape:zoom="2.0748234"
     inkscape:cx="107.06885"
     inkscape:cy="113.9856"
     inkscape:window-x="0"
     inkscape:window-y="31"
     inkscape:window-maximized="1"
     inkscape:current-layer="svg359" />
  <path
     id="Selection #16"
     fill="none"
     stroke="black"
     stroke-width="1"
     d="M 214.00,226.00            C 214.00,226.00 229.00,226.00 229.00,226.00              229.00,226.00 229.00,211.00 229.00,211.00              219.49,211.53 214.99,216.69 214.00,226.00 Z"
     onclick="top.notify(evt)" />
  <path
     id="Selection #15"
     fill="none"
     stroke="black"
     stroke-width="1"
     d="M 202.00,226.00            C 202.00,226.00 211.00,226.00 211.00,226.00              213.35,215.71 217.75,209.05 229.00,208.00              229.00,208.00 229.00,199.00 229.00,199.00              211.97,200.39 203.44,208.87 202.00,226.00 Z"
     onclick="top.notify(evt)" />
  <path
     id="Selection #14"
     fill="none"
     stroke="black"
     stroke-width="1"
     d="M 228.00,154.00            C 225.37,157.71 216.08,168.48 215.64,172.00              214.62,180.13 224.53,186.03 220.00,197.00              220.00,197.00 228.01,195.26 228.01,195.26              228.01,195.26 229.00,188.00 229.00,188.00              229.00,188.00 229.00,166.00 229.00,166.00              229.00,166.00 228.00,154.00 228.00,154.00 Z" />
  <path
     id="Selection #13"
     fill="none"
     stroke="black"
     stroke-width="1"
     d="M 176.00,173.00            C 176.00,173.00 178.58,190.00 178.58,190.00              178.99,192.63 179.09,196.28 180.82,198.37              183.06,201.05 192.43,204.46 195.94,206.96              198.90,209.08 200.96,212.29 198.26,215.62              193.68,221.26 180.98,211.79 175.00,211.52              170.37,211.32 159.84,222.22 157.00,226.00              157.00,226.00 193.00,226.00 193.00,226.00              202.76,225.83 197.92,221.82 202.83,212.00              206.44,204.77 209.79,202.13 217.00,199.00              211.67,194.28 211.55,194.58 208.25,188.00              206.97,185.45 204.70,179.47 202.59,178.01              200.68,176.69 195.42,176.21 193.00,175.87              193.00,175.87 176.00,173.00 176.00,173.00 Z"
     onclick="top.notify(evt)" />
  <path
     id="Selection #12"
     fill="none"
     stroke="black"
     stroke-width="1"
     d="M 145.00,226.00            C 154.39,225.96 156.20,223.45 163.00,216.96              165.47,214.60 169.73,209.72 173.00,208.95              175.54,208.34 178.65,209.88 181.00,210.80              185.80,212.67 191.02,214.83 196.00,216.00              198.76,205.04 184.04,206.24 178.59,199.61              176.79,197.41 176.38,192.82 175.92,190.00              175.92,190.00 173.00,170.00 173.00,170.00              173.00,170.00 194.00,173.41 194.00,173.41              197.02,173.90 201.30,174.09 203.79,175.85              208.64,179.28 210.44,191.69 215.15,193.83              218.61,195.40 218.85,191.23 218.37,189.00              217.09,182.99 211.03,174.84 214.11,169.00              219.38,159.00 228.84,155.59 229.00,143.00              200.03,143.02 172.57,156.02 158.31,182.00              150.58,196.09 147.84,210.43 145.00,226.00 Z"
     onclick="top.notify(evt)" />
  <path
     id="Selection #11"
     fill="none"
     stroke="black"
     stroke-width="1"
     d="M 133.00,226.00            C 135.51,226.00 140.26,226.49 141.99,224.40              143.25,222.88 144.99,211.82 145.73,209.00              148.53,198.40 151.81,188.47 157.45,179.00              172.40,153.93 200.33,140.63 229.00,140.00              229.00,140.00 229.00,131.00 229.00,131.00              205.79,131.07 176.75,140.66 160.01,157.04              142.64,174.05 133.02,201.92 133.00,226.00 Z"
     onclick="top.notify(evt)" />
  <path
     id="Selection #10"
     fill="none"
     stroke="black"
     stroke-width="1"
     d="M 106.00,226.00            C 106.00,226.00 130.00,226.00 130.00,226.00              130.54,201.52 140.99,172.05 159.00,155.09              177.49,137.69 203.98,129.15 229.00,128.00              229.00,128.00 229.00,104.00 229.00,104.00              170.66,104.00 124.63,141.70 110.37,198.00              107.87,207.88 106.01,215.70 106.00,226.00 Z"
     onclick="top.notify(evt)" />
  <path
     id="Selection #9"
     fill="none"
     stroke="black"
     stroke-width="1"
     d="M 228.00,52.00            C 228.00,52.00 191.00,86.17 191.00,86.17              181.72,94.56 181.06,99.98 168.00,100.00              168.00,100.00 102.00,100.00 102.00,100.00              102.00,100.00 102.00,164.00 102.00,164.00              101.98,176.45 98.22,175.99 90.28,185.00              90.28,185.00 75.04,201.00 75.04,201.00              75.04,201.00 65.99,211.00 65.99,211.00              61.40,215.70 55.84,219.99 53.00,226.00              55.12,225.99 58.03,226.12 60.00,225.40              62.73,224.41 67.70,219.91 70.00,217.83              75.92,212.47 89.86,197.90 96.00,195.00              96.00,195.00 93.44,204.00 93.44,204.00              90.81,212.94 91.00,216.99 91.00,226.00              91.00,226.00 103.00,226.00 103.00,226.00              103.24,215.24 106.62,201.25 110.00,191.00              113.33,180.91 116.99,171.17 122.45,162.00              144.48,124.98 185.79,101.03 229.00,101.00              229.00,101.00 229.00,89.00 229.00,89.00              218.84,89.00 208.16,90.33 199.00,95.00              200.14,90.02 202.54,88.65 205.83,85.00              205.83,85.00 221.00,69.00 221.00,69.00              226.19,63.80 231.14,59.92 228.00,52.00 Z            M 159.00,110.00            C 159.00,110.00 132.09,131.28 132.09,131.28              132.09,131.28 111.00,156.00 111.00,156.00              111.00,156.00 111.00,109.04 111.00,109.04              111.00,109.04 125.00,109.04 125.00,109.04              125.00,109.04 137.00,110.00 137.00,110.00              137.00,110.00 159.00,110.00 159.00,110.00 Z"
     onclick="top.notify(evt)" />
  <path
     id="Selection #8"
     fill="none"
     stroke="black"
     stroke-width="1"
     d="M 114.00,112.00            C 114.00,112.00 114.00,132.00 114.00,132.00              114.00,132.00 113.00,149.00 113.00,149.00              113.00,149.00 122.29,138.00 122.29,138.00              130.84,128.17 139.26,121.23 150.00,114.00              143.95,111.60 121.60,112.00 114.00,112.00 Z" />
  <path
     id="Selection #7"
     fill="none"
     stroke="black"
     stroke-width="1"
     d="M 228.00,9.00            C 228.00,9.00 181.00,56.00 181.00,56.00              177.41,59.59 167.34,69.83 163.00,71.40              161.04,72.12 158.11,72.00 156.00,72.00              156.00,72.00 73.00,72.00 73.00,72.00              73.00,72.00 73.00,149.00 73.00,149.00              73.00,149.00 72.40,156.00 72.40,156.00              72.40,156.00 54.99,176.00 54.99,176.00              54.99,176.00 26.91,206.00 26.91,206.00              26.91,206.00 9.00,226.00 9.00,226.00              9.00,226.00 43.00,226.00 43.00,226.00              51.59,225.84 52.70,221.78 58.09,216.00              58.09,216.00 79.00,194.00 79.00,194.00              82.69,190.29 96.95,175.93 98.40,172.00              99.12,170.06 99.00,167.09 99.00,165.00              99.00,165.00 99.00,107.00 99.00,107.00              99.01,99.78 98.85,97.15 107.00,97.00              107.00,97.00 150.00,97.00 150.00,97.00              150.00,97.00 169.00,97.00 169.00,97.00              171.09,97.00 174.06,97.12 176.00,96.40              179.27,95.20 182.47,91.45 185.00,89.04              185.00,89.04 199.00,76.00 199.00,76.00              199.00,76.00 218.00,58.17 218.00,58.17              223.99,52.75 228.83,50.74 229.00,42.00              229.00,42.00 229.00,21.00 229.00,21.00              229.00,17.00 229.49,12.76 228.00,9.00 Z"
     onclick="top.notify(evt)" />
  <path
     id="Selection #6"
     fill="none"
     stroke="black"
     stroke-width="1"
     d="M 3.00,226.00            C 10.12,222.64 14.58,215.49 20.00,210.00              20.00,210.00 55.96,172.00 55.96,172.00              58.59,169.25 68.38,158.77 69.40,156.00              70.12,154.06 70.00,151.09 70.00,149.00              70.00,149.00 70.00,79.00 70.00,79.00              70.01,71.78 69.85,69.15 78.00,69.05              78.00,69.05 94.00,69.05 94.00,69.05              94.00,69.05 106.00,70.00 106.00,70.00              106.00,70.00 125.00,70.00 125.00,70.00              125.00,70.00 155.00,70.00 155.00,70.00              167.42,69.98 169.46,64.54 178.00,56.00              178.00,56.00 213.00,21.00 213.00,21.00              218.13,15.87 226.98,8.86 229.00,2.00              229.00,2.00 131.00,2.00 131.00,2.00              128.91,2.00 125.94,1.88 124.00,2.60              119.88,4.11 107.84,17.16 104.00,21.00              104.00,21.00 49.00,74.00 49.00,74.00              49.00,74.00 16.00,106.00 16.00,106.00              8.28,113.72 3.02,115.78 3.00,127.00              3.00,127.00 3.00,226.00 3.00,226.00 Z"
     onclick="top.notify(evt)" />
  <path
     id="Selection #5"
     fill="none"
     stroke="black"
     stroke-width="1"
     d="M 3.00,115.00            C 9.47,110.37 17.95,100.92 24.00,95.01              24.00,95.01 34.00,85.96 34.00,85.96              34.00,85.96 58.00,62.04 58.00,62.04              58.00,62.04 68.00,52.99 68.00,52.99              68.00,52.99 92.00,29.09 92.00,29.09              100.05,21.59 112.79,10.68 119.00,2.00              119.00,2.00 110.00,2.60 110.00,2.60              110.00,2.60 89.00,21.91 89.00,21.91              89.00,21.91 26.00,84.00 26.00,84.00              26.00,84.00 11.00,99.00 11.00,99.00              11.00,99.00 3.60,108.00 3.60,108.00              3.60,108.00 3.00,115.00 3.00,115.00 Z"
     onclick="top.notify(evt)" />
  <path
     id="Selection #4"
     fill="none"
     stroke="black"
     stroke-width="1"
     d="M 30.00,30.00            C 30.00,30.00 30.00,60.00 30.00,60.00              30.00,60.00 47.00,44.01 47.00,44.01              47.00,44.01 60.00,31.00 60.00,31.00              60.00,31.00 30.00,30.00 30.00,30.00 Z"
     onclick="top.notify(evt)" />
  <path
     id="Selection #3"
     fill="none"
     stroke="black"
     stroke-width="1"
     d="M 34.00,2.00            C 35.07,8.32 34.77,8.87 33.00,15.00              33.00,15.00 72.00,15.00 72.00,15.00              80.10,14.85 86.50,8.26 91.00,2.00              91.00,2.00 34.00,2.00 34.00,2.00 Z"
     onclick="top.notify(evt)" />
  <path
     id="Selection #2"
     fill="none"
     stroke="black"
     stroke-width="1"
     d="M 3.00,21.00            C 3.02,22.83 2.84,25.91 4.02,27.40              7.34,31.60 15.83,27.24 19.00,25.00              19.00,25.00 18.42,65.00 18.42,65.00              18.42,65.00 17.40,75.00 17.40,75.00              17.40,75.00 4.02,91.00 4.02,91.00              4.02,91.00 3.00,103.00 3.00,103.00              3.00,103.00 27.00,80.00 27.00,80.00              27.00,80.00 77.00,30.00 77.00,30.00              77.00,30.00 105.00,3.00 105.00,3.00              92.88,-1.81 88.65,11.05 79.00,16.49              75.87,18.25 73.44,17.99 70.00,18.00              58.71,18.02 39.29,17.16 29.00,19.00              29.00,19.00 31.00,2.00 31.00,2.00              29.02,2.01 25.32,1.74 23.73,2.99              21.35,4.88 22.62,8.55 17.79,13.96              13.18,19.11 9.40,19.79 3.00,21.00 Z            M 66.00,28.00            C 66.00,28.00 54.00,41.00 54.00,41.00              54.00,41.00 28.00,66.00 28.00,66.00              28.00,66.00 28.00,27.00 28.00,27.00              28.00,27.00 45.00,28.00 45.00,28.00              45.00,28.00 66.00,28.00 66.00,28.00 Z"
     onclick="top.notify(evt)" />
  <path
     id="Selection #1"
     fill="none"
     stroke="black"
     stroke-width="1"
     d="M 15.00,30.00            C 9.36,32.33 8.83,31.75 3.00,31.00              3.00,31.00 3.00,87.00 3.00,87.00              6.87,84.23 13.56,78.46 15.26,74.00              16.52,70.70 16.00,52.77 16.00,48.00              16.00,43.05 16.73,34.35 15.00,30.00 Z"
     onclick="top.notify(evt)" />
  <path
     id="Selection"
     fill="none"
     stroke="black"
     stroke-width="1"
     d="M 2.00,2.00            C 2.00,2.00 2.00,18.00 2.00,18.00              13.66,17.74 18.37,13.50 20.00,2.00              20.00,2.00 2.00,2.00 2.00,2.00 Z"
     onclick="top.notify(evt)" />
</svg>
