<?xml version="1.0" encoding="UTF-8" standalone="no"?>
<svg
   xmlns:dc="http://purl.org/dc/elements/1.1/"
   xmlns:cc="http://creativecommons.org/ns#"
   xmlns:rdf="http://www.w3.org/1999/02/22-rdf-syntax-ns#"
   xmlns:svg="http://www.w3.org/2000/svg"
   xmlns="http://www.w3.org/2000/svg"
   xmlns:sodipodi="http://sodipodi.sourceforge.net/DTD/sodipodi-0.dtd"
   xmlns:inkscape="http://www.inkscape.org/namespaces/inkscape"
   width="2.41636in"
   height="2.39553in"
   viewBox="0 0 232 230"
   version="1.1"
   id="svg1075"
   sodipodi:docname="acacia12-01.svg"
   inkscape:version="0.92.4 (5da689c313, 2019-01-14)">
  <metadata
     id="metadata1081">
    <rdf:RDF>
      <cc:Work
         rdf:about="">
        <dc:format>image/svg+xml</dc:format>
        <dc:type
           rdf:resource="http://purl.org/dc/dcmitype/StillImage" />
      </cc:Work>
    </rdf:RDF>
  </metadata>
  <defs
     id="defs1079" />
  <sodipodi:namedview
     pagecolor="#ffffff"
     bordercolor="#666666"
     borderopacity="1"
     objecttolerance="10"
     gridtolerance="10"
     guidetolerance="10"
     inkscape:pageopacity="0"
     inkscape:pageshadow="2"
     inkscape:window-width="1366"
     inkscape:window-height="659"
     id="namedview1077"
     showgrid="false"
     inkscape:zoom="2.0567822"
     inkscape:cx="100.67009"
     inkscape:cy="114.98544"
     inkscape:window-x="0"
     inkscape:window-y="31"
     inkscape:window-maximized="1"
     inkscape:current-layer="svg1075" />
  <path
     id="Selection #21"
     fill="none"
     stroke="black"
     stroke-width="1"
     d="M 229.00,213.00            C 219.72,216.63 218.39,217.31 215.00,227.00              215.00,227.00 230.00,227.00 230.00,227.00              230.00,227.00 229.00,213.00 229.00,213.00 Z"
     onclick="top.notify(evt)" />
  <path
     id="Selection #20"
     fill="none"
     stroke="black"
     stroke-width="1"
     d="M 219.00,151.00            C 219.00,151.00 210.00,149.00 210.00,149.00              210.00,167.47 213.32,170.88 221.24,187.00              223.37,191.34 226.77,197.35 222.57,201.57              217.95,206.21 213.01,202.48 210.36,198.00              210.36,198.00 199.22,170.00 199.22,170.00              197.57,166.86 194.18,161.35 191.00,159.74              186.52,157.48 186.10,162.89 181.90,163.98              179.78,164.52 173.49,163.32 170.05,164.74              162.91,167.68 164.92,177.45 167.00,183.00              167.00,183.00 159.00,186.00 159.00,186.00              164.63,197.88 183.38,202.25 195.00,206.34              199.24,207.84 207.05,211.13 205.34,216.98              203.78,222.34 198.57,223.10 194.00,221.56              194.00,221.56 171.00,211.09 171.00,211.09              162.25,207.94 159.01,208.00 150.00,208.00              150.00,208.00 152.00,217.00 152.00,217.00              146.13,219.68 144.10,221.25 141.00,227.00              141.00,227.00 213.00,227.00 213.00,227.00              214.73,217.87 220.69,211.99 230.00,211.00              230.00,211.00 230.00,140.00 230.00,140.00              223.71,142.14 221.67,145.14 219.00,151.00 Z"
     onclick="top.notify(evt)" />
  <path
     id="Selection #19"
     fill="none"
     stroke="black"
     stroke-width="1"
     d="M 2.00,218.00            C 2.00,218.00 2.00,227.00 2.00,227.00              2.00,227.00 13.00,227.00 13.00,227.00              10.28,221.05 8.75,218.78 2.00,218.00 Z"
     onclick="top.notify(evt)" />
  <path
     id="Selection #18"
     fill="none"
     stroke="black"
     stroke-width="1"
     d="M 2.00,195.00            C 2.00,195.00 2.00,206.00 2.00,206.00              2.00,206.00 14.00,210.00 14.00,210.00              14.00,210.00 17.00,198.00 17.00,198.00              17.00,198.00 2.00,195.00 2.00,195.00 Z"
     onclick="top.notify(evt)" />
  <path
     id="Selection #17"
     fill="none"
     stroke="black"
     stroke-width="1"
     d="M 50.00,161.00            C 33.78,178.06 24.21,203.51 24.00,227.00              24.00,227.00 36.00,227.00 36.00,227.00              36.01,212.82 39.95,198.39 46.86,186.00              46.86,186.00 59.00,167.00 59.00,167.00              59.00,167.00 50.00,161.00 50.00,161.00 Z"
     onclick="top.notify(evt)" />
  <path
     id="Selection #16"
     fill="none"
     stroke="black"
     stroke-width="1"
     d="M 67.00,176.00            C 54.62,190.41 47.42,207.90 47.00,227.00              47.00,227.00 87.00,227.00 87.00,227.00              86.99,210.15 79.75,187.44 67.00,176.00 Z" />
  <path
     id="Selection #15"
     fill="none"
     stroke="black"
     stroke-width="1"
     d="M 146.31,144.07            C 141.68,149.09 147.27,152.28 150.56,149.97              153.47,147.93 152.58,142.38 146.31,144.07 Z" />
  <path
     id="Selection #14"
     fill="none"
     stroke="black"
     stroke-width="1"
     d="M 156.00,95.00            C 156.00,95.00 150.89,111.00 150.89,111.00              150.89,111.00 148.40,119.40 148.40,119.40              148.40,119.40 142.00,121.00 142.00,121.00              142.00,121.00 122.00,121.00 122.00,121.00              122.00,121.00 122.00,139.00 122.00,139.00              122.00,139.00 120.40,147.26 120.40,147.26              120.40,147.26 111.00,150.00 111.00,150.00              111.00,150.00 95.00,155.00 95.00,155.00              95.00,155.00 108.74,177.00 108.74,177.00              117.37,193.73 120.50,208.42 122.00,227.00              122.00,227.00 136.79,226.40 136.79,226.40              136.79,226.40 149.00,216.00 149.00,216.00              145.91,206.34 149.38,203.93 159.00,205.44              172.08,207.50 178.62,212.61 190.00,217.55              192.95,218.67 200.45,222.11 202.38,217.55              205.11,211.44 194.99,208.67 191.00,207.33              181.94,204.30 162.07,198.13 157.96,189.01              155.90,184.43 161.12,183.48 162.40,179.82              162.91,177.60 161.58,174.89 162.40,171.00              165.33,159.98 174.27,160.85 183.00,162.00              187.98,152.87 192.07,156.03 197.47,163.00              203.55,170.84 207.21,183.61 210.70,193.00              211.90,196.25 215.01,203.37 219.71,200.77              223.73,198.52 221.17,192.05 219.71,189.00              215.24,179.44 209.37,169.56 207.46,159.00              205.68,149.11 207.74,145.07 218.00,148.00              218.00,148.00 228.98,136.51 228.98,136.51              228.98,136.51 230.00,121.00 230.00,121.00              213.17,120.99 194.03,116.17 179.00,108.63              179.00,108.63 156.00,95.00 156.00,95.00 Z            M 147.02,140.54            C 157.55,140.82 156.56,152.97 148.99,153.72              142.08,154.40 137.06,144.23 147.02,140.54 Z"
     onclick="top.notify(evt)" />
  <path
     id="Selection #13"
     fill="none"
     stroke="black"
     stroke-width="1"
     d="M 162.00,85.00            C 162.00,85.00 176.00,94.55 176.00,94.55              192.51,104.49 210.87,109.12 230.00,110.00              230.00,110.00 230.00,98.00 230.00,98.00              215.47,98.00 200.89,94.47 188.00,87.68              188.00,87.68 170.00,76.30 170.00,76.30              165.38,75.35 162.86,81.52 162.00,85.00 Z"
     onclick="top.notify(evt)" />
  <path
     id="Selection #12"
     fill="none"
     stroke="black"
     stroke-width="1"
     d="M 178.00,66.00            C 180.68,71.38 184.97,73.42 190.00,76.40              201.67,83.30 216.48,86.96 230.00,87.00              230.00,87.00 230.00,48.00 230.00,48.00              206.41,48.00 197.32,53.91 178.00,66.00 Z"
     onclick="top.notify(evt)" />
  <path
     id="Selection #11"
     fill="none"
     stroke="black"
     stroke-width="1"
     d="M 97.00,96.00            C 97.00,96.00 97.00,123.00 97.00,123.00              97.00,123.00 95.40,129.50 95.40,129.50              95.40,129.50 78.00,138.00 78.00,138.00              78.00,138.00 78.00,140.00 78.00,140.00              78.00,140.00 87.00,145.88 87.00,145.88              87.00,145.88 95.00,143.45 95.00,143.45              95.00,143.45 110.00,139.00 110.00,139.00              110.00,139.00 110.00,110.00 110.00,110.00              110.00,110.00 140.00,110.00 140.00,110.00              143.63,84.28 164.74,59.46 187.00,47.31              192.84,44.12 198.85,42.39 205.00,40.00              202.85,37.53 198.23,32.51 195.00,31.97              191.63,31.41 181.31,37.02 178.00,38.78              162.60,46.98 148.48,62.11 139.60,77.00              137.50,80.53 131.98,93.58 129.73,94.98              127.74,96.21 124.30,96.00 122.00,96.00              122.00,96.00 97.00,96.00 97.00,96.00 Z"
     onclick="top.notify(evt)" />
  <path
     id="Selection #10"
     fill="none"
     stroke="black"
     stroke-width="1"
     d="M 49.00,50.00            C 49.00,50.00 49.00,115.00 49.00,115.00              49.00,117.06 48.74,120.61 49.99,122.30              51.06,123.74 65.19,130.81 67.00,130.86              69.57,130.93 82.53,124.48 84.01,122.37              85.25,120.58 85.00,117.13 85.00,115.00              85.00,115.00 85.00,85.00 85.00,85.00              85.00,85.00 124.00,85.00 124.00,85.00              126.09,77.68 131.60,70.71 131.51,67.00              131.44,64.23 125.06,51.73 122.61,50.57              121.10,49.86 117.73,50.00 116.00,50.00              116.00,50.00 49.00,50.00 49.00,50.00 Z" />
  <path
     id="Selection #9"
     fill="none"
     stroke="black"
     stroke-width="1"
     d="M 24.00,50.00            C 24.00,50.00 24.00,139.00 24.00,139.00              50.99,142.81 78.21,165.80 89.68,190.00              96.29,203.94 97.06,212.28 99.00,227.00              99.00,227.00 110.00,227.00 110.00,227.00              110.00,195.11 95.02,166.62 70.00,147.01              61.97,140.72 48.06,132.82 38.00,131.00              38.00,131.00 38.00,50.00 38.00,50.00              38.00,50.00 24.00,50.00 24.00,50.00 Z"
     onclick="top.notify(evt)" />
  <path
     id="Selection #8"
     fill="none"
     stroke="black"
     stroke-width="1"
     d="M 2.00,50.00            C 2.00,50.00 2.00,175.00 2.00,175.00              2.00,175.00 3.02,182.40 3.02,182.40              3.02,182.40 9.00,184.29 9.00,184.29              9.00,184.29 21.00,187.00 21.00,187.00              27.93,170.91 31.48,168.49 40.00,155.00              40.00,155.00 23.00,149.81 23.00,149.81              23.00,149.81 14.60,147.40 14.60,147.40              14.60,147.40 13.00,139.00 13.00,139.00              13.00,139.00 13.00,50.00 13.00,50.00              13.00,50.00 2.00,50.00 2.00,50.00 Z"
     onclick="top.notify(evt)" />
  <path
     id="Selection #7"
     fill="none"
     stroke="black"
     stroke-width="1"
     d="M 2.00,25.00            C 2.00,25.00 2.00,38.00 2.00,38.00              2.00,38.00 122.00,38.00 122.00,38.00              122.00,38.00 129.73,39.02 129.73,39.02              129.73,39.02 139.00,57.00 139.00,57.00              139.00,57.00 141.00,57.00 141.00,57.00              141.00,57.00 146.68,48.00 146.68,48.00              146.68,48.00 144.45,40.00 144.45,40.00              144.45,40.00 140.00,25.00 140.00,25.00              140.00,25.00 2.00,25.00 2.00,25.00 Z"
     onclick="top.notify(evt)" />
  <path
     id="Selection #6"
     fill="none"
     stroke="black"
     stroke-width="1"
     d="M 219.00,3.00            C 221.33,9.48 222.78,12.16 230.00,13.00              230.00,13.00 230.00,3.00 230.00,3.00              230.00,3.00 219.00,3.00 219.00,3.00 Z"
     onclick="top.notify(evt)" />
  <path
     id="Selection #5"
     fill="none"
     stroke="black"
     stroke-width="1"
     d="M 211.00,3.00            C 211.63,14.32 218.91,20.99 230.00,22.00              230.00,22.00 230.00,16.00 230.00,16.00              222.51,14.12 218.57,10.72 217.00,3.00              217.00,3.00 211.00,3.00 211.00,3.00 Z"
     onclick="top.notify(evt)" />
  <path
     id="Selection #4"
     fill="none"
     stroke="black"
     stroke-width="1"
     d="M 196.00,3.00            C 198.58,22.11 209.83,35.56 230.00,36.00              230.00,33.61 230.43,27.53 229.01,25.73              227.48,23.80 224.56,24.24 220.00,21.52              213.00,17.35 209.24,10.90 208.00,3.00              208.00,3.00 196.00,3.00 196.00,3.00 Z"
     onclick="top.notify(evt)" />
  <path
     id="Selection #3"
     fill="none"
     stroke="black"
     stroke-width="1"
     d="M 16.00,3.00            C 16.00,3.00 16.00,16.00 16.00,16.00              16.00,16.00 2.00,16.00 2.00,16.00              2.00,16.00 2.00,22.00 2.00,22.00              2.00,22.00 142.00,22.00 142.00,22.00              142.00,22.00 146.60,39.00 146.60,39.00              146.60,39.00 149.36,48.00 149.36,48.00              149.36,48.00 141.00,62.00 141.00,62.00              141.00,62.00 139.00,62.00 139.00,62.00              139.00,62.00 132.31,48.00 132.31,48.00              132.31,48.00 128.59,42.02 128.59,42.02              128.59,42.02 121.00,41.00 121.00,41.00              121.00,41.00 2.00,41.00 2.00,41.00              2.00,41.00 2.00,47.00 2.00,47.00              2.00,47.00 16.00,47.00 16.00,47.00              16.00,47.00 16.00,146.00 16.00,146.00              16.00,146.00 44.00,154.00 44.00,154.00              33.40,167.06 28.23,175.43 22.00,191.00              14.26,187.92 10.40,186.68 2.00,186.00              2.00,186.00 2.00,192.00 2.00,192.00              9.79,192.36 13.02,194.04 20.00,197.00              20.00,197.00 16.00,215.00 16.00,215.00              10.90,210.86 8.62,209.37 2.00,209.00              2.00,209.00 2.00,215.00 2.00,215.00              9.40,216.41 12.88,219.81 15.00,227.00              15.00,227.00 21.00,227.00 21.00,227.00              23.68,206.68 25.74,191.84 37.34,174.00              39.54,170.63 45.46,161.36 49.01,160.10              52.59,158.85 59.37,165.09 63.00,167.00              63.00,167.00 52.36,181.00 52.36,181.00              43.23,194.75 39.00,210.63 39.00,227.00              39.00,227.00 44.00,227.00 44.00,227.00              44.00,227.00 45.81,214.00 45.81,214.00              49.09,197.45 56.20,184.07 68.00,172.00              68.00,172.00 80.56,191.00 80.56,191.00              86.11,200.96 89.90,215.60 90.00,227.00              90.00,227.00 96.00,227.00 96.00,227.00              95.62,184.94 62.78,146.89 21.00,141.00              21.00,141.00 21.00,47.00 21.00,47.00              21.00,47.00 41.00,47.00 41.00,47.00              41.00,47.00 41.00,121.00 41.00,121.00              41.00,122.70 40.86,126.11 41.57,127.59              42.81,130.14 51.97,133.20 55.00,134.86              63.24,139.39 71.10,144.67 78.00,151.09              99.00,170.62 112.91,197.97 113.00,227.00              113.00,227.00 119.00,227.00 119.00,227.00              118.95,209.80 113.50,189.99 105.14,175.00              105.14,175.00 91.00,154.00 91.00,154.00              91.00,154.00 119.00,146.00 119.00,146.00              119.00,146.00 119.00,118.00 119.00,118.00              119.00,118.00 147.00,118.00 147.00,118.00              147.00,118.00 155.00,91.00 155.00,91.00              155.00,91.00 177.00,105.11 177.00,105.11              193.34,113.78 211.60,118.00 230.00,118.00              230.00,118.00 230.00,112.00 230.00,112.00              209.14,112.00 190.62,106.65 173.00,95.30              162.73,88.69 156.34,85.71 163.52,77.02              164.64,75.66 166.22,73.88 168.01,73.45              170.62,72.83 173.08,75.14 175.00,76.58              179.19,79.72 183.36,82.65 188.00,85.11              201.79,92.43 214.58,95.00 230.00,95.00              230.00,95.00 230.00,90.00 230.00,90.00              211.20,88.48 185.69,81.97 174.00,66.00              174.00,66.00 189.00,56.31 189.00,56.31              202.32,48.99 214.70,45.05 230.00,45.00              230.00,45.00 230.00,39.00 230.00,39.00              210.62,37.37 194.44,23.02 194.00,3.00              194.00,3.00 188.00,3.00 188.00,3.00              188.08,11.37 189.50,15.46 193.00,23.00              177.61,27.16 167.83,35.89 155.00,44.00              155.00,44.00 147.00,16.00 147.00,16.00              147.00,16.00 46.00,16.00 46.00,16.00              46.00,16.00 46.00,3.00 46.00,3.00              46.00,3.00 41.00,3.00 41.00,3.00              41.00,3.00 41.00,16.00 41.00,16.00              41.00,16.00 21.00,16.00 21.00,16.00              21.00,16.00 21.00,3.00 21.00,3.00              21.00,3.00 16.00,3.00 16.00,3.00 Z            M 211.00,41.00            C 203.65,43.75 195.98,45.60 189.00,49.32              164.76,62.25 147.44,85.07 142.00,112.00              142.00,112.00 113.00,112.00 113.00,112.00              113.00,112.00 113.00,141.00 113.00,141.00              106.24,142.36 101.37,143.72 95.00,146.43              92.53,147.48 88.66,149.76 86.00,149.19              82.66,148.47 75.22,140.85 73.00,138.00              79.46,134.32 86.64,130.33 94.00,129.00              94.00,129.00 94.00,94.00 94.00,94.00              94.00,94.00 120.00,94.00 120.00,94.00              122.28,94.00 125.76,94.21 127.73,92.98              130.13,91.47 131.16,87.53 132.31,85.00              134.36,80.48 137.35,75.15 140.08,71.00              149.96,55.96 163.93,42.93 180.00,34.76              183.40,33.03 192.43,28.01 196.00,28.81              198.60,29.39 208.93,38.55 211.00,41.00 Z            M 88.00,88.00            C 88.00,88.00 88.00,125.00 88.00,125.00              88.00,125.00 67.00,133.86 67.00,133.86              64.44,133.78 60.39,131.03 58.00,129.78              47.73,124.45 46.02,126.85 46.00,116.00              46.00,116.00 46.00,72.00 46.00,72.00              46.00,64.62 46.67,53.88 45.00,47.00              45.00,47.00 117.00,47.00 117.00,47.00              126.68,47.02 125.43,47.69 131.26,59.00              132.56,61.53 135.09,65.15 134.77,68.00              134.51,70.27 131.03,75.63 129.78,78.00              125.18,86.74 126.52,87.94 118.00,88.00              118.00,88.00 88.00,88.00 88.00,88.00 Z"
     onclick="top.notify(evt)" />
  <path
     id="Selection #2"
     fill="none"
     stroke="black"
     stroke-width="1"
     d="M 49.00,3.00            C 49.00,3.00 49.00,14.00 49.00,14.00              49.00,14.00 140.00,14.00 140.00,14.00              140.00,14.00 148.41,15.60 148.41,15.60              148.41,15.60 151.01,24.00 151.01,24.00              151.01,24.00 156.00,40.00 156.00,40.00              163.50,36.63 175.08,25.97 189.00,22.00              189.00,22.00 185.00,3.00 185.00,3.00              185.00,3.00 49.00,3.00 49.00,3.00 Z"
     onclick="top.notify(evt)" />
  <path
     id="Selection #1"
     fill="none"
     stroke="black"
     stroke-width="1"
     d="M 24.00,3.00            C 24.00,3.00 24.00,14.00 24.00,14.00              24.00,14.00 38.00,14.00 38.00,14.00              38.00,14.00 38.00,3.00 38.00,3.00              38.00,3.00 24.00,3.00 24.00,3.00 Z"
     onclick="top.notify(evt)" />
  <path
     id="Selection"
     fill="none"
     stroke="black"
     stroke-width="1"
     d="M 2.00,3.00            C 2.00,3.00 2.00,14.00 2.00,14.00              2.00,14.00 13.00,14.00 13.00,14.00              13.00,14.00 13.00,3.00 13.00,3.00              13.00,3.00 2.00,3.00 2.00,3.00 Z"
     onclick="top.notify(evt)" />
</svg>
