<?xml version="1.0" encoding="UTF-8" standalone="no"?>
<svg
   xmlns:dc="http://purl.org/dc/elements/1.1/"
   xmlns:cc="http://creativecommons.org/ns#"
   xmlns:rdf="http://www.w3.org/1999/02/22-rdf-syntax-ns#"
   xmlns:svg="http://www.w3.org/2000/svg"
   xmlns="http://www.w3.org/2000/svg"
   xmlns:sodipodi="http://sodipodi.sourceforge.net/DTD/sodipodi-0.dtd"
   xmlns:inkscape="http://www.inkscape.org/namespaces/inkscape"
   width="2.41636in"
   height="2.39553in"
   viewBox="0 0 232 230"
   version="1.1"
   id="svg117"
   sodipodi:docname="acacia14-01.svg"
   inkscape:version="0.92.4 (5da689c313, 2019-01-14)">
  <metadata
     id="metadata123">
    <rdf:RDF>
      <cc:Work
         rdf:about="">
        <dc:format>image/svg+xml</dc:format>
        <dc:type
           rdf:resource="http://purl.org/dc/dcmitype/StillImage" />
      </cc:Work>
    </rdf:RDF>
  </metadata>
  <defs
     id="defs121" />
  <sodipodi:namedview
     pagecolor="#ffffff"
     bordercolor="#666666"
     borderopacity="1"
     objecttolerance="10"
     gridtolerance="10"
     guidetolerance="10"
     inkscape:pageopacity="0"
     inkscape:pageshadow="2"
     inkscape:window-width="1366"
     inkscape:window-height="659"
     id="namedview119"
     showgrid="false"
     inkscape:zoom="2.0567822"
     inkscape:cx="127.89709"
     inkscape:cy="114.98544"
     inkscape:window-x="0"
     inkscape:window-y="31"
     inkscape:window-maximized="1"
     inkscape:current-layer="svg117" />
  <path
     id="Selection #5"
     fill="none"
     stroke="black"
     stroke-width="1"
     d="M 229.00,16.00            C 196.60,56.59 188.32,109.57 202.43,159.00              206.45,173.08 213.16,189.30 220.43,202.00              220.43,202.00 229.00,216.00 229.00,216.00              229.00,216.00 230.00,201.00 230.00,201.00              230.00,201.00 230.00,171.00 230.00,171.00              230.00,171.00 230.00,68.00 230.00,68.00              230.00,68.00 230.00,33.00 230.00,33.00              230.00,33.00 229.00,16.00 229.00,16.00 Z"
     onclick="top.notify(evt)" />
  <path
     id="Selection #4"
     fill="none"
     stroke="black"
     stroke-width="1"
     d="M 34.00,33.00            C 34.00,33.00 47.31,63.00 47.31,63.00              57.45,91.46 61.14,117.22 54.58,147.00              52.24,157.60 48.22,169.14 43.69,179.00              43.69,179.00 35.00,197.00 35.00,197.00              35.00,197.00 51.00,188.43 51.00,188.43              83.56,174.50 126.93,171.71 161.00,181.43              169.04,183.72 179.56,187.55 187.00,191.27              187.00,191.27 202.00,199.00 202.00,199.00              202.00,199.00 192.42,177.00 192.42,177.00              180.46,145.30 176.07,112.32 183.42,79.00              188.54,55.82 197.48,41.83 200.00,33.00              191.78,35.35 177.58,44.66 154.00,50.53              109.64,61.57 73.84,54.05 34.00,33.00 Z"
     onclick="top.notify(evt)" />
  <path
     id="Selection #3"
     fill="none"
     stroke="black"
     stroke-width="1"
     d="M 14.00,228.00            C 14.00,228.00 220.00,228.00 220.00,228.00              212.90,219.95 198.69,211.60 189.00,206.75              149.23,186.87 103.49,188.16 62.00,202.00              49.33,206.23 22.34,218.15 14.00,228.00 Z"
     onclick="top.notify(evt)" />
  <path
     id="Selection #2"
     fill="none"
     stroke="black"
     stroke-width="1"
     d="M 15.00,4.00            C 22.58,12.45 45.04,23.80 56.00,28.20              111.02,50.28 171.37,38.72 219.00,5.00              219.00,5.00 199.00,4.00 199.00,4.00              199.00,4.00 158.00,4.00 158.00,4.00              158.00,4.00 15.00,4.00 15.00,4.00 Z"
     onclick="top.notify(evt)" />
  <path
     id="Selection #1"
     fill="none"
     stroke="black"
     stroke-width="1"
     d="M 3.00,4.00            C 3.03,6.44 2.92,8.68 3.85,11.00              3.85,11.00 22.74,40.00 22.74,40.00              34.08,61.97 42.70,86.98 43.00,112.00              43.32,139.90 38.27,162.98 25.75,188.00              21.83,195.84 17.36,202.98 12.11,210.00              6.72,217.20 3.12,218.66 3.00,228.00              12.34,227.88 13.51,224.35 21.00,219.35              28.01,214.68 33.57,211.96 41.00,208.25              61.46,198.02 92.05,189.27 115.00,189.00              142.99,188.68 163.60,191.55 189.00,204.25              199.05,209.27 202.92,211.55 212.00,218.37              218.82,223.50 221.15,227.72 230.00,228.00              229.90,217.72 226.52,216.41 221.45,208.00              221.45,208.00 210.26,187.00 210.26,187.00              201.06,167.99 193.25,138.15 193.00,117.00              192.71,91.90 197.26,67.71 208.26,45.00              212.60,36.04 216.51,30.19 222.00,22.00              227.27,14.15 229.90,13.73 230.00,4.00              221.29,4.11 220.08,6.95 213.00,11.67              206.90,15.74 200.55,19.45 194.00,22.75              174.10,32.77 146.42,41.73 124.00,42.00              95.53,42.33 75.28,39.76 49.00,27.69              40.45,23.77 31.86,19.08 24.00,13.92              15.59,8.41 13.52,4.10 3.00,4.00 Z            M 207.00,26.00            C 205.34,31.69 201.78,36.61 199.31,42.00              194.32,52.86 189.03,66.36 186.42,78.00              184.34,87.29 182.20,101.57 182.02,111.00              181.92,115.89 182.41,116.68 182.83,121.00              184.57,138.98 186.58,151.67 192.35,169.00              192.35,169.00 207.00,204.00 207.00,204.00              207.00,204.00 206.00,205.00 206.00,205.00              206.00,205.00 189.00,195.31 189.00,195.31              182.05,191.54 174.48,188.64 167.00,186.08              135.36,175.23 99.94,176.40 68.00,185.15              61.49,186.94 48.82,192.12 43.00,195.43              38.09,198.22 33.20,202.52 28.00,204.00              29.43,198.16 33.79,192.37 36.69,187.00              40.73,179.54 46.09,167.09 48.57,159.00              57.99,128.20 56.91,98.39 46.31,68.00              41.42,54.00 34.87,42.01 28.00,29.00              33.68,28.16 36.17,31.07 41.00,33.69              41.00,33.69 59.00,42.00 59.00,42.00              77.68,49.45 97.91,53.23 118.00,53.00              139.11,52.75 163.67,45.84 183.00,37.57              183.00,37.57 207.00,26.00 207.00,26.00 Z"
     onclick="top.notify(evt)" />
  <path
     id="Selection"
     fill="none"
     stroke="black"
     stroke-width="1"
     d="M 3.00,15.00            C 3.00,15.00 3.00,217.00 3.00,217.00              13.30,208.42 25.59,184.85 30.42,172.00              45.81,131.12 42.72,84.94 23.25,46.00              18.28,36.07 10.77,22.83 3.00,15.00 Z"
     onclick="top.notify(evt)" />
</svg>
