<?xml version="1.0" encoding="UTF-8" standalone="no"?>
<!DOCTYPE svg PUBLIC "-//W3C//DTD SVG 20010904//EN"
              "http://www.w3.org/TR/2001/REC-SVG-20010904/DTD/svg10.dtd">

<svg xmlns="http://www.w3.org/2000/svg"
     width="4.41728in" height="4.39645in"
     viewBox="0 0 424 422">
  <path id="Selection #27"
        fill="none" stroke="black" stroke-width="1"
        d="M 420.00,242.00
           C 410.89,281.96 375.63,308.65 336.00,314.00
             336.00,314.00 336.00,316.00 336.00,316.00
             342.88,316.58 349.48,318.82 356.00,321.00
             388.33,331.79 412.25,354.04 420.00,388.00
             421.60,383.97 421.00,379.28 421.00,375.00
             421.00,375.00 421.00,350.00 421.00,350.00
             421.00,350.00 421.00,275.00 421.00,275.00
             421.00,268.44 421.89,246.76 420.00,242.00 Z" />
  <path id="Selection #26"
        fill="none" stroke="black" stroke-width="1"
        d="M 320.00,318.00
           C 320.00,337.78 320.58,353.23 330.87,371.00
             344.33,394.24 371.16,405.19 396.00,411.37
             396.00,411.37 420.00,416.00 420.00,416.00
             420.00,393.91 411.66,367.60 396.83,351.00
             379.56,331.66 345.80,318.56 320.00,318.00 Z" />
  <path id="Selection #25"
        fill="none" stroke="black" stroke-width="1"
        d="M 317.00,348.00
           C 313.97,367.70 300.31,386.28 284.00,397.25
             279.63,400.19 268.08,405.82 263.00,408.00
             255.14,411.37 244.50,415.29 236.00,416.00
             236.00,416.00 252.00,417.00 252.00,417.00
             252.00,417.00 285.00,417.00 285.00,417.00
             285.00,417.00 399.00,417.00 399.00,417.00
             399.00,417.00 379.00,410.94 379.00,410.94
             360.32,403.91 342.90,394.32 330.76,378.00
             320.84,364.66 319.97,353.77 317.00,348.00 Z" />
  <path id="Selection #24"
        fill="none" stroke="black" stroke-width="1"
        d="M 320.00,312.00
           C 345.80,311.44 379.56,298.34 396.83,279.00
             411.59,262.47 420.00,236.00 420.00,214.00
             412.99,214.57 398.00,217.99 391.00,220.00
             364.07,227.73 339.70,239.19 327.12,266.00
             320.32,280.48 320.00,296.39 320.00,312.00 Z" />
  <path id="Selection #23"
        fill="none" stroke="black" stroke-width="1"
        d="M 215.00,416.00
           C 215.00,416.00 239.00,411.37 239.00,411.37
             267.11,404.38 295.01,391.92 307.69,364.00
             314.83,348.27 315.00,334.71 315.00,318.00
             288.96,318.57 255.63,331.45 238.17,351.00
             223.34,367.60 215.00,393.91 215.00,416.00 Z" />
  <path id="Selection #22"
        fill="none" stroke="black" stroke-width="1"
        d="M 420.00,34.00
           C 419.11,39.79 417.35,43.65 415.20,49.00
             404.03,76.82 380.21,94.34 352.00,102.42
             346.68,103.95 341.54,105.53 336.00,106.00
             336.00,106.00 336.00,108.00 336.00,108.00
             375.63,113.35 410.89,140.04 420.00,180.00
             421.60,175.97 421.00,171.28 421.00,167.00
             421.00,167.00 421.00,142.00 421.00,142.00
             421.00,142.00 421.00,67.00 421.00,67.00
             421.00,60.44 421.89,38.76 420.00,34.00 Z" />
  <path id="Selection #21"
        fill="none" stroke="black" stroke-width="1"
        d="M 320.00,110.00
           C 320.00,125.61 320.32,141.52 327.12,156.00
             339.70,182.81 364.07,194.27 391.00,202.00
             398.00,204.01 412.99,207.43 420.00,208.00
             420.00,186.00 411.59,159.53 396.83,143.00
             379.56,123.66 345.80,110.56 320.00,110.00 Z" />
  <path id="Selection #20"
        fill="none" stroke="black" stroke-width="1"
        d="M 317.00,140.00
           C 311.64,174.81 279.59,196.41 248.00,205.42
             242.06,207.12 233.03,209.49 227.00,210.00
             227.00,210.00 227.00,212.00 227.00,212.00
             234.39,212.60 245.87,215.64 253.00,218.00
             284.64,228.46 310.10,247.80 317.00,282.00
             319.97,276.23 320.84,265.34 330.76,252.00
             334.33,247.19 343.19,238.33 348.00,234.76
             361.75,224.54 390.81,213.41 408.00,212.00
             408.00,212.00 408.00,210.00 408.00,210.00
             390.81,208.59 361.75,197.46 348.00,187.24
             342.12,182.87 335.13,175.88 330.76,170.00
             320.84,156.66 319.97,145.77 317.00,140.00 Z" />
  <path id="Selection #19"
        fill="none" stroke="black" stroke-width="1"
        d="M 215.00,214.00
           C 215.00,236.09 223.34,262.40 238.17,279.00
             255.49,298.40 289.13,311.43 315.00,312.00
             315.00,295.29 314.83,281.72 307.69,266.00
             295.01,238.08 267.09,225.62 239.00,218.63
             239.00,218.63 215.00,214.00 215.00,214.00 Z" />
  <path id="Selection #18"
        fill="none" stroke="black" stroke-width="1"
        d="M 211.00,234.00
           C 204.80,277.93 167.64,308.25 125.00,314.00
             125.00,314.00 125.00,316.00 125.00,316.00
             132.29,316.61 141.10,319.43 148.00,321.95
             181.25,334.11 205.94,360.11 211.00,396.00
             211.00,396.00 213.00,396.00 213.00,396.00
             218.06,360.15 242.79,334.09 276.00,321.95
             282.90,319.43 291.71,316.61 299.00,316.00
             299.00,316.00 299.00,314.00 299.00,314.00
             256.36,308.25 219.20,277.93 213.00,234.00
             213.00,234.00 211.00,234.00 211.00,234.00 Z" />
  <path id="Selection #17"
        fill="none" stroke="black" stroke-width="1"
        d="M 109.00,318.00
           C 109.00,334.71 109.17,348.27 116.31,364.00
             128.99,391.92 156.89,404.38 185.00,411.37
             185.00,411.37 209.00,416.00 209.00,416.00
             209.00,393.91 200.66,367.60 185.83,351.00
             168.37,331.45 135.04,318.57 109.00,318.00 Z" />
  <path id="Selection #16"
        fill="none" stroke="black" stroke-width="1"
        d="M 106.00,348.00
           C 103.38,366.60 90.12,385.27 75.00,395.96
             69.74,399.67 58.11,405.38 52.00,408.00
             44.14,411.37 33.50,415.29 25.00,416.00
             25.00,416.00 41.00,417.00 41.00,417.00
             41.00,417.00 74.00,417.00 74.00,417.00
             74.00,417.00 188.00,417.00 188.00,417.00
             188.00,417.00 168.00,410.94 168.00,410.94
             148.62,403.65 131.61,394.06 119.16,377.00
             109.83,364.21 109.51,354.72 106.00,348.00 Z" />
  <path id="Selection #15"
        fill="none" stroke="black" stroke-width="1"
        d="M 320.00,104.00
           C 328.48,103.92 336.81,101.93 345.00,99.87
             375.22,92.28 397.50,78.28 410.69,49.00
             414.87,39.73 417.83,27.07 419.41,17.00
             419.41,17.00 421.00,6.00 421.00,6.00
             414.44,6.30 402.62,8.98 396.00,10.63
             371.11,16.82 344.37,27.69 330.87,51.00
             320.58,68.77 320.00,84.22 320.00,104.00 Z" />
  <path id="Selection #14"
        fill="none" stroke="black" stroke-width="1"
        d="M 215.00,208.00
           C 222.01,207.43 237.00,204.01 244.00,202.00
             272.05,193.95 297.15,181.46 309.13,153.00
             314.85,139.39 315.00,124.46 315.00,110.00
             289.13,110.57 255.49,123.60 238.17,143.00
             223.34,159.60 215.00,185.91 215.00,208.00 Z" />
  <path id="Selection #13"
        fill="none" stroke="black" stroke-width="1"
        d="M 109.00,312.00
           C 134.87,311.43 168.51,298.40 185.83,279.00
             200.66,262.40 209.00,236.09 209.00,214.00
             209.00,214.00 185.00,218.63 185.00,218.63
             157.03,225.59 128.92,238.24 116.31,266.00
             109.17,281.72 109.00,295.29 109.00,312.00 Z" />
  <path id="Selection #12"
        fill="none" stroke="black" stroke-width="1"
        d="M 4.00,416.00
           C 4.00,416.00 28.00,411.37 28.00,411.37
             53.22,405.10 80.46,393.96 93.69,370.00
             103.52,352.20 104.00,337.61 104.00,318.00
             78.20,318.56 44.44,331.66 27.17,351.00
             12.34,367.60 4.00,393.91 4.00,416.00 Z" />
  <path id="Selection #11"
        fill="none" stroke="black" stroke-width="1"
        d="M 3.00,242.00
           C 3.00,242.00 3.00,388.00 3.00,388.00
             6.78,381.83 6.94,373.18 17.00,358.00
             29.92,338.51 47.26,327.91 69.00,320.67
             75.19,318.60 81.47,316.55 88.00,316.00
             88.00,316.00 88.00,314.00 88.00,314.00
             61.91,310.48 33.49,295.91 18.35,274.00
             14.55,268.51 10.96,262.19 8.45,256.00
             6.57,251.36 5.62,246.28 3.00,242.00 Z" />
  <path id="Selection #10"
        fill="none" stroke="black" stroke-width="1"
        d="M 236.00,5.00
           C 236.00,5.00 258.00,11.86 258.00,11.86
             264.33,14.47 277.49,20.56 283.00,24.09
             299.74,34.83 313.94,54.09 317.00,74.00
             319.96,68.25 320.44,58.59 330.04,45.00
             340.87,29.67 356.15,20.79 373.00,13.58
             380.47,10.39 390.94,6.68 399.00,6.00
             399.00,6.00 383.00,5.00 383.00,5.00
             383.00,5.00 350.00,5.00 350.00,5.00
             350.00,5.00 236.00,5.00 236.00,5.00 Z" />
  <path id="Selection #9"
        fill="none" stroke="black" stroke-width="1"
        d="M 215.00,6.00
           C 215.00,28.09 223.34,54.40 238.17,71.00
             255.63,90.55 288.96,103.43 315.00,104.00
             315.00,87.29 314.83,73.73 307.69,58.00
             294.92,29.88 267.28,17.66 239.00,10.63
             239.00,10.63 215.00,6.00 215.00,6.00 Z" />
  <path id="Selection #8"
        fill="none" stroke="black" stroke-width="1"
        d="M 211.00,26.00
           C 205.94,61.85 181.21,87.91 148.00,100.05
             141.10,102.57 132.29,105.39 125.00,106.00
             125.00,106.00 125.00,108.00 125.00,108.00
             167.64,113.75 204.80,144.07 211.00,188.00
             211.00,188.00 213.00,188.00 213.00,188.00
             219.20,144.07 256.36,113.75 299.00,108.00
             299.00,108.00 299.00,106.00 299.00,106.00
             291.71,105.39 282.90,102.57 276.00,100.05
             242.79,87.91 218.06,61.85 213.00,26.00
             213.00,26.00 211.00,26.00 211.00,26.00 Z" />
  <path id="Selection #7"
        fill="none" stroke="black" stroke-width="1"
        d="M 106.00,141.00
           C 98.63,177.52 67.27,197.85 33.00,205.42
             25.74,207.03 18.45,208.66 11.00,209.00
             14.74,212.00 18.47,212.13 23.00,213.43
             23.00,213.43 44.00,220.60 44.00,220.60
             65.81,229.44 85.33,244.72 97.40,265.00
             100.89,270.87 103.94,277.21 105.00,284.00
             107.88,279.76 108.37,274.76 110.09,270.00
             111.81,265.23 116.11,257.15 119.04,253.00
             134.76,230.74 170.08,214.20 197.00,212.00
             197.00,212.00 197.00,210.00 197.00,210.00
             190.19,209.44 183.55,207.59 177.00,205.71
             154.80,199.33 132.49,188.24 118.78,169.00
             109.15,155.48 109.05,146.94 106.00,141.00 Z" />
  <path id="Selection #6"
        fill="none" stroke="black" stroke-width="1"
        d="M 4.00,214.00
           C 4.00,236.00 12.41,262.47 27.17,279.00
             44.44,298.34 78.20,311.44 104.00,312.00
             104.00,297.47 102.96,285.47 96.68,272.00
             84.04,244.92 57.30,229.01 30.00,220.00
             22.21,217.43 12.14,214.67 4.00,214.00 Z" />
  <path id="Selection #5"
        fill="none" stroke="black" stroke-width="1"
        d="M 109.00,110.00
           C 109.00,126.34 109.47,142.99 116.97,158.00
             130.00,184.06 158.11,196.68 185.00,203.37
             185.00,203.37 209.00,208.00 209.00,208.00
             209.00,185.91 200.66,159.60 185.83,143.00
             168.51,123.60 134.87,110.57 109.00,110.00 Z" />
  <path id="Selection #4"
        fill="none" stroke="black" stroke-width="1"
        d="M 109.00,104.00
           C 135.04,103.43 168.37,90.55 185.83,71.00
             200.66,54.40 209.00,28.09 209.00,6.00
             209.00,6.00 185.00,10.63 185.00,10.63
             156.72,17.66 129.08,29.88 116.31,58.00
             109.17,73.73 109.00,87.29 109.00,104.00 Z" />
  <path id="Selection #3"
        fill="none" stroke="black" stroke-width="1"
        d="M 4.00,208.00
           C 11.01,207.43 26.00,204.01 33.00,202.00
             59.93,194.27 84.30,182.81 96.88,156.00
             103.68,141.52 104.00,125.61 104.00,110.00
             78.20,110.56 44.44,123.66 27.17,143.00
             12.41,159.53 4.00,186.00 4.00,208.00 Z" />
  <path id="Selection #2"
        fill="none" stroke="black" stroke-width="1"
        d="M 3.00,34.00
           C 3.00,34.00 3.00,180.00 3.00,180.00
             5.62,175.72 6.57,170.64 8.45,166.00
             10.96,159.81 14.55,153.49 18.35,148.00
             33.49,126.09 61.91,111.52 88.00,108.00
             88.00,108.00 88.00,106.00 88.00,106.00
             81.47,105.45 75.19,103.40 69.00,101.33
             47.26,94.09 29.92,83.49 17.00,64.00
             6.94,48.82 6.78,40.17 3.00,34.00 Z" />
  <path id="Selection #1"
        fill="none" stroke="black" stroke-width="1"
        d="M 25.00,5.00
           C 25.00,5.00 51.00,13.43 51.00,13.43
             56.77,15.90 70.07,22.56 75.00,26.04
             90.12,36.73 103.38,55.40 106.00,74.00
             109.28,67.71 109.71,58.96 117.75,47.00
             129.09,30.13 143.82,21.35 162.00,13.58
             169.47,10.39 179.94,6.68 188.00,6.00
             188.00,6.00 172.00,5.00 172.00,5.00
             172.00,5.00 139.00,5.00 139.00,5.00
             139.00,5.00 25.00,5.00 25.00,5.00 Z" />
  <path id="Selection"
        fill="none" stroke="black" stroke-width="1"
        d="M 4.00,6.00
           C 4.00,28.09 12.34,54.40 27.17,71.00
             44.44,90.34 78.20,103.44 104.00,104.00
             104.00,84.39 103.52,69.80 93.69,52.00
             80.46,28.04 53.22,16.90 28.00,10.63
             28.00,10.63 4.00,6.00 4.00,6.00 Z" />
</svg>
