<?xml version="1.0" encoding="UTF-8" standalone="no"?>
<svg
   xmlns:dc="http://purl.org/dc/elements/1.1/"
   xmlns:cc="http://creativecommons.org/ns#"
   xmlns:rdf="http://www.w3.org/1999/02/22-rdf-syntax-ns#"
   xmlns:svg="http://www.w3.org/2000/svg"
   xmlns="http://www.w3.org/2000/svg"
   xmlns:sodipodi="http://sodipodi.sourceforge.net/DTD/sodipodi-0.dtd"
   xmlns:inkscape="http://www.inkscape.org/namespaces/inkscape"
   width="2.39553in"
   height="2.39553in"
   viewBox="0 0 230 230"
   version="1.1"
   id="svg1187"
   sodipodi:docname="acacia13-01.svg"
   inkscape:version="0.92.4 (5da689c313, 2019-01-14)">
  <metadata
     id="metadata1193">
    <rdf:RDF>
      <cc:Work
         rdf:about="">
        <dc:format>image/svg+xml</dc:format>
        <dc:type
           rdf:resource="http://purl.org/dc/dcmitype/StillImage" />
      </cc:Work>
    </rdf:RDF>
  </metadata>
  <defs
     id="defs1191" />
  <sodipodi:namedview
     pagecolor="#ffffff"
     bordercolor="#666666"
     borderopacity="1"
     objecttolerance="10"
     gridtolerance="10"
     guidetolerance="10"
     inkscape:pageopacity="0"
     inkscape:pageshadow="2"
     inkscape:window-width="1366"
     inkscape:window-height="659"
     id="namedview1189"
     showgrid="false"
     inkscape:zoom="2.0567822"
     inkscape:cx="47.647243"
     inkscape:cy="114.98544"
     inkscape:window-x="0"
     inkscape:window-y="31"
     inkscape:window-maximized="1"
     inkscape:current-layer="svg1187" />
  <path
     id="Selection #23"
     fill="none"
     stroke="black"
     stroke-width="1"
     d="M 54.00,114.00            C 54.00,114.00 54.00,116.00 54.00,116.00              64.85,120.67 74.44,126.84 83.00,135.00              87.39,131.87 95.24,124.92 98.98,121.00              100.73,119.17 103.37,116.82 102.66,114.00              102.03,111.47 95.13,105.12 93.00,103.00              91.00,101.00 86.90,96.25 84.00,96.18              81.45,96.12 76.17,100.76 74.00,102.37              67.45,107.23 61.49,110.77 54.00,114.00 Z"
     onclick="top.notify(evt)" />
  <path
     id="Selection #22"
     fill="none"
     stroke="black"
     stroke-width="1"
     d="M 42.00,3.00            C 42.00,3.00 42.00,42.00 42.00,42.00              42.00,42.00 2.00,42.00 2.00,42.00              2.00,42.00 2.00,53.00 2.00,53.00              2.00,53.00 38.00,53.00 38.00,53.00              48.17,53.07 52.12,60.14 59.00,67.00              60.96,68.95 65.16,73.80 68.00,73.80              70.51,73.80 73.30,70.63 75.00,69.00              75.00,69.00 53.02,45.00 53.02,45.00              53.02,45.00 52.00,39.00 52.00,39.00              52.00,39.00 52.00,3.00 52.00,3.00              52.00,3.00 42.00,3.00 42.00,3.00 Z"
     onclick="top.notify(evt)" />
  <path
     id="Selection #21"
     fill="none"
     stroke="black"
     stroke-width="1"
     d="M 190.00,190.00            C 190.00,190.00 190.00,227.00 190.00,227.00              190.00,227.00 228.00,227.00 228.00,227.00              228.00,227.00 228.00,190.00 228.00,190.00              228.00,190.00 190.00,190.00 190.00,190.00 Z"
     onclick="top.notify(evt)" />
  <path
     id="Selection #20"
     fill="none"
     stroke="black"
     stroke-width="1"
     d="M 164.00,152.00            C 166.45,157.19 169.99,159.99 174.00,164.00              180.49,170.49 182.48,174.94 192.00,175.00              192.00,175.00 228.00,175.00 228.00,175.00              228.00,175.00 228.00,129.00 228.00,129.00              201.63,129.00 185.04,137.06 164.00,152.00 Z"
     onclick="top.notify(evt)" />
  <path
     id="Selection #19"
     fill="none"
     stroke="black"
     stroke-width="1"
     d="M 161.00,155.00            C 161.00,155.00 155.00,161.00 155.00,161.00              155.00,161.00 176.98,185.00 176.98,185.00              176.98,185.00 178.00,191.00 178.00,191.00              178.00,191.00 178.00,227.00 178.00,227.00              178.00,227.00 188.00,227.00 188.00,227.00              188.00,227.00 188.00,187.00 188.00,187.00              188.00,187.00 228.00,187.00 228.00,187.00              228.00,184.55 228.48,179.67 226.40,178.02              224.60,176.60 218.41,177.00 216.00,177.00              216.00,177.00 190.00,177.00 190.00,177.00              187.83,176.96 186.00,176.98 184.00,175.98              184.00,175.98 161.00,155.00 161.00,155.00 Z"
     onclick="top.notify(evt)" />
  <path
     id="Selection #18"
     fill="none"
     stroke="black"
     stroke-width="1"
     d="M 152.00,164.00            C 136.80,184.70 129.00,200.78 129.00,227.00              129.00,227.00 175.00,227.00 175.00,227.00              175.00,227.00 175.00,191.00 175.00,191.00              174.84,182.63 169.63,179.63 164.00,174.00              159.99,169.99 157.19,166.45 152.00,164.00 Z"
     onclick="top.notify(evt)" />
  <path
     id="Selection #17"
     fill="none"
     stroke="black"
     stroke-width="1"
     d="M 164.00,78.00            C 184.60,92.59 202.20,100.98 228.00,101.00              228.00,101.00 228.00,55.00 228.00,55.00              228.00,55.00 191.00,55.00 191.00,55.00              182.63,55.16 179.63,60.37 174.00,66.00              169.99,70.01 166.45,72.81 164.00,78.00 Z"
     onclick="top.notify(evt)" />
  <path
     id="Selection #16"
     fill="none"
     stroke="black"
     stroke-width="1"
     d="M 145.00,95.00            C 145.00,95.00 132.00,108.00 132.00,108.00              132.00,108.00 127.20,115.00 127.20,115.00              127.20,115.00 132.00,122.00 132.00,122.00              132.00,122.00 145.00,135.00 145.00,135.00              156.30,127.83 161.68,121.74 175.00,116.00              175.00,116.00 175.00,114.00 175.00,114.00              161.65,108.22 156.25,102.11 145.00,95.00 Z"
     onclick="top.notify(evt)" />
  <path
     id="Selection #15"
     fill="none"
     stroke="black"
     stroke-width="1"
     d="M 95.00,144.00            C 95.00,144.00 103.96,158.00 103.96,158.00              103.96,158.00 115.00,175.00 115.00,175.00              122.31,162.31 125.19,157.34 135.00,146.00              131.49,141.10 125.45,135.25 121.00,131.02              119.16,129.27 116.83,126.63 114.00,127.34              111.88,127.87 108.59,131.42 107.00,133.00              102.98,137.00 99.65,140.67 95.00,144.00 Z"
     onclick="top.notify(evt)" />
  <path
     id="Selection #14"
     fill="none"
     stroke="black"
     stroke-width="1"
     d="M 54.00,227.00            C 54.00,227.00 101.00,227.00 101.00,227.00              100.24,210.55 95.80,192.13 87.19,178.00              85.33,174.95 79.71,165.20 75.96,165.20              72.86,165.20 66.30,172.70 64.00,175.00              61.16,177.84 56.13,182.34 54.74,186.00              53.66,188.82 54.00,196.62 54.00,200.00              54.00,200.00 54.00,227.00 54.00,227.00 Z"
     onclick="top.notify(evt)" />
  <path
     id="Selection #13"
     fill="none"
     stroke="black"
     stroke-width="1"
     d="M 190.00,3.00            C 190.00,3.00 190.00,40.00 190.00,40.00              190.00,40.00 228.00,40.00 228.00,40.00              228.00,40.00 228.00,3.00 228.00,3.00              228.00,3.00 190.00,3.00 190.00,3.00 Z"
     onclick="top.notify(evt)" />
  <path
     id="Selection #12"
     fill="none"
     stroke="black"
     stroke-width="1"
     d="M 178.00,3.00            C 178.00,3.00 178.00,32.00 178.00,32.00              178.00,32.00 176.98,45.00 176.98,45.00              176.98,45.00 155.00,68.00 155.00,68.00              155.00,68.00 161.00,75.00 161.00,75.00              161.00,75.00 185.00,53.17 185.00,53.17              185.00,53.17 199.00,52.00 199.00,52.00              199.00,52.00 228.00,52.00 228.00,52.00              228.00,52.00 228.00,43.00 228.00,43.00              228.00,43.00 188.00,43.00 188.00,43.00              188.00,43.00 188.00,3.00 188.00,3.00              188.00,3.00 178.00,3.00 178.00,3.00 Z"
     onclick="top.notify(evt)" />
  <path
     id="Selection #11"
     fill="none"
     stroke="black"
     stroke-width="1"
     d="M 2.00,177.00            C 2.00,177.00 2.00,187.00 2.00,187.00              2.00,187.00 42.00,187.00 42.00,187.00              42.00,187.00 42.00,227.00 42.00,227.00              42.00,227.00 52.00,227.00 52.00,227.00              52.00,227.00 52.00,198.00 52.00,198.00              52.00,194.40 51.51,187.02 53.02,184.00              56.27,177.51 71.23,167.61 72.83,163.00              74.09,159.36 70.02,154.82 66.00,156.74              57.36,160.88 51.43,176.77 39.00,177.00              39.00,177.00 2.00,177.00 2.00,177.00 Z"
     onclick="top.notify(evt)" />
  <path
     id="Selection #10"
     fill="none"
     stroke="black"
     stroke-width="1"
     d="M 2.00,190.00            C 2.00,190.00 2.00,227.00 2.00,227.00              2.00,227.00 39.00,227.00 39.00,227.00              39.00,227.00 39.00,190.00 39.00,190.00              39.00,190.00 2.00,190.00 2.00,190.00 Z"
     onclick="top.notify(evt)" />
  <path
     id="Selection #9"
     fill="none"
     stroke="black"
     stroke-width="1"
     d="M 129.00,3.00            C 129.00,29.79 136.90,44.74 152.00,66.00              157.19,63.55 159.99,60.01 164.00,56.00              170.49,49.51 174.94,47.52 175.00,38.00              175.00,38.00 175.00,3.00 175.00,3.00              175.00,3.00 129.00,3.00 129.00,3.00 Z"
     onclick="top.notify(evt)" />
  <path
     id="Selection #8"
     fill="none"
     stroke="black"
     stroke-width="1"
     d="M 114.00,54.00            C 111.87,60.74 106.59,68.32 102.37,74.00              100.76,76.17 96.12,81.45 96.18,84.00              96.25,86.90 101.00,91.00 103.00,93.00              105.12,95.13 111.47,102.03 114.00,102.66              116.83,103.37 119.16,100.73 121.00,98.98              121.00,98.98 135.00,85.00 135.00,85.00              135.00,85.00 123.35,69.00 123.35,69.00              123.35,69.00 114.00,54.00 114.00,54.00 Z" />
  <path
     id="Selection #7"
     fill="none"
     stroke="black"
     stroke-width="1"
     d="M 86.00,93.00            C 86.00,93.00 100.00,108.00 100.00,108.00              100.00,108.00 104.96,115.00 104.96,115.00              104.96,115.00 100.00,122.00 100.00,122.00              100.00,122.00 86.00,136.00 86.00,136.00              86.98,137.35 87.85,138.71 89.11,139.84              93.36,143.64 95.54,141.27 99.00,137.98              101.69,135.42 111.32,124.90 114.00,124.20              116.49,123.54 118.33,125.51 120.00,127.04              120.00,127.04 131.00,137.98 131.00,137.98              133.15,140.03 135.72,142.97 138.94,141.26              143.68,138.73 141.61,134.98 138.94,132.00              138.94,132.00 128.01,121.00 128.01,121.00              126.59,119.52 124.04,117.20 124.04,115.00              124.04,112.80 126.59,110.48 128.01,109.00              130.66,106.25 140.93,96.91 141.66,94.00              142.41,91.06 138.89,86.12 134.00,89.37              131.08,91.31 117.23,104.90 115.00,108.00              115.00,108.00 100.00,93.00 100.00,93.00              100.00,93.00 93.00,88.20 93.00,88.20              93.00,88.20 86.00,93.00 86.00,93.00 Z"
     onclick="top.notify(evt)" />
  <path
     id="Selection #6"
     fill="none"
     stroke="black"
     stroke-width="1"
     d="M 114.00,54.00            C 111.87,60.74 106.59,68.32 102.37,74.00              100.76,76.17 96.12,81.45 96.18,84.00              96.25,86.90 101.00,91.00 103.00,93.00              105.12,95.13 111.47,102.03 114.00,102.66              116.83,103.37 119.16,100.73 121.00,98.98              121.00,98.98 135.00,85.00 135.00,85.00              135.00,85.00 123.35,69.00 123.35,69.00              123.35,69.00 114.00,54.00 114.00,54.00 Z"
     onclick="top.notify(evt)" />
  <path
     id="Selection #5"
     fill="none"
     stroke="black"
     stroke-width="1"
     d="M 2.00,129.00            C 2.00,129.00 2.00,175.00 2.00,175.00              2.00,175.00 30.00,175.00 30.00,175.00              32.98,175.00 40.57,175.30 43.00,174.40              46.46,173.13 51.27,167.73 54.00,165.00              56.30,162.70 63.80,156.14 63.80,153.04              63.80,149.35 54.02,144.01 51.00,142.21              36.65,133.66 18.67,129.01 2.00,129.00 Z"
     onclick="top.notify(evt)" />
  <path
     id="Selection #4"
     fill="none"
     stroke="black"
     stroke-width="1"
     d="M 103.00,3.00            C 103.00,44.44 76.08,81.12 38.00,96.55              26.57,101.18 14.21,103.01 2.00,104.00              2.00,104.00 2.00,126.00 2.00,126.00              56.80,128.52 103.00,170.87 103.00,227.00              103.00,227.00 126.00,227.00 126.00,227.00              126.12,186.21 153.56,148.62 191.00,133.45              202.48,128.80 215.67,126.57 228.00,126.00              228.00,126.00 228.00,104.00 228.00,104.00              213.55,102.83 200.33,100.80 187.00,94.69              151.73,78.54 126.12,42.29 126.00,3.00              126.00,3.00 103.00,3.00 103.00,3.00 Z            M 115.00,48.00            C 115.00,48.00 119.86,58.00 119.86,58.00              127.74,72.33 139.34,86.22 152.00,96.54              156.84,100.48 165.48,106.06 171.00,109.14              174.73,111.22 179.57,112.38 182.00,116.00              158.51,122.70 133.63,148.53 121.45,169.00              121.45,169.00 115.00,182.00 115.00,182.00              115.00,182.00 102.09,160.00 102.09,160.00              87.66,139.77 70.80,125.82 48.00,116.00              48.00,116.00 48.00,114.00 48.00,114.00              69.23,104.85 86.09,91.67 99.84,73.00              99.84,73.00 115.00,48.00 115.00,48.00 Z"
     onclick="top.notify(evt)" />
  <path
     id="Selection #3"
     fill="none"
     stroke="black"
     stroke-width="1"
     d="M 54.00,3.00            C 54.00,3.00 54.00,30.00 54.00,30.00              54.00,33.38 53.66,41.18 54.74,44.00              56.13,47.66 61.16,52.16 64.00,55.00              66.30,57.30 72.86,64.80 75.96,64.80              79.67,64.80 85.37,55.07 87.13,52.00              95.70,37.02 100.21,20.21 101.00,3.00              101.00,3.00 54.00,3.00 54.00,3.00 Z" />
  <path
     id="Selection #2"
     fill="none"
     stroke="black"
     stroke-width="1"
     d="M 54.00,3.00            C 54.00,3.00 54.00,30.00 54.00,30.00              54.00,33.38 53.66,41.18 54.74,44.00              56.13,47.66 61.16,52.16 64.00,55.00              66.30,57.30 72.86,64.80 75.96,64.80              79.67,64.80 85.37,55.07 87.13,52.00              95.70,37.02 100.21,20.21 101.00,3.00              101.00,3.00 54.00,3.00 54.00,3.00 Z"
     onclick="top.notify(evt)" />
  <path
     id="Selection #1"
     fill="none"
     stroke="black"
     stroke-width="1"
     d="M 2.00,55.00            C 2.00,55.00 2.00,101.00 2.00,101.00              19.43,100.99 34.70,96.34 50.00,88.22              53.13,86.56 63.80,80.61 63.80,76.91              63.80,73.90 56.26,67.26 54.00,65.00              48.53,59.53 46.12,55.15 38.00,55.00              38.00,55.00 2.00,55.00 2.00,55.00 Z"
     onclick="top.notify(evt)" />
  <path
     id="Selection"
     fill="none"
     stroke="black"
     stroke-width="1"
     d="M 2.00,3.00            C 2.00,3.00 2.00,40.00 2.00,40.00              2.00,40.00 39.00,40.00 39.00,40.00              39.00,40.00 39.00,3.00 39.00,3.00              39.00,3.00 2.00,3.00 2.00,3.00 Z"
     onclick="top.notify(evt)" />
  <path
     onclick="top.notify(evt)"
     d="M 2.00,177.00            C 2.00,177.00 2.00,187.00 2.00,187.00              2.00,187.00 42.00,187.00 42.00,187.00              42.00,187.00 42.00,227.00 42.00,227.00              42.00,227.00 52.00,227.00 52.00,227.00              52.00,227.00 52.00,198.00 52.00,198.00              52.00,194.40 51.51,187.02 53.02,184.00              56.27,177.51 71.23,167.61 72.83,163.00              74.09,159.36 70.02,154.82 66.00,156.74              57.36,160.88 51.43,176.77 39.00,177.00              39.00,177.00 2.00,177.00 2.00,177.00 Z"
     stroke-width="1"
     stroke="black"
     fill="none"
     id="path1540" />
</svg>
