<?xml version="1.0" encoding="UTF-8" standalone="no"?>
<svg
   xmlns:dc="http://purl.org/dc/elements/1.1/"
   xmlns:cc="http://creativecommons.org/ns#"
   xmlns:rdf="http://www.w3.org/1999/02/22-rdf-syntax-ns#"
   xmlns:svg="http://www.w3.org/2000/svg"
   xmlns="http://www.w3.org/2000/svg"
   xmlns:sodipodi="http://sodipodi.sourceforge.net/DTD/sodipodi-0.dtd"
   xmlns:inkscape="http://www.inkscape.org/namespaces/inkscape"
   width="0.980453in"
   height="0.961193in"
   viewBox="0 0 200 198"
   version="1.1"
   id="svg1533"
   sodipodi:docname="acacia25-01.svg"
   inkscape:version="0.92.4 (5da689c313, 2019-01-14)">
  <metadata
     id="metadata1539">
    <rdf:RDF>
      <cc:Work
         rdf:about="">
        <dc:format>image/svg+xml</dc:format>
        <dc:type
           rdf:resource="http://purl.org/dc/dcmitype/StillImage" />
      </cc:Work>
    </rdf:RDF>
  </metadata>
  <defs
     id="defs1537" />
  <sodipodi:namedview
     pagecolor="#ffffff"
     bordercolor="#666666"
     borderopacity="1"
     objecttolerance="10"
     gridtolerance="10"
     guidetolerance="10"
     inkscape:pageopacity="0"
     inkscape:pageshadow="2"
     inkscape:window-width="1366"
     inkscape:window-height="659"
     id="namedview1535"
     showgrid="false"
     inkscape:zoom="5.1260082"
     inkscape:cx="47.061745"
     inkscape:cy="46.137265"
     inkscape:window-x="0"
     inkscape:window-y="31"
     inkscape:window-maximized="1"
     inkscape:current-layer="svg1533" />
  <path
     id="Selection #3"
     fill="none"
     stroke="black"
     stroke-width="1"
     d="M 179.00,195.00            C 179.00,195.00 197.00,195.00 197.00,195.00              197.00,195.00 197.00,178.00 197.00,178.00              186.64,178.97 181.30,185.23 179.00,195.00 Z"
     onclick="top.notify(evt)" />
  <path
     id="Selection #2"
     fill="none"
     stroke="black"
     stroke-width="1"
     d="M 183.00,24.00            C 176.15,22.77 169.88,21.06 167.00,29.00              180.13,24.79 183.86,33.32 184.00,45.00              184.00,45.00 184.00,144.00 184.00,144.00              184.00,146.99 184.10,150.12 183.20,153.00              181.98,156.89 178.49,161.55 174.00,161.55              169.22,161.55 163.05,154.88 167.87,148.11              169.42,145.92 170.77,145.26 173.00,144.10              168.33,142.29 165.63,144.45 161.00,144.10              156.47,143.95 150.42,140.17 146.06,141.78              138.12,144.70 144.91,155.27 145.17,160.00              145.17,160.00 144.00,172.00 144.00,172.00              146.58,168.91 149.58,165.17 154.00,165.09              162.19,164.93 167.06,176.53 156.00,181.30              152.31,182.89 146.98,182.99 143.00,183.00              143.00,183.00 46.00,183.00 46.00,183.00              39.78,182.92 29.81,181.12 27.92,174.00              27.33,171.75 28.49,168.31 29.00,166.00              21.06,168.88 22.77,175.15 24.00,182.00              15.29,183.18 7.08,185.24 5.00,195.00              5.00,195.00 177.00,195.00 177.00,195.00              178.67,184.39 186.04,176.61 197.00,176.00              197.00,176.00 197.00,5.00 197.00,5.00              186.82,6.18 184.25,15.16 183.00,24.00 Z"
     onclick="top.notify(evt)" />
  <path
     id="Selection #1"
     fill="none"
     stroke="black"
     stroke-width="1"
     d="M 55.00,24.00            C 55.00,24.00 52.75,16.00 52.75,16.00              52.55,11.46 57.06,7.18 61.95,10.55              69.08,15.47 67.49,25.04 62.47,30.82              59.79,33.90 56.63,35.38 53.00,37.00              67.22,50.59 66.17,53.48 72.00,71.00              64.29,72.51 52.28,67.71 46.00,63.21              46.00,63.21 36.00,55.00 36.00,55.00              33.98,58.46 32.09,61.15 28.99,63.78              23.39,68.50 12.90,69.67 9.04,61.96              7.01,57.90 9.75,53.04 15.00,53.44              16.96,53.60 20.88,55.29 23.00,56.00              33.25,40.01 21.94,26.39 5.00,24.00              5.00,24.00 5.00,188.00 5.00,188.00              11.15,183.44 13.37,181.75 21.00,180.00              19.44,167.34 22.79,165.81 34.03,162.00              31.26,167.22 26.80,174.58 34.03,178.55              39.07,181.29 51.12,180.01 57.00,179.86              57.00,179.86 147.00,179.86 147.00,179.86              148.97,180.00 152.16,180.08 154.00,179.86              155.46,179.16 156.63,178.59 157.77,177.57              166.06,170.15 151.49,162.12 147.60,172.04              146.93,173.74 147.02,176.18 147.00,178.00              138.25,170.79 143.68,167.44 142.64,159.00              141.80,152.20 136.17,145.92 144.04,140.60              149.93,136.62 155.61,141.95 162.00,141.87              169.93,141.77 172.99,138.28 179.00,146.00              177.18,146.02 174.74,145.93 173.04,146.60              162.58,150.70 172.29,165.24 179.26,156.61              180.17,155.48 180.51,154.38 180.93,152.98              180.93,152.98 180.93,147.00 180.93,147.00              180.93,147.00 180.93,127.00 180.93,127.00              180.93,127.00 182.00,112.00 182.00,112.00              182.00,112.00 182.00,46.00 182.00,46.00              181.90,38.04 179.91,26.72 169.00,31.00              167.03,31.77 165.69,32.81 164.00,34.00              164.33,28.15 166.55,22.09 173.00,20.66              175.85,20.03 178.39,21.28 180.30,19.97              181.89,18.88 182.70,15.74 183.47,14.00              184.96,10.61 186.98,8.06 189.00,5.00              189.00,5.00 33.00,5.00 33.00,5.00              31.10,5.00 27.11,4.77 25.64,6.02              21.27,9.74 30.10,20.86 33.09,23.32              40.81,29.66 46.95,28.97 55.00,24.00 Z"
     onclick="top.notify(evt)" />
  <path
     id="Selection"
     fill="none"
     stroke="black"
     stroke-width="1"
     d="M 5.00,5.00            C 5.00,5.00 5.00,22.00 5.00,22.00              20.49,22.76 37.47,41.02 25.65,54.91              24.53,56.22 23.39,57.44 21.57,57.54              20.33,57.60 11.01,53.57 10.54,59.13              10.02,65.31 20.02,65.60 24.00,64.35              31.16,62.11 33.75,55.43 36.00,49.00              37.60,51.65 39.22,54.55 41.33,56.83              47.68,63.69 59.73,68.55 69.00,69.00              66.50,60.38 64.70,52.11 58.67,45.02              55.04,40.74 51.65,39.66 48.00,36.00              54.77,34.77 61.21,31.95 63.74,25.00              65.24,20.86 64.95,13.32 59.91,11.66              57.21,10.76 55.42,12.38 55.25,15.06              54.96,19.51 59.34,22.63 52.97,27.35              40.67,36.45 22.37,21.27 22.00,5.00              22.00,5.00 5.00,5.00 5.00,5.00 Z"
     onclick="top.notify(evt)" />
</svg>
