<?xml version="1.0" encoding="UTF-8" standalone="no"?>
<svg
   xmlns:dc="http://purl.org/dc/elements/1.1/"
   xmlns:cc="http://creativecommons.org/ns#"
   xmlns:rdf="http://www.w3.org/1999/02/22-rdf-syntax-ns#"
   xmlns:svg="http://www.w3.org/2000/svg"
   xmlns="http://www.w3.org/2000/svg"
   xmlns:sodipodi="http://sodipodi.sourceforge.net/DTD/sodipodi-0.dtd"
   xmlns:inkscape="http://www.inkscape.org/namespaces/inkscape"
   width="2.4372in"
   height="2.39553in"
   viewBox="0 0 234 230"
   version="1.1"
   id="svg897"
   sodipodi:docname="acacia20-01.svg"
   inkscape:version="0.92.4 (5da689c313, 2019-01-14)">
  <metadata
     id="metadata903">
    <rdf:RDF>
      <cc:Work
         rdf:about="">
        <dc:format>image/svg+xml</dc:format>
        <dc:type
           rdf:resource="http://purl.org/dc/dcmitype/StillImage" />
      </cc:Work>
    </rdf:RDF>
  </metadata>
  <defs
     id="defs901" />
  <sodipodi:namedview
     pagecolor="#ffffff"
     bordercolor="#666666"
     borderopacity="1"
     objecttolerance="10"
     gridtolerance="10"
     guidetolerance="10"
     inkscape:pageopacity="0"
     inkscape:pageshadow="2"
     inkscape:window-width="1366"
     inkscape:window-height="659"
     id="namedview899"
     showgrid="false"
     inkscape:zoom="2.0567822"
     inkscape:cx="107.99097"
     inkscape:cy="114.98544"
     inkscape:window-x="0"
     inkscape:window-y="31"
     inkscape:window-maximized="1"
     inkscape:current-layer="svg897" />
  <path
     id="Selection #2"
     fill="none"
     stroke="black"
     stroke-width="1"
     d="M 116.00,80.00            C 116.00,80.00 113.00,88.00 113.00,88.00              110.69,87.04 108.05,85.66 105.60,87.02              103.91,87.96 102.97,90.29 100.53,90.84              99.24,91.14 94.64,90.22 93.00,90.00              93.00,90.00 94.00,100.00 94.00,100.00              94.00,100.00 88.00,102.00 88.00,102.00              89.34,108.98 89.64,109.02 83.00,114.00              83.00,114.00 83.00,116.00 83.00,116.00              89.77,121.17 89.31,121.34 88.00,128.00              88.00,128.00 94.00,130.00 94.00,130.00              94.00,130.00 93.00,140.00 93.00,140.00              94.72,139.77 99.27,138.87 100.67,139.19              103.17,139.74 103.90,142.01 105.61,142.98              108.03,144.34 110.71,142.95 113.00,142.00              113.00,142.00 116.00,150.00 116.00,150.00              116.00,150.00 118.00,150.00 118.00,150.00              118.00,150.00 122.00,142.00 122.00,142.00              127.79,144.34 129.57,143.98 132.00,138.00              132.00,138.00 142.00,140.00 142.00,140.00              142.00,140.00 141.00,129.00 141.00,129.00              147.08,127.60 145.94,125.35 145.00,120.00              145.00,120.00 153.00,116.00 153.00,116.00              153.00,116.00 153.00,114.00 153.00,114.00              153.00,114.00 145.00,110.00 145.00,110.00              145.94,104.65 147.08,102.40 141.00,101.00              141.00,101.00 142.00,90.00 142.00,90.00              142.00,90.00 132.00,92.00 132.00,92.00              129.57,86.02 127.79,85.66 122.00,88.00              122.00,88.00 118.00,80.00 118.00,80.00              118.00,80.00 116.00,80.00 116.00,80.00 Z"
     onclick="top.notify(evt)" />
  <path
     id="Selection #1"
     fill="none"
     stroke="black"
     stroke-width="1"
     d="M 116.00,15.00            C 113.92,19.05 109.35,29.88 106.39,32.40              103.31,35.03 98.06,33.15 96.66,37.23              95.03,41.94 102.32,46.00 103.60,50.00              105.66,56.44 96.45,57.47 93.74,59.53              91.92,60.91 89.77,64.09 86.42,63.92              77.47,63.49 83.15,50.67 78.69,48.07              74.78,45.78 71.20,51.06 67.00,51.37              67.00,51.37 48.00,47.00 48.00,47.00              48.00,47.00 53.94,66.00 53.94,66.00              54.09,70.20 50.05,73.24 52.07,76.69              54.72,81.23 65.24,76.46 67.83,83.11              69.31,86.89 64.51,90.08 62.00,92.00              62.87,96.49 62.23,101.68 56.98,103.16              51.70,104.64 48.88,98.16 44.92,96.78              40.58,95.27 38.94,98.14 39.32,102.02              39.32,102.02 40.00,106.00 40.00,106.00              40.00,106.00 20.00,115.00 20.00,115.00              24.12,118.28 34.91,123.55 40.00,125.00              40.00,125.00 39.32,128.98 39.32,128.98              38.02,142.15 52.19,128.34 54.00,127.84              60.77,126.00 63.00,133.80 62.00,139.00              63.99,140.53 66.95,142.55 67.83,145.01              71.02,153.88 54.44,150.28 52.07,154.31              49.99,157.83 54.16,160.52 54.19,164.09              54.19,164.09 48.00,184.00 48.00,184.00              48.00,184.00 67.72,179.33 67.72,179.33              71.01,179.70 74.63,185.31 78.69,182.93              83.21,180.29 77.33,167.59 86.58,167.08              90.08,166.88 92.22,170.60 94.51,172.04              97.01,173.60 102.10,173.61 103.60,178.04              105.26,182.93 98.01,186.37 96.66,190.98              94.79,197.35 103.43,196.08 106.47,198.60              108.69,200.43 114.19,210.86 116.00,214.00              116.00,214.00 118.00,214.00 118.00,214.00              119.88,210.49 125.47,200.78 128.32,198.60              131.50,196.17 136.11,197.40 137.93,194.49              141.88,188.18 124.05,181.73 133.23,175.01              134.05,174.40 135.05,173.96 136.02,173.65              137.65,173.12 139.31,173.09 141.00,173.00              143.36,168.17 149.15,163.83 152.83,170.14              155.31,174.40 151.46,186.01 159.96,183.07              160.97,182.72 161.79,182.21 162.59,181.49              163.82,180.36 164.21,179.37 165.00,178.00              165.00,178.00 187.00,184.00 187.00,184.00              187.00,184.00 180.54,165.00 180.54,165.00              180.09,160.32 184.58,157.91 182.72,154.31              180.45,149.94 166.49,154.41 166.48,146.00              166.47,143.37 169.09,141.68 170.42,139.72              173.24,135.56 171.38,129.67 178.00,127.84              183.48,126.33 186.27,133.17 190.08,134.34              193.96,135.54 195.81,132.45 195.64,129.00              195.64,129.00 195.00,125.00 195.00,125.00              195.00,125.00 214.00,116.00 214.00,116.00              214.00,116.00 196.69,105.37 196.69,105.37              194.55,102.67 197.07,98.08 192.85,96.66              187.86,94.97 185.14,102.44 180.00,103.13              172.36,104.15 172.24,93.53 171.01,91.59              169.79,89.66 166.47,87.98 166.48,84.99              166.49,76.24 180.36,81.22 182.72,76.69              184.58,73.10 180.10,70.69 180.54,66.00              180.54,66.00 187.00,47.00 187.00,47.00              187.00,47.00 168.00,51.23 168.00,51.23              163.69,50.99 160.41,46.04 156.29,47.78              151.32,49.89 157.45,63.55 147.99,63.55              144.20,63.55 142.42,60.26 140.41,58.96              138.53,57.75 129.43,56.25 130.88,50.01              131.90,45.68 139.89,42.29 138.29,37.23              137.02,33.19 131.68,34.98 128.33,32.40              124.61,29.55 121.70,20.33 116.00,15.00 Z            M 118.00,74.00            C 119.30,76.90 121.11,81.32 124.18,82.69              126.23,83.61 128.22,82.69 130.40,84.00              132.16,85.05 133.05,87.29 135.47,87.84              135.47,87.84 145.00,87.00 145.00,87.00              144.61,95.51 141.99,97.22 150.00,101.00              147.96,109.04 151.37,110.27 158.00,114.00              158.00,114.00 158.00,116.00 158.00,116.00              158.00,116.00 148.00,122.00 148.00,122.00              148.00,122.00 150.00,129.00 150.00,129.00              141.99,132.78 144.61,134.49 145.00,142.82              145.00,142.82 135.10,142.82 135.10,142.82              135.10,142.82 129.63,146.40 129.63,146.40              129.63,146.40 122.39,148.40 122.39,148.40              122.39,148.40 117.00,157.00 117.00,157.00              117.00,157.00 111.36,147.69 111.36,147.69              111.36,147.69 105.21,146.32 105.21,146.32              105.21,146.32 101.00,141.00 101.00,141.00              101.00,141.00 90.00,143.00 90.00,143.00              90.03,132.43 92.06,132.64 85.06,129.00              85.06,129.00 85.06,121.61 85.06,121.61              85.06,121.61 80.20,115.00 80.20,115.00              80.20,115.00 85.65,107.41 85.65,107.41              85.65,107.41 85.65,102.26 85.65,102.26              85.65,102.26 89.91,97.59 89.91,97.59              89.91,97.59 89.91,87.00 89.91,87.00              89.91,87.00 101.00,89.00 101.00,89.00              101.00,89.00 105.21,83.68 105.21,83.68              105.21,83.68 111.37,82.31 111.37,82.31              111.37,82.31 116.00,74.00 116.00,74.00              116.00,74.00 118.00,74.00 118.00,74.00 Z"
     onclick="top.notify(evt)" />
  <path
     id="Selection"
     fill="none"
     stroke="black"
     stroke-width="1"
     d="M 4.00,3.00            C 4.00,3.00 4.00,227.00 4.00,227.00              4.00,227.00 231.00,227.00 231.00,227.00              231.00,227.00 231.00,3.00 231.00,3.00              231.00,3.00 4.00,3.00 4.00,3.00 Z            M 117.00,10.00            C 117.00,10.00 130.00,32.00 130.00,32.00              136.00,30.80 143.91,33.34 140.98,40.99              139.34,45.26 127.09,53.54 139.00,54.95              139.00,54.95 143.00,54.95 143.00,54.95              145.58,62.35 150.60,62.26 151.16,55.98              151.16,55.98 151.16,50.02 151.16,50.02              153.30,38.60 165.03,48.60 170.00,48.11              170.00,48.11 191.00,43.00 191.00,43.00              191.00,43.00 183.37,65.83 183.37,65.83              182.94,69.62 187.97,73.57 184.82,78.77              182.16,83.18 176.92,81.34 174.01,81.85              172.37,82.14 170.06,83.02 170.04,85.04              170.03,87.12 172.90,88.70 174.01,90.51              175.77,93.39 174.29,98.24 178.14,99.83              183.29,101.96 188.82,87.65 196.57,95.43              197.58,96.45 198.20,97.61 198.24,99.02              198.84,100.84 198.38,102.27 198.24,104.00              198.24,104.00 219.00,115.00 219.00,115.00              214.12,119.98 204.49,124.20 198.00,127.00              199.20,133.18 196.32,139.82 189.04,136.98              185.51,135.60 183.47,132.05 180.97,131.16              174.80,128.98 175.42,138.17 174.01,140.41              172.94,142.10 170.03,143.70 170.04,145.90              170.06,147.97 172.38,148.59 174.01,148.85              177.12,149.36 182.51,148.14 184.98,152.23              187.96,157.16 182.91,161.66 183.34,165.28              183.34,165.28 191.00,188.00 191.00,188.00              191.00,188.00 166.00,181.00 166.00,181.00              161.88,188.27 151.74,188.57 151.08,179.00              150.92,176.73 151.58,173.29 150.06,171.37              146.84,167.31 143.77,173.41 143.00,176.00              140.50,176.01 135.45,175.58 134.17,178.31              133.01,180.79 135.48,182.84 136.95,184.42              139.50,187.16 142.71,190.80 141.22,194.89              139.31,200.14 133.20,198.10 129.38,201.44              127.16,203.38 119.80,215.78 118.00,219.00              118.00,219.00 116.00,219.00 116.00,219.00              116.00,219.00 105.00,199.04 105.00,199.04              103.13,199.20 101.92,199.38 100.00,199.04              98.75,198.89 97.23,198.51 96.15,197.84              88.19,192.95 98.25,184.19 99.54,182.00              101.67,178.42 99.50,176.70 95.99,176.07              95.99,176.07 92.00,176.07 92.00,176.07              91.11,173.45 88.92,168.58 85.31,170.82              80.81,173.62 86.80,180.89 80.77,185.25              75.51,189.06 70.57,182.88 66.00,182.62              66.00,182.62 43.00,188.00 43.00,188.00              44.40,184.48 50.99,167.59 51.10,165.00              51.28,160.68 46.91,157.74 49.21,153.06              51.27,148.87 54.91,149.11 58.83,149.12              60.78,149.13 63.93,149.08 64.68,146.74              65.64,143.72 61.03,141.94 59.00,141.00              59.00,141.00 59.50,137.00 59.50,137.00              59.69,135.97 59.72,135.05 59.50,134.06              56.43,125.82 48.90,135.97 45.00,137.22              39.29,139.04 35.05,134.18 37.00,127.00              37.00,127.00 15.00,116.00 15.00,116.00              19.18,111.26 30.84,106.65 37.00,104.00              35.05,96.82 39.29,91.96 45.00,93.78              48.90,95.03 56.43,105.18 59.50,96.94              59.72,95.95 59.69,95.03 59.50,94.00              59.50,94.00 59.00,90.00 59.00,90.00              60.99,89.08 65.71,87.24 64.66,84.25              63.04,79.61 53.99,84.52 49.74,78.77              46.02,73.74 51.25,70.64 51.09,66.00              51.09,66.00 44.00,43.00 44.00,43.00              44.00,43.00 66.00,48.24 66.00,48.24              70.87,48.03 75.53,41.96 80.77,45.75              86.80,50.11 80.81,57.38 85.31,60.18              88.92,62.42 91.11,57.55 92.00,54.93              92.00,54.93 95.99,54.93 95.99,54.93              107.14,53.09 95.22,45.02 93.74,41.00              90.92,33.33 99.05,30.81 105.00,32.00              107.14,26.16 112.70,14.22 117.00,10.00 Z"
     onclick="top.notify(evt)" />
</svg>
