<?xml version="1.0" encoding="UTF-8" standalone="no"?>
<svg
   xmlns:dc="http://purl.org/dc/elements/1.1/"
   xmlns:cc="http://creativecommons.org/ns#"
   xmlns:rdf="http://www.w3.org/1999/02/22-rdf-syntax-ns#"
   xmlns:svg="http://www.w3.org/2000/svg"
   xmlns="http://www.w3.org/2000/svg"
   xmlns:sodipodi="http://sodipodi.sourceforge.net/DTD/sodipodi-0.dtd"
   xmlns:inkscape="http://www.inkscape.org/namespaces/inkscape"
   width="0.737282in"
   height="0.728717in"
   viewBox="0 0 188 188"
   version="1.1"
   id="svg1408"
   sodipodi:docname="acacia24-01.svg"
   inkscape:version="0.92.4 (5da689c313, 2019-01-14)">
  <metadata
     id="metadata1414">
    <rdf:RDF>
      <cc:Work
         rdf:about="">
        <dc:format>image/svg+xml</dc:format>
        <dc:type
           rdf:resource="http://purl.org/dc/dcmitype/StillImage" />
      </cc:Work>
    </rdf:RDF>
  </metadata>
  <defs
     id="defs1412" />
  <sodipodi:namedview
     pagecolor="#ffffff"
     bordercolor="#666666"
     borderopacity="1"
     objecttolerance="10"
     gridtolerance="10"
     guidetolerance="10"
     inkscape:pageopacity="0"
     inkscape:pageshadow="2"
     inkscape:window-width="1366"
     inkscape:window-height="659"
     id="namedview1410"
     showgrid="false"
     inkscape:zoom="6.7613122"
     inkscape:cx="35.389535"
     inkscape:cy="34.978417"
     inkscape:window-x="0"
     inkscape:window-y="31"
     inkscape:window-maximized="1"
     inkscape:current-layer="svg1408" />
  <path
     id="Selection #32"
     fill="none"
     stroke="black"
     stroke-width="1"
     d="M 181.00,139.00            C 179.86,143.70 179.86,146.30 181.00,151.00              181.00,151.00 177.00,149.00 177.00,149.00              178.31,157.50 180.88,159.80 181.00,170.00              181.03,173.14 181.39,178.07 179.26,180.57              177.18,183.02 173.94,182.96 171.00,183.00              156.50,183.19 159.47,180.36 147.00,177.00              147.00,177.00 150.00,183.00 150.00,183.00              145.17,181.63 142.83,181.82 138.00,183.00              138.00,183.00 153.00,184.00 153.00,184.00              153.00,184.00 183.00,184.00 183.00,184.00              183.00,184.00 183.00,153.00 183.00,153.00              183.00,148.26 183.91,142.96 181.00,139.00 Z"
     onclick="top.notify(evt)" />
  <path
     id="Selection #31"
     fill="none"
     stroke="black"
     stroke-width="1"
     d="M 157.00,159.00            C 160.05,167.71 163.43,172.49 173.00,174.00              173.00,174.00 169.00,164.00 169.00,164.00              169.00,164.00 157.00,159.00 157.00,159.00 Z"
     onclick="top.notify(evt)" />
  <path
     id="Selection #30"
     fill="none"
     stroke="black"
     stroke-width="1"
     d="M 171.00,109.00            C 171.00,109.00 152.58,129.09 152.58,129.09              152.58,129.09 152.00,153.21 152.00,153.21              152.00,153.21 128.04,153.21 128.04,153.21              123.89,154.61 119.83,158.91 119.00,163.00              115.50,164.38 110.95,166.91 110.13,171.00              109.32,175.04 116.61,182.08 120.09,183.41              121.61,183.99 123.39,183.97 125.00,184.00              127.54,184.04 131.59,184.15 133.91,183.28              138.81,181.43 136.81,179.48 145.00,179.00              145.00,179.00 145.00,173.00 145.00,173.00              155.23,177.07 155.97,179.85 169.00,180.00              176.71,180.08 178.86,180.55 179.00,173.00              179.29,156.63 176.32,158.03 172.00,146.00              172.00,146.00 178.00,146.00 178.00,146.00              178.00,146.00 180.00,136.00 180.00,136.00              183.15,133.64 182.93,132.86 183.00,129.00              183.17,118.17 179.56,115.61 171.00,109.00 Z            M 155.00,155.00            C 162.94,159.67 167.14,157.69 172.97,166.97              175.52,171.02 175.87,172.30 176.00,177.00              165.91,176.78 160.76,173.39 156.56,164.04              154.97,160.51 153.62,158.74 155.00,155.00 Z"
     onclick="top.notify(evt)" />
  <path
     id="Selection #29"
     fill="none"
     stroke="black"
     stroke-width="1"
     d="M 171.00,107.00            C 171.00,107.00 183.00,116.00 183.00,116.00              183.00,116.00 183.00,72.00 183.00,72.00              177.81,74.67 170.16,83.63 165.73,88.13              163.91,89.98 160.27,92.80 161.40,95.72              162.85,99.48 169.37,101.39 171.00,107.00 Z"
     onclick="top.notify(evt)" />
  <path
     id="Selection #28"
     fill="none"
     stroke="black"
     stroke-width="1"
     d="M 127.00,128.00            C 127.00,128.00 127.00,151.00 127.00,151.00              127.00,151.00 150.00,151.00 150.00,151.00              150.00,151.00 150.00,128.00 150.00,128.00              150.00,128.00 127.00,128.00 127.00,128.00 Z"
     onclick="top.notify(evt)" />
  <path
     id="Selection #27"
     fill="none"
     stroke="black"
     stroke-width="1"
     d="M 92.00,161.00            C 92.00,161.00 71.00,184.00 71.00,184.00              71.00,184.00 116.00,184.00 116.00,184.00              116.00,184.00 94.00,161.00 94.00,161.00              94.00,161.00 92.00,161.00 92.00,161.00 Z"
     onclick="top.notify(evt)" />
  <path
     id="Selection #26"
     fill="none"
     stroke="black"
     stroke-width="1"
     d="M 122.00,76.00            C 125.26,76.00 134.84,77.23 136.23,74.00              136.23,74.00 136.23,76.10 136.23,76.10              136.23,76.10 125.00,89.00 125.00,89.00              125.00,89.00 141.00,95.00 141.00,95.00              135.98,97.14 129.36,97.39 126.00,102.00              129.97,104.34 135.72,109.01 138.00,113.00              138.00,113.00 120.00,111.00 120.00,111.00              120.00,111.00 126.00,126.00 126.00,126.00              126.00,126.00 150.72,125.44 150.72,125.44              150.72,125.44 170.00,108.00 170.00,108.00              167.51,103.98 165.21,102.05 161.81,98.86              160.64,97.77 158.57,96.13 158.51,94.39              158.42,91.56 167.64,83.82 170.00,82.00              170.00,82.00 170.00,80.00 170.00,80.00              170.00,80.00 152.96,64.43 152.96,64.43              149.06,62.24 139.70,62.99 135.00,63.00              132.78,63.00 129.30,62.78 127.41,64.02              124.59,65.89 122.60,72.77 122.00,76.00 Z"
     onclick="top.notify(evt)" />
  <path
     id="Selection #25"
     fill="none"
     stroke="black"
     stroke-width="1"
     d="M 118.00,95.00            C 124.02,97.97 127.95,98.54 134.00,95.00              128.11,91.74 122.43,87.77 118.00,95.00 Z"
     onclick="top.notify(evt)" />
  <path
     id="Selection #24"
     fill="none"
     stroke="black"
     stroke-width="1"
     d="M 111.00,111.00            C 111.75,120.13 113.64,122.03 123.00,123.00              118.38,114.38 118.53,111.24 111.00,111.00 Z"
     onclick="top.notify(evt)" />
  <path
     id="Selection #23"
     fill="none"
     stroke="black"
     stroke-width="1"
     d="M 93.00,118.00            C 89.02,126.74 90.34,126.89 93.00,136.00              98.09,129.79 99.77,123.48 93.00,118.00 Z"
     onclick="top.notify(evt)" />
  <path
     id="Selection #22"
     fill="none"
     stroke="black"
     stroke-width="1"
     d="M 76.00,121.00            C 73.53,122.18 64.32,126.76 62.99,128.64              61.94,130.14 62.03,132.25 62.00,134.00              61.92,138.87 61.20,148.99 63.51,152.99              63.51,152.99 79.00,170.00 79.00,170.00              79.00,170.00 82.00,170.00 82.00,170.00              83.84,167.45 89.84,160.07 93.02,159.75              96.32,159.41 103.08,167.44 105.00,170.00              109.17,168.17 111.92,166.11 114.00,162.00              114.00,162.00 116.00,163.00 116.00,163.00              118.22,159.92 122.85,155.66 124.07,152.96              125.51,149.75 125.01,139.96 125.00,136.00              125.00,133.73 125.23,130.36 123.98,128.41              122.04,125.37 115.40,122.81 112.00,122.00              112.00,122.00 113.00,139.00 113.00,139.00              113.00,139.00 100.00,126.00 100.00,126.00              100.00,126.00 93.00,142.00 93.00,142.00              93.00,142.00 88.00,127.00 88.00,127.00              84.14,129.09 79.17,135.14 77.00,139.00              77.00,139.00 76.00,121.00 76.00,121.00 Z"
     onclick="top.notify(evt)" />
  <path
     id="Selection #21"
     fill="none"
     stroke="black"
     stroke-width="1"
     d="M 92.00,86.00            C 90.64,87.24 87.87,89.06 87.02,90.41              86.19,91.73 86.00,93.45 86.16,94.96              87.52,107.73 105.48,99.23 100.70,91.62              99.27,89.35 96.08,87.79 94.00,86.00              94.00,86.00 92.00,86.00 92.00,86.00 Z"
     onclick="top.notify(evt)" />
  <path
     id="Selection #20"
     fill="none"
     stroke="black"
     stroke-width="1"
     d="M 78.00,57.00            C 78.00,57.00 79.00,79.00 79.00,79.00              79.00,79.00 56.00,78.00 56.00,78.00              56.00,78.00 67.15,89.00 67.15,89.00              67.15,89.00 71.27,94.57 71.27,94.57              71.27,94.57 67.42,99.42 67.42,99.42              67.42,99.42 57.00,110.00 57.00,110.00              57.00,110.00 80.00,109.00 80.00,109.00              80.00,109.00 79.00,132.00 79.00,132.00              79.00,132.00 96.00,115.00 96.00,115.00              96.00,115.00 109.00,132.00 109.00,132.00              111.44,125.85 109.15,115.68 109.00,109.00              109.00,109.00 132.00,110.00 132.00,110.00              128.57,104.93 119.74,97.20 114.00,95.00              114.00,95.00 131.00,78.00 131.00,78.00              131.00,78.00 109.00,79.00 109.00,79.00              109.00,79.00 110.00,57.00 110.00,57.00              105.29,59.59 103.97,60.99 102.00,66.00              102.00,66.00 100.00,65.00 100.00,65.00              100.00,65.00 94.27,71.25 94.27,71.25              94.27,71.25 89.40,68.25 89.40,68.25              89.40,68.25 78.00,57.00 78.00,57.00 Z            M 92.00,84.42            C 106.00,83.77 107.96,101.71 95.00,103.62              82.50,105.47 82.10,91.02 86.65,86.79              88.23,85.31 90.01,84.95 92.00,84.42 Z"
     onclick="top.notify(evt)" />
  <path
     id="Selection #19"
     fill="none"
     stroke="black"
     stroke-width="1"
     d="M 138.00,4.00            C 140.65,7.53 145.92,8.43 149.00,5.00              149.00,5.00 149.00,10.00 149.00,10.00              164.94,7.15 158.09,5.00 178.00,5.00              179.02,9.57 180.87,8.26 181.00,15.00              181.21,26.56 179.56,29.31 176.00,40.00              176.00,40.00 181.00,38.00 181.00,38.00              179.95,42.32 178.91,46.15 183.00,49.00              183.00,49.00 183.00,4.00 183.00,4.00              183.00,4.00 138.00,4.00 138.00,4.00 Z"
     onclick="top.notify(evt)" />
  <path
     id="Selection #18"
     fill="none"
     stroke="black"
     stroke-width="1"
     d="M 172.00,14.00            C 164.50,17.41 160.11,20.63 158.00,29.00              164.92,27.91 174.22,22.22 172.00,14.00 Z"
     onclick="top.notify(evt)" />
  <path
     id="Selection #17"
     fill="none"
     stroke="black"
     stroke-width="1"
     d="M 111.00,77.00            C 111.00,77.00 118.00,77.00 118.00,77.00              118.00,77.00 123.00,66.00 123.00,66.00              120.06,66.62 112.91,69.64 111.57,72.41              110.94,73.73 111.05,75.57 111.00,77.00 Z"
     onclick="top.notify(evt)" />
  <path
     id="Selection #16"
     fill="none"
     stroke="black"
     stroke-width="1"
     d="M 93.00,53.00            C 90.89,60.30 88.97,63.13 93.00,70.00              100.34,65.25 96.75,59.02 93.00,53.00 Z" />
  <path
     id="Selection #15"
     fill="none"
     stroke="black"
     stroke-width="1"
     d="M 93.00,53.00            C 90.89,60.30 88.97,63.13 93.00,70.00              100.34,65.25 96.75,59.02 93.00,53.00 Z"
     onclick="top.notify(evt)" />
  <path
     id="Selection #14"
     fill="none"
     stroke="black"
     stroke-width="1"
     d="M 65.00,66.00            C 66.51,73.89 69.00,76.90 77.00,77.00              76.95,75.57 77.06,73.73 76.43,72.41              75.12,69.70 67.88,66.74 65.00,66.00 Z"
     onclick="top.notify(evt)" />
  <path
     id="Selection #13"
     fill="none"
     stroke="black"
     stroke-width="1"
     d="M 57.00,92.00            C 57.00,92.00 53.00,95.00 53.00,95.00              59.87,98.59 63.48,99.27 70.00,95.00              65.90,88.85 63.32,91.37 57.00,92.00 Z"
     onclick="top.notify(evt)" />
  <path
     id="Selection #12"
     fill="none"
     stroke="black"
     stroke-width="1"
     d="M 37.00,128.00            C 37.00,128.00 37.00,151.00 37.00,151.00              37.00,151.00 59.00,151.00 59.00,151.00              59.00,151.00 59.00,128.00 59.00,128.00              59.00,128.00 37.00,128.00 37.00,128.00 Z"
     onclick="top.notify(evt)" />
  <path
     id="Selection #11"
     fill="none"
     stroke="black"
     stroke-width="1"
     d="M 13.00,174.00            C 21.78,172.57 26.79,167.61 29.00,159.00              18.90,160.56 16.49,164.75 13.00,174.00 Z"
     onclick="top.notify(evt)" />
  <path
     id="Selection #10"
     fill="none"
     stroke="black"
     stroke-width="1"
     d="M 4.00,139.00            C 4.00,139.00 4.00,184.00 4.00,184.00              4.00,184.00 49.00,184.00 49.00,184.00              44.85,181.32 41.60,181.69 37.00,183.00              37.00,183.00 39.00,177.00 39.00,177.00              29.58,180.75 26.61,183.11 16.00,183.00              12.58,182.96 8.34,183.03 6.31,179.72              5.17,177.85 5.07,175.14 5.01,173.00              4.66,158.75 8.95,158.96 11.00,148.00              11.00,148.00 5.00,151.00 5.00,151.00              6.31,146.40 6.68,143.15 4.00,139.00 Z"
     onclick="top.notify(evt)" />
  <path
     id="Selection #9"
     fill="none"
     stroke="black"
     stroke-width="1"
     d="M 152.00,35.00            C 152.00,35.00 152.88,60.74 152.88,60.74              152.88,60.74 158.00,66.32 158.00,66.32              158.00,66.32 171.00,79.00 171.00,79.00              174.15,76.90 181.02,71.11 182.72,67.72              183.08,66.13 182.99,63.71 182.72,62.00              183.01,60.30 183.07,56.70 182.72,55.17              181.70,50.61 178.89,50.58 178.00,42.00              178.00,42.00 172.00,42.00 172.00,42.00              175.91,32.47 178.86,30.53 179.00,19.00              179.10,10.44 179.65,8.24 172.00,8.02              157.84,7.60 156.37,10.92 145.00,15.00              145.00,15.00 145.00,9.00 145.00,9.00              134.35,8.37 138.95,4.15 128.00,4.00              125.89,3.98 122.06,3.85 120.17,4.59              116.85,5.90 109.43,13.14 110.04,17.00              110.47,19.73 113.82,22.39 115.72,24.27              121.21,29.71 123.86,34.85 132.00,35.00              132.00,35.00 152.00,35.00 152.00,35.00 Z            M 175.76,11.00            C 175.99,12.98 176.11,15.87 175.76,17.72              172.57,26.89 163.15,32.57 154.00,33.00              156.88,21.07 163.31,12.63 175.76,11.00 Z"
     onclick="top.notify(evt)" />
  <path
     id="Selection #8"
     fill="none"
     stroke="black"
     stroke-width="1"
     d="M 76.00,67.00            C 76.00,67.00 76.00,51.00 76.00,51.00              76.00,51.00 89.00,63.00 89.00,63.00              89.00,63.00 93.00,47.00 93.00,47.00              96.60,51.89 97.68,57.13 99.00,63.00              103.83,59.26 108.66,54.74 111.00,49.00              112.88,55.61 111.88,62.32 111.00,69.00              111.00,69.00 123.26,62.30 123.26,62.30              125.94,59.39 125.01,47.25 125.00,43.00              125.00,40.66 125.25,37.56 124.01,35.51              121.91,32.04 115.13,27.63 114.00,24.00              111.90,22.62 108.53,19.82 106.00,20.01              101.05,20.39 97.49,28.63 93.00,28.28              87.85,27.88 84.59,18.33 79.00,20.15              76.78,20.88 73.44,24.42 71.73,26.13              69.23,28.64 64.46,32.98 63.01,36.00              61.44,39.27 61.98,49.89 62.00,54.00              62.01,56.32 61.85,59.57 63.17,61.55              65.20,64.58 72.54,66.38 76.00,67.00 Z"
     onclick="top.notify(evt)" />
  <path
     id="Selection #7"
     fill="none"
     stroke="black"
     stroke-width="1"
     d="M 24.00,86.00            C 24.00,86.00 28.81,94.01 28.81,94.01              28.81,94.01 18.00,109.00 18.00,109.00              21.66,112.01 23.25,115.09 28.00,116.00              29.72,120.22 30.29,122.08 35.00,123.00              35.00,123.00 36.00,124.00 36.00,124.00              36.00,124.00 35.00,126.00 35.00,126.00              35.00,126.00 62.00,126.00 62.00,126.00              62.00,126.00 67.00,113.00 67.00,113.00              67.00,113.00 51.00,114.00 51.00,114.00              53.39,109.15 58.28,104.59 63.00,102.00              58.32,98.15 51.96,96.54 46.00,96.00              46.00,96.00 46.00,94.00 46.00,94.00              46.00,94.00 63.00,89.00 63.00,89.00              63.00,89.00 50.00,76.00 50.00,76.00              50.00,76.00 67.00,77.00 67.00,77.00              66.03,74.23 63.28,66.55 61.30,64.74              59.33,62.93 56.50,63.04 54.00,63.00              47.13,62.91 37.67,61.55 32.28,66.34              32.28,66.34 25.28,73.27 25.28,73.27              20.76,77.74 14.62,82.47 24.00,86.00 Z"
     onclick="top.notify(evt)" />
  <path
     id="Selection #6"
     fill="none"
     stroke="black"
     stroke-width="1"
     d="M 16.00,109.00            C 7.85,116.46 3.82,117.80 4.24,129.00              4.03,130.71 4.04,132.32 4.24,133.99              5.85,139.37 9.25,139.78 9.00,146.00              9.00,146.00 16.00,146.00 16.00,146.00              10.98,152.93 8.21,161.42 8.01,170.00              7.85,177.12 7.50,179.87 15.00,180.00              21.21,180.10 27.11,179.55 32.96,177.29              34.84,176.57 38.93,173.75 40.63,174.44              42.42,175.16 42.03,177.51 42.00,179.00              52.30,179.97 48.18,183.82 58.00,184.00              66.39,184.15 67.04,184.28 73.00,178.27              74.93,176.32 77.52,174.11 76.87,171.03              76.35,168.54 64.25,156.56 61.72,154.85              57.31,151.90 40.95,153.00 35.00,153.00              35.00,153.00 34.48,128.28 34.48,128.28              33.13,124.52 29.78,121.73 26.00,121.00              24.40,115.58 20.20,112.57 16.00,109.00 Z            M 32.00,155.00            C 31.00,166.92 23.42,176.39 11.00,177.00              11.31,163.40 19.72,157.93 32.00,155.00 Z"
     onclick="top.notify(evt)" />
  <path
     id="Selection #5"
     fill="none"
     stroke="black"
     stroke-width="1"
     d="M 71.00,4.00            C 71.00,4.00 92.00,27.00 92.00,27.00              99.64,24.17 109.37,10.80 116.00,5.00              116.00,5.00 101.00,4.00 101.00,4.00              101.00,4.00 71.00,4.00 71.00,4.00 Z"
     onclick="top.notify(evt)" />
  <path
     id="Selection #4"
     fill="none"
     stroke="black"
     stroke-width="1"
     d="M 37.00,38.00            C 37.00,38.00 37.00,60.00 37.00,60.00              37.00,60.00 59.00,60.00 59.00,60.00              59.00,60.00 59.00,38.00 59.00,38.00              59.00,38.00 37.00,38.00 37.00,38.00 Z"
     onclick="top.notify(evt)" />
  <path
     id="Selection #3"
     fill="none"
     stroke="black"
     stroke-width="1"
     d="M 4.00,71.00            C 4.00,71.00 4.00,117.00 4.00,117.00              9.88,113.49 15.80,106.44 20.73,101.42              22.49,99.63 25.73,96.70 25.67,94.00              25.58,90.15 17.27,83.57 14.00,82.00              14.00,82.00 15.00,80.00 15.00,80.00              15.00,80.00 8.00,73.00 8.00,73.00              8.00,73.00 6.00,74.00 6.00,74.00              6.00,74.00 4.00,71.00 4.00,71.00 Z"
     onclick="top.notify(evt)" />
  <path
     id="Selection #2"
     fill="none"
     stroke="black"
     stroke-width="1"
     d="M 13.00,14.00            C 18.64,23.53 17.77,26.50 30.00,29.00              27.09,20.12 22.28,15.44 13.00,14.00 Z"
     onclick="top.notify(evt)" />
  <path
     id="Selection #1"
     fill="none"
     stroke="black"
     stroke-width="1"
     d="M 42.00,9.00            C 42.00,9.00 42.00,16.00 42.00,16.00              31.95,10.16 27.26,7.51 15.00,8.02              10.20,8.22 8.22,10.20 8.02,15.00              7.62,24.68 9.99,34.39 16.00,42.00              8.02,42.26 10.58,44.03 7.21,49.72              6.28,51.28 5.22,52.27 4.80,54.09              3.59,56.87 3.61,66.26 4.80,68.83              5.87,70.38 7.60,71.89 8.85,73.15              9.92,74.24 11.94,76.49 13.17,77.21              17.54,79.77 21.91,73.86 24.93,71.08              27.39,68.81 32.83,63.46 34.18,60.58              35.67,57.37 35.00,39.70 35.00,35.00              40.88,35.00 57.52,36.19 61.83,33.26              61.83,33.26 73.05,22.27 73.05,22.27              74.50,20.83 76.61,19.10 76.96,16.97              77.39,14.37 75.33,12.29 73.71,10.58              67.55,4.08 66.77,3.85 58.00,4.00              48.40,4.18 52.46,8.02 42.00,9.00 Z            M 32.00,33.00            C 20.60,30.58 11.57,23.14 11.00,11.00              23.71,11.36 31.72,20.58 32.00,33.00 Z"
     onclick="top.notify(evt)" />
  <path
     id="Selection"
     fill="none"
     stroke="black"
     stroke-width="1"
     d="M 4.00,4.00            C 4.00,4.00 4.00,49.00 4.00,49.00              6.55,45.05 6.00,42.55 6.00,38.00              6.00,38.00 11.00,40.00 11.00,40.00              8.41,28.95 4.64,27.81 5.02,15.00              5.52,-2.31 29.88,7.49 39.00,11.00              39.00,11.00 37.00,5.00 37.00,5.00              41.27,8.05 44.58,7.32 49.00,5.00              49.00,5.00 34.00,4.00 34.00,4.00              34.00,4.00 4.00,4.00 4.00,4.00 Z"
     onclick="top.notify(evt)" />
</svg>
