<?xml version="1.0" encoding="UTF-8" standalone="no"?>
<svg
   xmlns:dc="http://purl.org/dc/elements/1.1/"
   xmlns:cc="http://creativecommons.org/ns#"
   xmlns:rdf="http://www.w3.org/1999/02/22-rdf-syntax-ns#"
   xmlns:svg="http://www.w3.org/2000/svg"
   xmlns="http://www.w3.org/2000/svg"
   xmlns:sodipodi="http://sodipodi.sourceforge.net/DTD/sodipodi-0.dtd"
   xmlns:inkscape="http://www.inkscape.org/namespaces/inkscape"
   width="2.41636in"
   height="2.3747in"
   viewBox="0 0 232 228"
   version="1.1"
   id="svg257"
   sodipodi:docname="acacia15-01.svg"
   inkscape:version="0.92.4 (5da689c313, 2019-01-14)">
  <metadata
     id="metadata263">
    <rdf:RDF>
      <cc:Work
         rdf:about="">
        <dc:format>image/svg+xml</dc:format>
        <dc:type
           rdf:resource="http://purl.org/dc/dcmitype/StillImage" />
      </cc:Work>
    </rdf:RDF>
  </metadata>
  <defs
     id="defs261" />
  <sodipodi:namedview
     pagecolor="#ffffff"
     bordercolor="#666666"
     borderopacity="1"
     objecttolerance="10"
     gridtolerance="10"
     guidetolerance="10"
     inkscape:pageopacity="0"
     inkscape:pageshadow="2"
     inkscape:window-width="1366"
     inkscape:window-height="659"
     id="namedview259"
     showgrid="false"
     inkscape:zoom="2.0748234"
     inkscape:cx="107.06885"
     inkscape:cy="113.9856"
     inkscape:window-x="0"
     inkscape:window-y="31"
     inkscape:window-maximized="1"
     inkscape:current-layer="svg257" />
  <path
     id="Selection #17"
     fill="none"
     stroke="black"
     stroke-width="1"
     d="M 118.00,2.00            C 118.00,2.00 153.00,20.25 153.00,20.25              153.00,20.25 171.00,28.83 171.00,28.83              175.31,29.67 183.93,24.28 188.00,22.25              188.00,22.25 227.00,3.00 227.00,3.00              227.00,3.00 215.00,2.00 215.00,2.00              215.00,2.00 193.00,2.00 193.00,2.00              193.00,2.00 118.00,2.00 118.00,2.00 Z"
     onclick="top.notify(evt)" />
  <path
     id="Selection #16"
     fill="none"
     stroke="black"
     stroke-width="1"
     d="M 199.00,174.00            C 199.00,174.00 189.79,188.61 189.79,188.61              189.79,188.61 176.00,196.00 176.00,196.00              176.00,196.00 197.00,207.25 197.00,207.25              197.00,207.25 222.00,219.00 222.00,219.00              222.00,219.00 211.25,197.00 211.25,197.00              211.25,197.00 199.00,174.00 199.00,174.00 Z"
     onclick="top.notify(evt)" />
  <path
     id="Selection #15"
     fill="none"
     stroke="black"
     stroke-width="1"
     d="M 123.00,220.00            C 123.00,220.00 165.00,199.25 165.00,199.25              165.00,199.25 187.79,187.37 187.79,187.37              187.79,187.37 200.25,166.00 200.25,166.00              200.25,166.00 222.00,122.00 222.00,122.00              222.00,122.00 177.00,143.75 177.00,143.75              177.00,143.75 156.63,154.63 156.63,154.63              156.63,154.63 144.74,177.00 144.74,177.00              144.74,177.00 123.00,220.00 123.00,220.00 Z"
     onclick="top.notify(evt)" />
  <path
     id="Selection #14"
     fill="none"
     stroke="black"
     stroke-width="1"
     d="M 123.00,122.00            C 123.00,122.00 135.75,147.00 135.75,147.00              135.75,147.00 147.00,167.00 147.00,167.00              147.00,167.00 155.39,152.63 155.39,152.63              155.39,152.63 169.00,145.00 169.00,145.00              169.00,145.00 148.00,133.75 148.00,133.75              148.00,133.75 123.00,122.00 123.00,122.00 Z"
     onclick="top.notify(evt)" />
  <path
     id="Selection #13"
     fill="none"
     stroke="black"
     stroke-width="1"
     d="M 228.00,3.00            C 228.00,3.00 208.75,41.00 208.75,41.00              207.16,44.19 201.60,54.14 201.48,57.00              201.31,61.15 207.15,70.07 209.22,74.00              209.22,74.00 221.26,98.00 221.26,98.00              221.26,98.00 228.00,111.00 228.00,111.00              228.00,111.00 229.00,86.00 229.00,86.00              229.00,86.00 229.00,31.00 229.00,31.00              229.00,31.00 228.00,3.00 228.00,3.00 Z"
     onclick="top.notify(evt)" />
  <path
     id="Selection #12"
     fill="none"
     stroke="black"
     stroke-width="1"
     d="M 176.00,31.00            C 176.00,31.00 190.61,39.63 190.61,39.63              190.61,39.63 198.00,53.00 198.00,53.00              198.00,53.00 200.00,53.00 200.00,53.00              200.00,53.00 216.26,21.00 216.26,21.00              216.26,21.00 223.00,8.00 223.00,8.00              223.00,8.00 204.00,16.75 204.00,16.75              204.00,16.75 176.00,31.00 176.00,31.00 Z"
     onclick="top.notify(evt)" />
  <path
     id="Selection #11"
     fill="none"
     stroke="black"
     stroke-width="1"
     d="M 124.00,9.00            C 124.00,9.00 145.75,53.00 145.75,53.00              145.75,53.00 157.38,73.37 157.38,73.37              157.38,73.37 180.00,85.25 180.00,85.25              180.00,85.25 222.00,106.00 222.00,106.00              222.00,106.00 201.25,64.00 201.25,64.00              201.25,64.00 189.37,41.63 189.37,41.63              189.37,41.63 169.00,30.75 169.00,30.75              169.00,30.75 124.00,9.00 124.00,9.00 Z"
     onclick="top.notify(evt)" />
  <path
     id="Selection #10"
     fill="none"
     stroke="black"
     stroke-width="1"
     d="M 146.00,60.00            C 146.00,60.00 123.00,106.00 123.00,106.00              123.00,106.00 169.00,84.00 169.00,84.00              169.00,84.00 169.00,82.00 169.00,82.00              169.00,82.00 154.39,73.79 154.39,73.79              154.39,73.79 146.00,60.00 146.00,60.00 Z"
     onclick="top.notify(evt)" />
  <path
     id="Selection #9"
     fill="none"
     stroke="black"
     stroke-width="1"
     d="M 61.00,145.00            C 61.00,145.00 75.61,153.39 75.61,153.39              75.61,153.39 83.00,167.00 83.00,167.00              83.00,167.00 85.00,167.00 85.00,167.00              85.00,167.00 107.00,122.00 107.00,122.00              107.00,122.00 82.00,133.75 82.00,133.75              82.00,133.75 61.00,145.00 61.00,145.00 Z"
     onclick="top.notify(evt)" />
  <path
     id="Selection #8"
     fill="none"
     stroke="black"
     stroke-width="1"
     d="M 8.00,122.00            C 8.00,122.00 32.14,169.00 32.14,169.00              32.14,169.00 41.63,186.37 41.63,186.37              41.63,186.37 62.00,197.25 62.00,197.25              62.00,197.25 107.00,219.00 107.00,219.00              107.00,219.00 98.26,201.00 98.26,201.00              98.26,201.00 83.42,172.00 83.42,172.00              83.42,172.00 73.61,154.63 73.61,154.63              73.61,154.63 51.00,142.75 51.00,142.75              51.00,142.75 8.00,122.00 8.00,122.00 Z"
     onclick="top.notify(evt)" />
  <path
     id="Selection #7"
     fill="none"
     stroke="black"
     stroke-width="1"
     d="M 31.00,174.00            C 31.00,174.00 15.75,204.00 15.75,204.00              15.75,204.00 8.00,220.00 8.00,220.00              8.00,220.00 55.00,197.00 55.00,197.00              55.00,197.00 40.39,188.37 40.39,188.37              40.39,188.37 31.00,174.00 31.00,174.00 Z"
     onclick="top.notify(evt)" />
  <path
     id="Selection #6"
     fill="none"
     stroke="black"
     stroke-width="1"
     d="M 2.00,117.00            C 2.00,117.00 2.00,224.00 2.00,224.00              2.00,224.00 20.25,190.00 20.25,190.00              20.25,190.00 28.83,172.00 28.83,172.00              29.63,167.89 25.14,160.79 23.25,157.00              23.25,157.00 11.26,134.00 11.26,134.00              8.54,128.73 5.57,121.49 2.00,117.00 Z"
     onclick="top.notify(evt)" />
  <path
     id="Selection #5"
     fill="none"
     stroke="black"
     stroke-width="1"
     d="M 114.00,112.00            C 114.00,112.00 75.00,92.75 75.00,92.75              71.32,90.92 61.59,85.42 58.00,85.42              54.87,85.42 49.88,88.31 47.00,89.75              47.00,89.75 27.00,99.75 27.00,99.75              27.00,99.75 8.00,109.25 8.00,109.25              6.29,110.13 2.59,111.70 2.59,114.00              2.59,116.30 6.29,117.87 8.00,118.75              8.00,118.75 27.00,128.25 27.00,128.25              27.00,128.25 56.00,142.26 56.00,142.26              60.36,143.07 68.90,137.80 73.00,135.75              73.00,135.75 113.00,116.00 113.00,116.00              113.00,116.00 94.25,153.00 94.25,153.00              92.76,155.97 87.19,166.55 86.74,169.00              85.94,173.31 90.76,181.01 92.75,185.00              92.75,185.00 113.00,225.00 113.00,225.00              113.00,225.00 75.00,206.25 75.00,206.25              75.00,206.25 58.00,198.78 58.00,198.78              58.00,198.78 41.00,206.25 41.00,206.25              41.00,206.25 3.00,225.00 3.00,225.00              3.00,225.00 25.00,226.00 25.00,226.00              25.00,226.00 71.00,226.00 71.00,226.00              71.00,226.00 229.00,226.00 229.00,226.00              229.00,226.00 229.00,120.00 229.00,120.00              229.00,120.00 228.01,112.63 228.01,112.63              228.01,112.63 219.00,107.25 219.00,107.25              219.00,107.25 198.00,96.75 198.00,96.75              198.00,96.75 182.00,88.75 182.00,88.75              182.00,88.75 172.00,85.49 172.00,85.49              172.00,85.49 154.00,93.75 154.00,93.75              154.00,93.75 117.00,112.00 117.00,112.00              117.00,112.00 128.26,90.00 128.26,90.00              128.26,90.00 137.25,73.00 137.25,73.00              137.25,73.00 144.22,57.00 144.22,57.00              144.22,57.00 135.86,39.00 135.86,39.00              135.86,39.00 117.00,2.00 117.00,2.00              115.51,2.49 114.93,2.42 113.63,3.59              111.86,5.21 102.92,22.64 101.25,26.00              101.25,26.00 91.22,46.00 91.22,46.00              89.60,49.07 86.43,53.57 86.42,57.00              86.41,61.21 92.52,70.98 94.69,75.00              94.69,75.00 114.00,112.00 114.00,112.00 Z            M 228.00,116.00            C 225.53,124.65 213.40,145.87 208.76,155.00              207.46,157.55 202.59,166.87 202.17,169.00              201.33,173.31 206.72,181.93 208.75,186.00              213.39,195.28 225.59,216.55 228.00,225.00              228.00,225.00 189.00,206.25 189.00,206.25              189.00,206.25 173.00,199.27 173.00,199.27              173.00,199.27 158.00,205.75 158.00,205.75              158.00,205.75 133.00,218.25 133.00,218.25              133.00,218.25 117.00,225.00 117.00,225.00              117.00,225.00 136.25,187.00 136.25,187.00              136.25,187.00 143.72,171.00 143.72,171.00              143.72,171.00 136.25,154.00 136.25,154.00              136.25,154.00 117.00,116.00 117.00,116.00              125.27,117.55 149.77,131.63 159.00,136.25              161.39,137.44 168.90,141.42 171.00,141.83              175.31,142.67 183.93,137.28 188.00,135.25              188.00,135.25 228.00,116.00 228.00,116.00 Z"
     onclick="top.notify(evt)" />
  <path
     id="Selection #4"
     fill="none"
     stroke="black"
     stroke-width="1"
     d="M 83.00,61.00            C 83.00,61.00 75.61,74.61 75.61,74.61              75.61,74.61 62.00,82.00 62.00,82.00              62.00,82.00 62.00,84.00 62.00,84.00              62.00,84.00 107.00,106.00 107.00,106.00              107.00,106.00 85.00,61.00 85.00,61.00              85.00,61.00 83.00,61.00 83.00,61.00 Z"
     onclick="top.notify(evt)" />
  <path
     id="Selection #3"
     fill="none"
     stroke="black"
     stroke-width="1"
     d="M 8.00,106.00            C 8.00,106.00 55.00,83.25 55.00,83.25              55.00,83.25 74.37,72.61 74.37,72.61              74.37,72.61 85.76,51.00 85.76,51.00              85.76,51.00 108.00,8.00 108.00,8.00              108.00,8.00 61.00,30.75 61.00,30.75              61.00,30.75 41.63,41.39 41.63,41.39              41.63,41.39 28.75,65.00 28.75,65.00              28.75,65.00 8.00,106.00 8.00,106.00 Z"
     onclick="top.notify(evt)" />
  <path
     id="Selection #2"
     fill="none"
     stroke="black"
     stroke-width="1"
     d="M 3.00,2.00            C 3.00,2.00 38.00,20.25 38.00,20.25              38.00,20.25 56.00,28.83 56.00,28.83              60.31,29.67 68.93,24.28 73.00,22.25              73.00,22.25 112.00,3.00 112.00,3.00              112.00,3.00 100.00,2.00 100.00,2.00              100.00,2.00 78.00,2.00 78.00,2.00              78.00,2.00 3.00,2.00 3.00,2.00 Z"
     onclick="top.notify(evt)" />
  <path
     id="Selection #1"
     fill="none"
     stroke="black"
     stroke-width="1"
     d="M 9.00,9.00            C 9.00,9.00 31.00,54.00 31.00,54.00              31.00,54.00 40.38,39.39 40.38,39.39              40.38,39.39 54.00,31.00 54.00,31.00              54.00,31.00 28.00,17.75 28.00,17.75              28.00,17.75 9.00,9.00 9.00,9.00 Z"
     onclick="top.notify(evt)" />
  <path
     id="Selection"
     fill="none"
     stroke="black"
     stroke-width="1"
     d="M 2.00,4.00            C 2.00,4.00 2.00,111.00 2.00,111.00              2.00,111.00 22.24,73.00 22.24,73.00              22.24,73.00 29.22,57.00 29.22,57.00              29.22,57.00 21.31,40.00 21.31,40.00              21.31,40.00 2.00,4.00 2.00,4.00 Z"
     onclick="top.notify(evt)" />
</svg>
