<?xml version="1.0" encoding="UTF-8" standalone="no"?>
<!DOCTYPE svg PUBLIC "-//W3C//DTD SVG 20010904//EN"
              "http://www.w3.org/TR/2001/REC-SVG-20010904/DTD/svg10.dtd">

<svg xmlns="http://www.w3.org/2000/svg"
     width="2.39553in" height="2.39553in"
     viewBox="0 0 230 230">
  <path id="Selection"
        fill="none" stroke="black" stroke-width="1"
        d="M 42.00,3.00
           C 42.00,3.00 42.00,42.00 42.00,42.00
             42.00,42.00 2.00,42.00 2.00,42.00
             2.00,42.00 2.00,53.00 2.00,53.00
             2.00,53.00 38.00,53.00 38.00,53.00
             48.17,53.07 52.12,60.14 59.00,67.00
             60.96,68.95 65.16,73.80 68.00,73.80
             70.51,73.80 73.30,70.63 75.00,69.00
             75.00,69.00 53.02,45.00 53.02,45.00
             53.02,45.00 52.00,39.00 52.00,39.00
             52.00,39.00 52.00,3.00 52.00,3.00
             52.00,3.00 42.00,3.00 42.00,3.00 Z" />
</svg>
