<?xml version="1.0" encoding="UTF-8" standalone="no"?>
<!DOCTYPE svg PUBLIC "-//W3C//DTD SVG 20010904//EN"
              "http://www.w3.org/TR/2001/REC-SVG-20010904/DTD/svg10.dtd">

<svg xmlns="http://www.w3.org/2000/svg"
     width="5.55556in" height="5.55556in"
     viewBox="0 0 500 500">
  <path id="Selection #2"
        fill="none" stroke="black" stroke-width="1"
        d="M 495.00,460.00
           C 495.00,460.00 471.22,470.65 471.22,470.65
             471.22,470.65 466.19,480.00 466.19,480.00
             466.19,480.00 460.00,496.00 460.00,496.00
             460.00,496.00 496.00,496.00 496.00,496.00
             496.00,496.00 496.00,473.00 496.00,473.00
             496.00,473.00 495.00,460.00 495.00,460.00 Z" />
  <path id="Selection #1"
        fill="none" stroke="black" stroke-width="1"
        d="M 496.00,45.00
           C 496.00,45.00 496.00,6.00 496.00,6.00
             496.00,6.00 466.00,6.00 466.00,6.00
             452.23,6.02 425.28,16.15 412.00,21.55
             360.49,42.50 311.12,77.01 287.31,129.00
             274.64,156.67 268.95,181.55 269.00,212.00
             269.01,219.58 269.99,222.85 270.85,230.00
             271.74,237.48 273.08,247.88 275.21,255.00
             280.20,271.72 286.40,282.99 298.17,296.00
             298.17,296.00 313.00,310.00 313.00,310.00
             332.92,329.70 353.49,348.25 381.00,356.56
             390.17,359.33 399.52,359.97 409.00,360.68
             409.00,360.68 418.00,360.04 418.00,360.04
             451.74,358.52 480.38,335.69 491.34,304.00
             494.26,295.58 495.89,290.11 496.00,281.00
             496.25,259.54 492.28,240.48 479.22,223.00
             471.48,212.64 462.54,205.55 449.00,206.02
             426.03,206.81 405.08,241.38 419.94,262.00
             429.18,274.82 446.45,276.97 461.00,277.00
             463.21,277.00 467.72,276.67 469.19,278.60
             470.57,280.41 469.15,283.19 468.42,285.00
             466.25,290.34 462.91,296.39 459.24,300.83
             448.76,313.52 431.63,322.80 415.00,323.00
             415.00,323.00 409.00,323.00 409.00,323.00
             387.21,322.97 365.24,311.07 350.09,295.91
             343.51,289.33 336.92,279.93 331.95,272.00
             325.55,261.79 319.50,249.62 316.17,238.00
             314.30,231.47 313.66,224.69 312.72,218.00
             311.80,211.56 311.03,211.30 311.00,204.00
             310.95,193.96 311.46,195.88 312.72,187.00
             313.72,179.94 314.51,172.89 316.51,166.00
             325.62,134.62 349.42,103.47 376.00,84.77
             400.73,67.37 428.57,56.62 458.00,50.40
             470.68,47.71 482.92,45.01 496.00,45.00 Z" />
  <path id="Selection"
        fill="none" stroke="black" stroke-width="1"
        d="M 3.00,496.00
           C 3.00,496.00 41.00,496.00 41.00,496.00
             41.00,496.00 43.87,476.00 43.87,476.00
             43.87,476.00 47.43,455.00 47.43,455.00
             61.42,394.34 98.51,338.99 160.00,319.39
             170.98,315.89 182.37,313.14 194.00,313.00
             215.77,312.75 225.32,313.99 246.00,321.00
             261.37,326.22 277.84,336.62 290.00,347.29
             316.81,370.80 333.23,409.81 313.55,443.00
             309.98,449.01 305.24,454.21 300.00,458.82
             294.30,463.83 283.47,469.60 276.00,471.00
             276.00,453.74 275.99,431.00 260.00,419.99
             255.42,416.84 251.43,416.07 246.00,416.00
             240.72,415.94 237.15,415.87 232.00,417.44
             218.35,421.62 204.64,435.18 204.04,450.00
             203.54,462.34 210.65,471.68 220.00,478.98
             235.60,491.18 259.49,496.22 279.00,496.00
             288.21,495.89 295.41,493.99 304.00,491.00
             337.21,479.46 359.58,450.50 360.00,415.00
             360.49,373.09 339.85,343.27 310.17,315.59
             310.17,315.59 298.83,304.88 298.83,304.88
             283.31,291.55 262.84,280.21 243.00,274.92
             237.89,273.56 228.43,272.43 223.00,271.93
             197.52,269.57 172.43,272.26 148.00,280.03
             100.00,295.30 61.90,331.31 36.45,374.00
             36.45,374.00 21.34,405.00 21.34,405.00
             14.72,419.85 3.02,449.20 3.00,465.00
             3.00,465.00 3.00,496.00 3.00,496.00 Z" />
</svg>
